ply
format ascii 1.0
comment VCGLIB generated
element vertex 695
property float x
property float y
property float z
element face 1396
property list uchar int vertex_indices
end_header
1127.55 883.1098 313.8617 
1128.534 865.7336 315.8912 
1131.577 873.8226 315.9063 
1124.457 886.8096 314.287 
1125.604 899.3828 315.7635 
1129.123 852.009 320.1873 
1123.434 884.3463 315.2177 
1122.833 894.8453 318.5501 
1134.027 898.0629 316.475 
1132.791 852.3987 317.7785 
1122.826 913.1768 321.6897 
1132.448 840.0024 320.2582 
1125.501 877.6967 315.6041 
1126.93 916.7697 318.9556 
1135.201 839.6047 320.4464 
1127.222 868.316 321.6217 
1123.932 884.9724 317.6511 
1130.957 899.1782 315.8215 
1134.937 862.5775 319.1783 
1134.493 898.2655 318.4008 
1134.765 908.2005 318.2838 
1134.518 834.3503 320.9376 
1132.481 874.4969 321.8702 
1132.284 887.9891 317.6549 
1131.729 920.7771 319.6462 
1133.561 837.8024 323.1117 
1124.971 866.4077 326.763 
1136.103 877.6657 325.363 
1127.732 932.3299 322.6899 
1127.31 857.7632 327.4894 
1124.29 891.9453 324.2425 
1135.869 907.3152 321.662 
1130.429 844.601 323.6834 
1127.768 882.0164 319.45 
1132.676 915.7186 326.4156 
1120.319 908.0953 329.6053 
1124.131 928.1653 323.7024 
1128.453 940.4942 324.9031 
1135.322 835.0856 321.8933 
1129.807 875.4936 325.8432 
1125.865 876.8602 327.956 
1139.56 878.2409 326.4543 
1134.916 907.2177 325.1033 
1132.435 915.5201 326.7172 
1136.257 923.7882 323.1546 
1131.748 935.3374 323.4924 
1136.971 852.7623 322.4604 
1138.237 869.2106 324.279 
1124.214 868.7739 331.3717 
1131.748 894.4394 322.0211 
1132.304 922.8692 328.8078 
1135.248 889.0826 327.4551 
1132.652 916.9826 327.3772 
1120.516 929.2595 329.9045 
1123.795 887.361 329.7429 
1138.166 883.9586 327.5752 
1130.468 943.9543 326.3767 
1135.699 842.3086 323.9456 
1131.806 877.3779 327.867 
1129.254 888.5596 326.3911 
1118.558 920.9058 332.8823 
1118.054 929.1976 335.5294 
1135.794 897.0355 326.9319 
1139.876 892.1285 329.5103 
1139.142 915.4803 326.9318 
1140.052 931.3865 329.2981 
1132.135 932.3122 333.2358 
1135.361 940.4315 326.9484 
1125.626 943.8083 328.4847 
1136.979 853.2503 327.7723 
1132.894 849.8034 328.179 
1125.983 865.6633 333.9155 
1138.639 906.2783 328.1788 
1131.737 922.4734 329.8937 
1139.479 864.7088 329.1497 
1132.113 881.0801 327.4394 
1132.874 878.4793 327.4699 
1132.263 878.9584 329.5255 
1118.753 915.6794 335.6583 
1138.725 947.3843 332.3163 
1131.958 950.151 329.6708 
1128.044 955.7612 332.4022 
1141.609 881.7236 331.3979 
1131.668 924.9564 329.8612 
1132.233 927.0665 332.2737 
1121.196 896.563 334.0276 
1118.561 939.9733 338.623 
1123.6 955.6542 335.4321 
1133.321 958.5687 333.6512 
1130.261 862.4839 334.2061 
1131.22 878.0315 328.3533 
1143.089 895.5135 333.7487 
1119.74 903.9961 334.6033 
1140.98 901.7791 331.2663 
1118.027 931.808 342.4256 
1128.216 963.5187 336.5553 
1124.405 871.6243 335.4667 
1131.943 879.1405 329.2672 
1123.677 881.7702 335.9169 
1120.069 908.7464 339.7884 
1133.236 935.4288 341.3914 
1120.959 945.6262 334.4435 
1132.028 901.7302 342.9052 
1118.882 919.618 341.0925 
1141.929 911.7149 332.2493 
1142.376 922.2304 332.3845 
1117.988 923.4426 337.7651 
1144.049 934.2841 337.2228 
1138.982 959.3107 336.3552 
1127.551 873.5331 338.5947 
1144.027 905.85 338.12 
1143.338 949.0746 336.987 
1133.785 965.9579 337.3441 
1136.313 863.8898 334.1467 
1141.574 883.6731 338.9536 
1132.288 906.806 344.0047 
1131.186 932.9865 336.7084 
1131.245 936.5997 334.7866 
1119.741 954.5797 341.9589 
1123.632 965.0231 340.8901 
1132.757 870.9221 338.9308 
1140.298 874.0589 335.3704 
1132.227 942.2739 338.1739 
1133.969 945.9438 343.1734 
1127.978 886.5329 344.0148 
1144.287 918.8628 338.0036 
1118.514 925.2717 342.8101 
1130.566 972.7332 341.9258 
1143.466 893.5952 339.3463 
1145.509 942.8604 339.0225 
1132.528 949.9891 342.0215 
1134.194 952.9211 346.7054 
1138.349 968.3704 340.5458 
1131.815 878.7669 342.4474 
1132.217 904.4488 344.125 
1145.921 950.0293 341.4049 
1122.899 895.9377 342.4574 
1131.84 913.4215 345.2523 
1132.61 917.2007 345.504 
1118.092 959.8074 349.9503 
1124.166 972.8943 345.2054 
1138.181 976.1884 344.8423 
1137.271 878.0438 340.8962 
1131.843 904.5611 343.6821 
1133.221 914.5483 347.0879 
1145.807 925.0609 343.9409 
1142.89 968.8308 344.7162 
1127.889 979.7513 346.9798 
1134.153 885.5091 345.2911 
1134.862 934.1531 348.1577 
1130.69 945.3065 340.6253 
1143.485 959.7325 341.0003 
1139.718 890.8096 345.2496 
1126.583 897.4065 348.3883 
1120.602 926.5404 351.6298 
1133.902 925.906 346.93 
1146.193 932.2744 343.3379 
1146.908 940.8294 344.3396 
1120.319 966.6486 346.6114 
1143.016 976.2725 349.0364 
1133.361 980.6112 345.9569 
1123.161 907.4227 348.8383 
1145.02 914.3403 345.5606 
1132.023 909.5287 345.7546 
1134.731 922.5046 349.4387 
1130.006 940.6368 343.6758 
1138.974 898.4342 350.4852 
1135.245 930.3036 351.1676 
1131.663 928.9263 345.6501 
1118.551 968.3835 352.8347 
1122.328 977.3804 351.396 
1127.91 984.3551 350.5393 
1131.997 984.4871 348.584 
1133.159 894.5146 349.4335 
1129.073 904.4929 353.4801 
1134.16 924.0853 351.5153 
1118.934 938.3911 353.2988 
1118.137 945.7106 350.5763 
1131.805 955.9227 347.2999 
1132.255 965.298 354.8038 
1135.178 961.7859 354.1311 
1147.481 930.8876 348.6525 
1143.012 902.799 347.1128 
1132.339 919.3737 348.5524 
1147.619 959.5436 350.4595 
1117.582 962.4752 358.6795 
1133.234 987.5256 351.6978 
1135.359 901.3017 353.4164 
1135.676 944.6155 353.3166 
1129.865 949.23 346.6738 
1137.373 983.1621 348.6622 
1126.697 987.2936 355.1372 
1124.671 913.8797 354.585 
1118.51 974.2855 358.386 
1134.563 971.9597 356.9836 
1139.636 904.1136 353.1322 
1135.117 942.9211 361.5315 
1120.907 981.9263 357.6304 
1135.317 907.5001 356.1912 
1125.576 919.5259 358.4462 
1119.25 942.4446 358.0985 
1137.607 972.3574 361.4709 
1146.091 979.0587 354.5166 
1140.264 985.8911 352.6299 
1135.022 991.4737 355.5523 
1129.661 912.6064 358.1754 
1146.027 921.2218 352.1952 
1132.418 931.7637 352.8304 
1148.451 929.2554 355.6788 
1130.68 954.9432 353.47 
1149.032 941.0591 353.8131 
1129.873 994.0312 359.1781 
1141.948 911.4582 353.8452 
1134.575 935.1921 355.9033 
1150.363 962.0712 357.6519 
1135.343 979.1987 360.9742 
1122.413 988.6963 361.7277 
1131.505 919.0933 362.2208 
1130.485 942.4173 350.4886 
1149.58 950.2388 356.218 
1118.815 980.8423 362.6525 
1142.376 990.2147 357.1494 
1136.658 913.9889 359.4287 
1148.064 928.5351 361.0358 
1117.882 973.4511 367.1063 
1137.25 995.5753 358.9598 
1126.233 995.715 363.1093 
1133.849 999.4528 362.77 
1142.551 917.3942 358.1418 
1145.585 923.105 359.2563 
1126.464 926.6412 363.1098 
1122.614 939.5333 366.5775 
1150.221 955.7328 358.1846 
1136.589 949.1813 366.6385 
1132.616 974.5111 360.9305 
1133.06 981.7516 364.0425 
1149.364 935.2744 360.9666 
1118.176 952.7502 360.6408 
1139.143 982.7701 366.3669 
1118.637 985.4528 369.4335 
1119.6 949.9734 365.408 
1126.789 1000.317 366.527 
1142.626 995.995 361.7084 
1132.694 1004.123 366.434 
1139.459 920.0629 362.5078 
1128.014 931.7673 369.6439 
1134.727 948.3017 367.4482 
1118.881 960.6851 368.4445 
1149.94 971.8755 359.2005 
1121.703 994.1049 367.4026 
1147.665 995.2704 366.3832 
1140.72 1003.047 366.1376 
1135.576 926.085 367.3064 
1147.586 931.3018 365.0495 
1138.346 960.2055 366.4737 
1147.786 986.2947 361.1005 
1135.345 986.1356 364.8215 
1144.092 925.9919 364.3785 
1132.567 946.4534 360.2619 
1138.415 991.6182 368.9112 
1135.347 1008.157 369.4507 
1132.869 930.5825 371.9118 
1125.972 938.2474 373.0234 
1151.38 961.3519 364.7437 
1128.328 1004.994 369.1089 
1143.688 930.1326 368.1968 
1139.392 959.3667 374.5158 
1129.207 934.08 373.5634 
1150.201 946.7933 362.2122 
1131.674 963.7994 362.4518 
1140.226 973.2878 369.8616 
1140.986 975.2737 376.7995 
1141.287 982.5965 373.6787 
1119.118 993.3859 373.2632 
1128.477 1008.331 372.1846 
1141.789 1007.218 368.9986 
1137.959 955.3374 373.7434 
1121.416 960.7717 376.8683 
1140.143 965.3402 377.9353 
1152.427 996.238 376.8871 
1140.578 996.7829 372.9992 
1146.19 1003.954 369.6894 
1122.702 1001.761 372.6069 
1139.462 931.8645 371.854 
1133.742 959.0933 371.5668 
1118.186 979.2666 374.892 
1137.353 997.6708 373.0414 
1141.779 1009.836 371.8965 
1134.079 1012.504 373.7808 
1135.919 952.6591 372.6721 
1150.345 949.7468 372.3239 
1121.07 952.2308 371.4588 
1119.28 970.524 375.4607 
1150.284 997.1918 371.3727 
1129.108 939.244 376.5512 
1151.806 981.4985 370.9941 
1134.572 990.2982 369.6713 
1141.403 990.8654 372.4453 
1146.964 937.619 369.4109 
1139.196 958.7003 377.7602 
1133.033 985.2864 366.8811 
1118.319 988.9621 380.25 
1118.885 997.8301 377.9814 
1136.78 1002.808 377.8898 
1148.175 1006.726 375.035 
1125.631 1011.43 377.5979 
1140.803 1014.547 376.2102 
1133.153 1016.629 377.6415 
1134.375 938.7936 378.029 
1133.988 934.4462 375.0731 
1140.519 937.1586 375.6812 
1131.141 944.1856 380.3375 
1141.556 991.5098 379.4944 
1142.122 997.4011 376.6649 
1140.135 1001.918 377.0999 
1124.984 948.4651 377.0371 
1121.655 969.857 382.8436 
1153.08 981.7097 379.318 
1140.603 981.6616 380.7785 
1134.35 995.5597 376.4702 
1120.375 1004.482 379.1723 
1151.8 954.2692 378.4188 
1152.536 963.0557 374.9142 
1119.559 978.4161 381.5652 
1139.319 942.5189 380.162 
1145.819 942.1784 376.0478 
1139.278 960.2014 380.1088 
1152.828 961.149 382.8106 
1132.906 979.53 372.3143 
1123.172 1015.034 382.4766 
1138.034 1020.024 380.4394 
1128.517 1019.707 382.4319 
1138.625 987.2156 384.2457 
1134.74 946.74 383.6264 
1138.855 962.5825 382.7501 
1140.343 973.9841 384.4848 
1146.776 1015.212 380.8151 
1129.312 951.7811 384.0975 
1139.097 968.428 386.9089 
1153.363 988.1428 379.5699 
1120.445 1010.298 383.2032 
1147.23 947.7149 380.2656 
1150.664 953.8089 383.5798 
1137.037 959.0863 379.0327 
1153.199 973.3899 382.0306 
1138.7 980.4401 388.8969 
1141.817 1002.668 383.1286 
1138.952 1007.429 382.4973 
1152.265 1012.679 387.3589 
1142.647 1022.492 383.4474 
1119.789 984.2903 387.5098 
1151.72 1005.79 380.8923 
1118.225 1002.135 385.959 
1121.407 1017.877 388.2003 
1135.403 1025.486 384.912 
1134.898 968.8242 381.1982 
1124.724 960.4485 383.8062 
1135.081 1004.724 384.1621 
1140.921 1011.996 388.8445 
1147.643 1020.499 385.5335 
1124.872 969.0289 391.016 
1139.871 996.9958 387.5982 
1118.668 1010.684 387.8775 
1137.61 1012.466 387.5763 
1134.592 1030.406 389.0078 
1140.748 946.986 383.9681 
1136.141 951.5713 387.7266 
1135.635 980.5394 385.4964 
1121.646 977.42 388.7303 
1118.92 992.8745 392.6659 
1135.099 992.8239 384.5431 
1145.204 951.2337 386.5446 
1153.364 967.1713 389.2947 
1121.25 984.0347 395.5594 
1134.05 1002 390.9158 
1122.17 1024.517 391.9763 
1129.4 958.9978 390.2262 
1137.086 965.337 385.0191 
1123.533 976.8615 395.4936 
1141.991 1007.053 391.9315 
1138.719 1017.92 392.4969 
1142.451 1027.314 387.8601 
1127.266 1026.689 388.9925 
1140.277 1001.969 395.1346 
1149.536 1023.121 390.4805 
1145.576 1029.864 392.2646 
1134.836 955.4412 392.2637 
1136.446 995.8414 395.4432 
1117.814 1001.918 394.2242 
1118.082 1011.71 396.0263 
1131.148 1033.503 393.0971 
1141.551 954.1651 391.9021 
1136.642 973.4042 390.5255 
1126.716 971.2031 400.232 
1136.333 984.3033 396.2554 
1139.241 1021.89 395.6553 
1139.135 1033.133 392.0456 
1132.555 958.8696 395.2523 
1154.007 976.8744 392.7231 
1153.472 984.7333 386.3668 
1138.524 982.5657 396.5304 
1153.947 997.6193 386.6769 
1135.001 1013.146 393.4367 
1141.067 1018.026 397.9186 
1124.199 1030.045 396.1412 
1137.449 956.4429 395.6381 
1129.211 964.2016 396.613 
1129.827 1037.044 398.0021 
1134.055 1003.409 397.7237 
1141.09 1008.897 399.3406 
1154.22 1017.953 394.8776 
1137.113 1021.38 395.4295 
1137.138 1036.749 396.2517 
1149.91 958.5292 391.3359 
1139.626 976.012 396.9607 
1117.57 1004.978 398.6297 
1120.053 1022.033 396.0394 
1138.365 1023.874 398.8699 
1143.71 1033.719 395.3639 
1125.998 1035.383 402.8607 
1155.822 977.7917 401.0091 
1153.912 986.1969 393.4981 
1137.49 988.4121 398.7128 
1153.896 990.9443 391.3142 
1118.332 999.5007 400.5749 
1130.932 1039.462 402.0039 
1143.452 957.4086 397.5723 
1136.881 977.6605 398.9533 
1142.888 975.2284 405.2469 
1154.925 984.3655 398.0312 
1118.905 1019.701 401.433 
1149.983 1027.794 396.8793 
1135.552 1039.217 400.0125 
1142.88 980.0298 404.2856 
1139.25 985.6046 403.1042 
1119.99 991.8316 408.2351 
1140.329 1021.29 406.2325 
1121.885 1026.593 403.7087 
1135.216 960.8094 400.6956 
1140.496 973.8506 404.594 
1134.777 994.8917 399.2231 
1138.506 1001.587 400.5607 
1156.541 1013.832 398.3965 
1138.931 1024.227 403.7499 
1143.319 1035.797 400.3665 
1130.074 965.5742 401.0884 
1155.401 995.3711 397.3817 
1136.505 994.4869 402.0368 
1155.526 1007.859 394.527 
1149.524 960.5379 401.31 
1130.879 966.8948 405.7049 
1157.168 1008.057 401.4641 
1138.067 1008.443 403.9132 
1150.414 1029.817 404.1344 
1138.084 976.437 404.2596 
1123.785 980.1506 403.6355 
1134.77 1000.76 402.9004 
1140.798 1015.357 403.8509 
1120.005 1017.342 409.991 
1156.629 973.2332 404.3297 
1135.61 991.062 402.3158 
1138.326 1017.795 407.6102 
1135.66 1021.644 399.714 
1136.979 1025.135 402.1916 
1154.174 967.8667 399.4385 
1127.26 973.8127 408.2095 
1124.674 981.5538 416.9188 
1144.342 986.0704 409.8137 
1134.724 995.9028 403.5937 
1135.131 1013.868 403.053 
1155.704 1019.331 402.1877 
1142.902 959.7022 404.6817 
1142.087 973.5849 407.7249 
1144.279 975.8842 412.5747 
1144.971 979.481 408.5195 
1117.647 1006.764 404.998 
1118.259 1000.133 407.3849 
1127.593 1036.611 407.0974 
1117.167 1003.808 410.9503 
1136.411 1000.622 403.621 
1130.239 1039.138 405.9818 
1137.231 1039.859 404.7476 
1136.389 962.8679 407.8718 
1132.406 968.8975 416.3095 
1156.891 988.2238 403.8757 
1134.986 997.9134 403.9728 
1136.003 1019.504 407.8528 
1136.199 1022.795 405.8233 
1126.508 1032.513 408.1723 
1141.356 1035.439 409.3856 
1137.734 1038.149 407.3917 
1143.573 1036.381 406.2796 
1140.042 975.3625 410.1439 
1116.875 1008.708 412.0034 
1133.186 1036.284 409.04 
1148.357 960.5453 408.4584 
1158.066 979.9226 407.5181 
1157.769 999.4111 405.1632 
1159.107 1010.161 408.6644 
1144.883 1030.582 412.278 
1138.349 1034.224 410.9273 
1137.695 978.3905 408.9368 
1144.135 991.7148 413.0804 
1131.896 1003.726 417.1411 
1137.218 1003.511 415.454 
1137.29 1021.927 409.4441 
1160.372 1015.692 413.0394 
1154.414 1023.577 411.265 
1147.371 1032.273 409.0462 
1141.957 961.6913 412.4882 
1160.178 993.8928 410.7292 
1117.665 999.5847 413.228 
1132.608 1007.053 415.217 
1144.301 1004.415 417.1721 
1138.447 1023.829 408.3337 
1152.809 963.3666 407.2252 
1146.654 982.3448 413.265 
1130.064 1006.959 416.5774 
1139.009 1022.052 409.5244 
1133.238 1031.033 411.8079 
1156.775 969.7575 409.838 
1145.476 974.2595 419.9941 
1136.987 983.1654 406.2107 
1139.914 989.8725 411.3043 
1116.656 1011.05 416.4662 
1129.196 1024.626 414.9891 
1125.656 1026.917 410.3036 
1127.815 980.1125 430.3184 
1123.415 985.7792 427.3214 
1147.999 979.332 420.1217 
1142.049 996.9047 414.9464 
1147.792 992.6442 417.447 
1148.225 1008.026 422.3522 
1138.33 1027.862 415.4765 
1160.804 979.701 414.2821 
1163.958 978.6873 420.8281 
1138.193 980.9592 414.9988 
1136.184 996.0879 418.2947 
1164.205 991.9798 417.8046 
1162.98 1006.95 415.4893 
1116.849 1009.777 423.8269 
1136.953 1008.704 415.9577 
1118.79 1015.198 419.1352 
1147.282 1027.015 416.2961 
1153.227 1023.316 419.6642 
1149.971 1002.963 421.1258 
1125.431 1020.559 419.4692 
1149.564 1025.226 421.2974 
1117.158 999.3138 422.666 
1166.233 1001.019 421.9 
1131.724 1008.864 416.6814 
1159.406 967.9509 418.5418 
1145.419 973.6458 424.6054 
1148.425 973.3779 425.016 
1149.784 976.1201 424.8941 
1137.033 987.6168 414.4012 
1137.525 987.7756 419.9912 
1116.362 1004.952 416.7169 
1135.079 1010.317 418.4818 
1166.032 994.1639 420.3904 
1152.948 1004.146 424.6965 
1141.184 1010.127 418.6338 
1164.278 1011.893 420.3159 
1160.421 1017.741 417.2788 
1151.765 961.8358 416.6175 
1156.894 962.4341 419.8357 
1151.434 987.661 424.7334 
1131.514 1001.594 421.5426 
1126.155 1021.153 427.2059 
1141.027 961.6491 421.4064 
1151.612 979.8783 426.6533 
1140.974 981.9755 424.2249 
1147.012 978.3621 425.7231 
1117.594 1006.002 432.7888 
1157.666 961.6219 423.2599 
1163.026 969.1633 423.8443 
1141.997 975.806 418.7548 
1143.28 976.3786 423.6652 
1138.658 1009.849 422.7635 
1138.788 992.1505 425.7938 
1154.599 1005.114 427.6549 
1160.223 1017.606 425.1304 
1120.576 1017.081 425.5367 
1139.471 1024.279 422.3781 
1162.348 964.2305 428.3339 
1147.597 972.3015 427.8459 
1152.076 976.0118 427.9123 
1166.256 989.2908 422.7132 
1132.109 1007.84 425.304 
1154.899 1023.145 423.9524 
1120.036 991.5483 424.5106 
1149.728 997.0322 430.8586 
1156.272 1003.321 430.7667 
1148.325 1006.814 427.0959 
1125.773 1019.395 432.7034 
1119.372 1019.587 428.7382 
1149.982 1023.904 423.3346 
1141.117 959.9529 427.5943 
1134.912 966.2151 428.8535 
1153.555 977.1199 430.3998 
1130.512 1006.8 421.0449 
1134.422 999.8524 425.1814 
1154.684 997.5927 427.301 
1150.894 1000.152 426.0018 
1165.43 1010.302 423.7708 
1148.656 958.1624 426.0755 
1135.115 968.2847 436.6862 
1131.089 972.663 434.3892 
1145.534 982.0316 430.3268 
1129.662 1003.612 425.6711 
1128.633 1004.744 427.5569 
1132.264 1004.774 427.3459 
1138.147 1007.386 426.7017 
1150.976 956.7029 430.7312 
1150.672 974.1509 429.981 
1152.896 979.2211 431.8956 
1154.231 985.9367 429.7419 
1156.347 998.3576 430.0452 
1118.067 997.3306 430.7456 
1128.755 1005.738 426.2147 
1119.63 1015.606 431.6336 
1119.438 1019.332 430.4562 
1121.84 1020.099 430.6375 
1139.641 1023.647 429.6935 
1156.481 958.0115 428.9862 
1122.361 991.7947 433.0311 
1154.558 996.3281 431.7039 
1165.758 1006.643 429.2657 
1141.971 1000.742 428.2256 
1153.788 1022.368 427.7624 
1133.235 1022.631 430.399 
1146.426 1023.204 430.2138 
1143.839 960.2492 433.3254 
1141.323 986.5605 428.875 
1153.604 1019.844 431.9541 
1147.457 975.2254 429.4425 
1165.934 977.6591 428.5826 
1150.716 986.776 432.3149 
1167.413 993.2534 428.5984 
1117.548 995.8427 426.9664 
1155.199 959.4737 434.3175 
1160.351 960.2339 431.5219 
1153.476 1003.099 430.2484 
1154.63 1006.444 429.6875 
1140.545 965.3549 439.7003 
1149.902 978.3993 432.1625 
1144.185 990.9993 430.5853 
1138.822 1022.55 432.9011 
1120.428 1000.075 436.6173 
1164.497 1006.95 436.1466 
1151.268 1016.622 437.9896 
1162.824 966.8896 434.0809 
1136.279 972.9136 442.0503 
1166.631 987.1793 434.7441 
1164.959 994.1907 438.6057 
1133.455 1019.949 435.7415 
1162.805 973.0754 438.9414 
1165.345 977.3027 435.7241 
1166.926 998.3928 434.8511 
1140.868 1006.78 442.9203 
1148.999 1005.711 442.5445 
1119.774 1011.439 436.7033 
1125.863 1014.91 437.9371 
1160.235 1013.943 433.8553 
1143.792 1020.494 435.5398 
1138.577 1016.215 440.0813 
1149.397 963.2667 440.2587 
1158.301 965.9111 439.7747 
1140.466 999.4694 443.0013 
1161.543 985.1118 440.5416 
1131.741 980.2042 439.3248 
1135.39 990.3444 442.7493 
1143.263 989.1447 444.5122 
1159.432 998.9957 441.293 
1122.253 1007.181 439.0661 
1140.027 1010.935 442.5716 
1154.364 965.4496 442.5126 
1136.97 982.0563 443.9923 
1135.307 1006.131 442.5948 
1147.965 1013.044 441.5348 
1151.868 994.1163 443.2652 
1128.593 996.8606 439.808 
1164.139 1002.095 438.9846 
1157.944 1009.375 439.8273 
1156.269 969.1064 443.5112 
1142.33 969.4584 443.7899 
1158.909 974.6251 442.6969 
1130.634 1009.901 441.5516 
1139.114 976.1348 445.2248 
1152.372 982.6414 444.84 
1143.293 981.0059 446.0345 
1150.019 969.6302 444.7835 
1143.74 974.7075 446.2119 
1148.662 976.7889 446.3966 
1154.141 974.3992 445.2532 
3 0 1 12 
3 3 0 12 
3 1 0 2 
3 1 2 9 
3 2 0 17 
3 0 4 17 
3 5 1 9 
3 22 2 23 
3 2 17 23 
3 9 2 18 
3 6 3 12 
3 3 6 7 
3 17 8 23 
3 0 3 4 
3 12 1 15 
3 8 19 23 
3 4 3 7 
3 8 17 20 
3 4 7 10 
3 11 9 14 
3 5 9 11 
3 14 9 46 
3 1 5 15 
3 18 2 22 
3 6 12 16 
3 7 6 16 
3 4 13 17 
3 9 18 46 
3 11 14 21 
3 18 22 47 
3 12 15 33 
3 16 12 33 
3 7 16 30 
3 17 13 24 
3 19 8 20 
3 4 10 13 
3 20 17 24 
3 5 11 32 
3 46 18 47 
3 15 22 33 
3 22 23 33 
3 19 20 31 
3 11 21 25 
3 22 27 47 
3 33 23 49 
3 23 19 49 
3 19 31 49 
3 10 7 35 
3 20 24 44 
3 24 13 28 
3 15 5 29 
3 26 15 29 
3 15 26 40 
3 27 41 47 
3 30 16 33 
3 31 20 44 
3 31 44 64 
3 24 28 45 
3 44 24 45 
3 25 21 38 
3 21 14 38 
3 38 14 57 
3 14 46 57 
3 40 26 48 
3 22 15 39 
3 30 33 49 
3 7 30 35 
3 13 10 36 
3 28 13 36 
3 28 37 45 
3 11 25 32 
3 29 5 32 
3 39 15 40 
3 55 27 75 
3 41 27 55 
3 31 42 49 
3 34 42 43 
3 34 43 83 
3 50 34 83 
3 64 44 65 
3 22 39 58 
3 39 40 75 
3 27 22 76 
3 47 41 82 
3 75 27 76 
3 49 42 62 
3 44 45 67 
3 32 25 70 
3 25 38 57 
3 57 46 69 
3 46 47 74 
3 22 58 76 
3 40 59 75 
3 59 51 75 
3 51 55 75 
3 30 49 59 
3 55 51 63 
3 59 49 62 
3 42 31 64 
3 42 34 52 
3 34 50 52 
3 10 35 53 
3 36 10 53 
3 65 44 67 
3 45 56 67 
3 45 37 56 
3 29 32 70 
3 26 29 48 
3 69 46 74 
3 41 55 82 
3 62 42 72 
3 42 64 72 
3 43 73 83 
3 28 36 68 
3 37 28 68 
3 25 57 70 
3 74 47 82 
3 40 48 98 
3 40 54 59 
3 55 63 82 
3 51 59 62 
3 43 42 52 
3 43 52 73 
3 52 50 84 
3 53 35 60 
3 53 60 61 
3 56 37 68 
3 67 56 80 
3 57 69 70 
3 58 39 90 
3 39 75 90 
3 51 62 63 
3 82 63 91 
3 66 50 83 
3 36 53 68 
3 65 67 79 
3 56 68 80 
3 48 29 71 
3 54 30 59 
3 63 62 93 
3 62 72 93 
3 93 72 104 
3 72 64 104 
3 104 64 105 
3 64 65 105 
3 73 52 84 
3 66 83 117 
3 79 67 80 
3 80 68 81 
3 75 76 97 
3 76 77 97 
3 82 91 128 
3 91 63 93 
3 60 35 78 
3 65 79 107 
3 80 81 88 
3 29 70 89 
3 71 29 89 
3 69 74 113 
3 113 74 121 
3 48 71 96 
3 90 75 97 
3 76 58 77 
3 50 66 84 
3 68 53 101 
3 107 79 111 
3 87 68 101 
3 81 68 87 
3 79 80 88 
3 70 69 113 
3 48 96 98 
3 74 82 121 
3 114 82 128 
3 54 40 98 
3 30 54 85 
3 35 30 85 
3 91 93 110 
3 105 65 107 
3 83 73 116 
3 53 61 86 
3 83 116 117 
3 84 66 100 
3 53 86 101 
3 89 70 113 
3 35 85 92 
3 60 78 106 
3 61 60 106 
3 86 61 94 
3 66 117 122 
3 79 88 108 
3 88 81 95 
3 58 90 97 
3 77 58 97 
3 85 54 98 
3 78 35 99 
3 93 104 110 
3 73 84 116 
3 100 66 122 
3 107 111 129 
3 88 95 112 
3 82 114 121 
3 35 92 99 
3 78 99 103 
3 94 61 106 
3 100 122 123 
3 129 111 135 
3 79 108 111 
3 81 87 95 
3 108 88 112 
3 71 89 109 
3 96 71 109 
3 98 96 109 
3 110 104 125 
3 78 103 106 
3 104 105 125 
3 113 121 142 
3 85 98 136 
3 115 102 143 
3 91 110 128 
3 84 100 116 
3 117 116 150 
3 101 86 118 
3 87 101 118 
3 87 118 119 
3 95 87 119 
3 135 111 151 
3 111 108 151 
3 108 112 132 
3 108 132 151 
3 109 89 120 
3 89 113 120 
3 120 113 142 
3 98 109 124 
3 92 85 99 
3 110 125 162 
3 105 107 125 
3 125 107 145 
3 122 117 150 
3 123 122 130 
3 112 95 127 
3 121 114 142 
3 98 124 136 
3 114 128 152 
3 102 115 134 
3 137 115 143 
3 128 110 182 
3 106 103 126 
3 94 106 126 
3 150 116 165 
3 130 122 150 
3 95 119 127 
3 112 127 132 
3 133 120 142 
3 109 120 133 
3 102 134 143 
3 125 145 162 
3 107 129 157 
3 157 135 184 
3 123 130 131 
3 119 118 158 
3 135 151 184 
3 124 109 133 
3 103 99 154 
3 115 137 138 
3 116 100 168 
3 129 135 157 
3 100 123 188 
3 130 150 178 
3 131 130 178 
3 127 119 140 
3 99 85 136 
3 134 115 144 
3 115 138 144 
3 126 103 154 
3 145 107 156 
3 86 94 177 
3 156 107 157 
3 165 116 168 
3 118 139 158 
3 132 146 151 
3 132 141 146 
3 132 127 141 
3 133 142 148 
3 124 133 148 
3 148 142 152 
3 142 114 152 
3 152 128 182 
3 99 136 161 
3 137 143 163 
3 110 162 182 
3 165 168 218 
3 118 86 177 
3 151 146 184 
3 127 140 147 
3 127 147 160 
3 141 127 160 
3 166 152 182 
3 143 134 163 
3 162 145 206 
3 138 137 168 
3 145 181 206 
3 94 126 154 
3 145 156 181 
3 149 100 188 
3 139 118 177 
3 150 165 189 
3 178 150 189 
3 131 178 180 
3 140 119 158 
3 146 159 184 
3 148 152 173 
3 136 124 153 
3 136 153 161 
3 134 144 163 
3 144 138 155 
3 155 138 168 
3 100 155 168 
3 157 184 210 
3 123 131 188 
3 131 180 188 
3 178 179 180 
3 146 141 159 
3 124 148 173 
3 153 124 173 
3 152 166 173 
3 154 99 161 
3 137 163 183 
3 144 155 164 
3 94 154 177 
3 156 157 181 
3 141 160 190 
3 160 147 172 
3 164 155 167 
3 168 137 183 
3 100 149 155 
3 181 157 210 
3 189 165 218 
3 158 139 169 
3 179 178 209 
3 140 158 170 
3 147 140 170 
3 159 141 190 
3 147 171 172 
3 160 172 190 
3 161 153 174 
3 163 144 183 
3 144 164 175 
3 164 167 175 
3 206 181 208 
3 154 176 177 
3 166 182 195 
3 182 162 212 
3 162 206 212 
3 155 149 167 
3 178 189 209 
3 158 169 170 
3 147 170 171 
3 172 171 186 
3 174 173 187 
3 173 166 187 
3 153 173 174 
3 187 166 195 
3 161 174 192 
3 154 161 192 
3 144 175 183 
3 208 181 210 
3 139 177 185 
3 169 139 185 
3 214 184 248 
3 184 159 202 
3 180 179 194 
3 172 186 190 
3 195 182 212 
3 168 183 207 
3 167 149 188 
3 168 207 218 
3 209 189 218 
3 214 248 263 
3 180 194 201 
3 184 202 248 
3 194 179 234 
3 186 171 191 
3 190 186 203 
3 175 167 213 
3 167 188 213 
3 208 210 236 
3 184 214 232 
3 170 169 193 
3 171 170 191 
3 159 190 203 
3 186 191 204 
3 154 192 199 
3 206 208 229 
3 210 184 219 
3 169 185 193 
3 191 170 197 
3 202 159 203 
3 203 186 204 
3 174 187 198 
3 176 154 200 
3 177 176 200 
3 185 177 237 
3 179 209 269 
3 234 179 269 
3 204 191 211 
3 203 204 221 
3 187 195 198 
3 198 195 212 
3 192 174 205 
3 199 192 205 
3 183 175 207 
3 207 175 213 
3 209 218 258 
3 219 184 232 
3 188 180 254 
3 180 201 254 
3 201 194 215 
3 170 193 197 
3 215 194 234 
3 202 203 221 
3 174 198 205 
3 212 206 228 
3 228 206 229 
3 208 223 229 
3 223 208 236 
3 177 200 237 
3 202 221 255 
3 248 202 255 
3 221 204 225 
3 204 211 225 
3 205 198 222 
3 198 212 222 
3 188 196 213 
3 236 210 268 
3 210 219 268 
3 237 200 240 
3 215 234 235 
3 211 191 216 
3 222 212 228 
3 199 205 217 
3 232 214 263 
3 201 215 238 
3 197 193 220 
3 216 197 220 
3 191 197 216 
3 221 225 242 
3 217 205 222 
3 222 228 244 
3 229 223 257 
3 207 213 258 
3 200 154 231 
3 218 207 258 
3 196 188 233 
3 209 258 269 
3 220 193 224 
3 215 235 256 
3 238 215 256 
3 221 242 255 
3 225 211 227 
3 211 226 227 
3 228 229 244 
3 199 217 230 
3 154 199 230 
3 154 230 231 
3 200 231 240 
3 219 232 268 
3 233 188 254 
3 193 185 224 
3 256 235 300 
3 211 216 226 
3 225 227 242 
3 217 222 244 
3 213 196 258 
3 235 234 328 
3 216 220 239 
3 223 253 257 
3 223 236 253 
3 201 238 270 
3 300 235 328 
3 242 250 255 
3 227 226 241 
3 227 241 243 
3 244 229 257 
3 253 236 298 
3 236 268 298 
3 232 263 268 
3 220 224 239 
3 234 269 328 
3 216 239 249 
3 242 227 251 
3 227 243 251 
3 245 230 252 
3 230 217 252 
3 217 244 252 
3 231 230 245 
3 196 246 258 
3 196 233 246 
3 237 240 247 
3 268 263 290 
3 185 237 247 
3 226 216 249 
3 238 256 259 
3 250 242 251 
3 252 244 257 
3 265 253 298 
3 240 231 291 
3 254 201 270 
3 263 248 295 
3 255 250 295 
3 241 226 249 
3 252 257 265 
3 257 253 265 
3 258 246 284 
3 270 238 272 
3 248 255 295 
3 296 256 300 
3 259 256 296 
3 243 241 264 
3 260 243 264 
3 251 243 260 
3 245 252 261 
3 231 245 262 
3 284 246 289 
3 269 258 284 
3 224 185 247 
3 241 249 282 
3 264 241 282 
3 250 251 281 
3 251 275 281 
3 251 260 275 
3 245 261 267 
3 247 240 291 
3 290 263 322 
3 238 259 297 
3 261 252 283 
3 252 265 283 
3 262 245 267 
3 262 267 294 
3 283 265 298 
3 246 233 289 
3 224 247 292 
3 271 270 272 
3 272 238 297 
3 249 239 273 
3 249 273 282 
3 286 259 296 
3 250 293 295 
3 293 279 295 
3 250 281 293 
3 260 264 274 
3 268 290 298 
3 233 254 276 
3 247 277 292 
3 254 270 278 
3 270 271 278 
3 295 279 339 
3 280 259 286 
3 281 275 287 
3 275 260 287 
3 287 260 288 
3 231 262 315 
3 266 254 278 
3 263 295 322 
3 239 224 285 
3 274 264 282 
3 260 274 288 
3 267 261 309 
3 261 283 309 
3 291 231 315 
3 233 276 289 
3 284 289 343 
3 277 247 291 
3 285 224 292 
3 259 280 297 
3 286 296 319 
3 303 286 319 
3 294 267 309 
3 283 298 310 
3 262 294 315 
3 254 266 276 
3 321 290 322 
3 269 284 328 
3 280 286 314 
3 286 303 314 
3 281 287 304 
3 304 287 306 
3 287 288 306 
3 309 283 310 
3 298 290 325 
3 276 266 299 
3 328 284 355 
3 317 295 339 
3 296 300 328 
3 319 296 328 
3 273 301 302 
3 282 273 302 
3 282 302 320 
3 293 281 304 
3 279 293 304 
3 288 274 305 
3 288 305 307 
3 306 288 307 
3 308 309 310 
3 308 294 309 
3 310 298 325 
3 294 311 315 
3 290 321 341 
3 289 276 343 
3 321 322 327 
3 266 278 299 
3 284 343 355 
3 322 295 344 
3 285 292 323 
3 271 272 318 
3 273 239 301 
3 297 280 313 
3 313 280 314 
3 274 282 305 
3 308 310 324 
3 324 310 325 
3 325 290 341 
3 277 291 315 
3 321 327 342 
3 292 316 323 
3 339 279 401 
3 279 304 351 
3 305 282 320 
3 294 308 311 
3 315 311 337 
3 276 299 343 
3 278 271 335 
3 271 318 335 
3 239 285 301 
3 272 297 312 
3 319 328 370 
3 279 351 401 
3 304 306 336 
3 306 307 330 
3 311 308 324 
3 324 325 341 
3 341 321 342 
3 299 326 343 
3 277 315 356 
3 299 278 326 
3 292 277 316 
3 327 322 344 
3 272 312 318 
3 312 297 313 
3 320 302 352 
3 303 319 357 
3 347 303 357 
3 314 303 347 
3 307 305 331 
3 305 329 331 
3 306 330 336 
3 330 307 331 
3 316 277 356 
3 301 285 323 
3 318 312 332 
3 317 339 399 
3 304 336 351 
3 324 341 365 
3 311 333 337 
3 341 342 371 
3 326 278 334 
3 328 355 367 
3 357 319 370 
3 313 314 346 
3 346 314 347 
3 336 348 351 
3 336 330 349 
3 311 324 333 
3 315 337 356 
3 326 334 343 
3 334 278 338 
3 278 335 338 
3 295 317 344 
3 344 317 399 
3 312 313 346 
3 357 370 374 
3 340 320 352 
3 305 320 340 
3 329 305 340 
3 348 336 359 
3 336 349 359 
3 330 331 354 
3 333 324 365 
3 365 341 371 
3 356 337 376 
3 355 343 377 
3 327 344 372 
3 335 318 345 
3 318 332 345 
3 399 339 401 
3 302 301 352 
3 312 346 361 
3 347 357 363 
3 349 330 354 
3 337 333 366 
3 343 334 377 
3 342 327 413 
3 327 372 413 
3 301 323 350 
3 367 332 370 
3 328 367 370 
3 345 332 367 
3 331 329 353 
3 367 355 392 
3 332 312 361 
3 346 347 358 
3 351 348 401 
3 363 357 402 
3 358 347 363 
3 359 349 381 
3 349 354 381 
3 316 356 360 
3 355 377 392 
3 316 360 368 
3 323 316 368 
3 332 361 370 
3 357 374 402 
3 340 352 362 
3 346 358 379 
3 329 340 353 
3 354 331 382 
3 364 354 382 
3 354 364 381 
3 333 365 366 
3 366 365 371 
3 371 342 413 
3 337 366 376 
3 350 323 368 
3 301 350 369 
3 352 301 369 
3 380 363 402 
3 331 353 382 
3 391 371 413 
3 376 366 386 
3 367 392 394 
3 372 344 398 
3 350 368 373 
3 398 344 399 
3 374 370 387 
3 370 361 387 
3 401 348 448 
3 353 340 362 
3 358 363 380 
3 348 359 384 
3 353 375 382 
3 366 371 391 
3 334 338 377 
3 360 356 376 
3 368 360 378 
3 345 367 394 
3 399 401 423 
3 361 346 379 
3 348 384 410 
3 359 381 384 
3 381 364 396 
3 352 369 388 
3 361 379 383 
3 362 352 389 
3 380 402 411 
3 395 380 411 
3 384 381 385 
3 385 381 396 
3 376 386 397 
3 377 338 392 
3 373 368 378 
3 345 394 400 
3 361 383 387 
3 352 388 389 
3 353 362 389 
3 358 380 403 
3 380 395 403 
3 384 385 431 
3 364 382 390 
3 386 366 391 
3 386 391 405 
3 338 335 414 
3 378 360 393 
3 369 350 373 
3 421 399 423 
3 379 358 403 
3 410 384 431 
3 364 390 396 
3 405 391 426 
3 391 413 426 
3 392 338 414 
3 413 372 464 
3 394 392 427 
3 372 398 464 
3 388 369 424 
3 446 401 448 
3 353 389 416 
3 375 353 416 
3 411 402 462 
3 382 375 404 
3 390 382 404 
3 385 396 418 
3 390 407 412 
3 396 390 412 
3 397 386 405 
3 449 413 464 
3 360 376 406 
3 393 360 406 
3 398 420 464 
3 335 345 414 
3 420 398 429 
3 398 421 429 
3 398 399 421 
3 369 373 435 
3 424 369 435 
3 423 401 446 
3 374 387 408 
3 402 374 408 
3 402 408 469 
3 462 402 469 
3 395 411 417 
3 385 418 431 
3 396 412 418 
3 376 397 406 
3 392 414 427 
3 400 394 422 
3 408 387 440 
3 379 403 409 
3 348 410 448 
3 403 395 417 
3 390 404 407 
3 373 378 455 
3 345 400 414 
3 435 373 455 
3 389 388 415 
3 404 375 416 
3 417 411 462 
3 407 404 419 
3 426 413 449 
3 420 459 464 
3 387 394 440 
3 394 387 422 
3 387 383 441 
3 415 388 424 
3 383 379 409 
3 410 442 448 
3 417 462 463 
3 410 431 470 
3 418 412 444 
3 405 426 438 
3 397 405 438 
3 406 397 438 
3 421 423 446 
3 416 389 430 
3 403 417 443 
3 431 418 444 
3 407 419 425 
3 412 407 432 
3 407 425 432 
3 412 432 444 
3 438 426 471 
3 426 449 471 
3 428 414 433 
3 433 414 434 
3 414 400 434 
3 400 422 434 
3 429 421 446 
3 446 448 451 
3 389 415 475 
3 442 410 470 
3 404 416 437 
3 436 403 443 
3 419 404 437 
3 463 462 487 
3 414 428 439 
3 414 439 454 
3 427 414 454 
3 422 387 447 
3 408 440 456 
3 383 409 441 
3 408 456 469 
3 448 442 451 
3 431 453 470 
3 443 417 463 
3 431 444 453 
3 444 432 481 
3 406 438 445 
3 393 406 445 
3 378 393 455 
3 440 394 460 
3 456 440 460 
3 409 403 457 
3 458 389 475 
3 451 442 470 
3 430 389 458 
3 416 430 437 
3 432 425 481 
3 393 445 450 
3 428 433 474 
3 394 427 522 
3 460 394 522 
3 429 446 484 
3 434 422 447 
3 456 460 468 
3 387 441 447 
3 415 424 475 
3 441 409 452 
3 452 409 457 
3 444 481 491 
3 471 449 495 
3 427 454 522 
3 434 447 460 
3 484 446 497 
3 424 435 476 
3 460 447 468 
3 456 468 485 
3 447 441 479 
3 441 452 479 
3 475 424 476 
3 456 452 469 
3 437 430 458 
3 470 453 507 
3 419 437 488 
3 453 444 491 
3 445 438 450 
3 393 450 465 
3 439 428 472 
3 454 439 492 
3 459 420 496 
3 420 484 496 
3 420 429 484 
3 479 456 485 
3 452 456 479 
3 446 451 497 
3 497 451 498 
3 403 436 457 
3 425 419 480 
3 425 480 481 
3 450 438 482 
3 495 449 515 
3 449 464 515 
3 464 459 520 
3 459 496 520 
3 455 393 465 
3 455 465 466 
3 435 455 466 
3 434 460 522 
3 433 434 467 
3 468 447 485 
3 447 479 485 
3 452 461 469 
3 452 457 461 
3 451 470 498 
3 462 469 487 
3 443 463 487 
3 438 471 482 
3 465 450 483 
3 439 472 492 
3 515 464 520 
3 472 428 473 
3 473 428 474 
3 435 466 590 
3 433 467 474 
3 434 522 523 
3 467 434 523 
3 469 486 487 
3 477 419 488 
3 419 477 480 
3 482 471 509 
3 454 492 501 
3 454 501 522 
3 475 476 478 
3 498 470 507 
3 443 487 514 
3 436 443 514 
3 507 453 508 
3 453 491 508 
3 481 490 491 
3 466 465 483 
3 469 461 486 
3 457 436 461 
3 471 495 509 
3 450 482 483 
3 473 474 516 
3 496 484 510 
3 484 497 510 
3 475 478 493 
3 499 507 508 
3 472 473 492 
3 523 522 555 
3 476 435 511 
3 502 467 523 
3 498 506 539 
3 487 486 505 
3 461 436 518 
3 437 458 526 
3 487 505 514 
3 436 514 518 
3 506 498 507 
3 488 437 526 
3 483 482 509 
3 509 495 564 
3 520 496 534 
3 474 467 516 
3 497 498 510 
3 478 476 511 
3 504 503 512 
3 458 475 493 
3 486 461 505 
3 505 461 518 
3 506 507 563 
3 495 515 564 
3 515 520 564 
3 501 492 536 
3 513 504 541 
3 458 493 524 
3 514 505 518 
3 507 499 543 
3 492 473 576 
3 522 501 536 
3 496 510 534 
3 512 503 517 
3 510 498 539 
3 504 512 541 
3 458 525 526 
3 473 521 576 
3 521 473 529 
3 473 516 529 
3 535 534 538 
3 516 467 531 
3 467 502 531 
3 534 510 538 
3 537 523 555 
3 478 511 557 
3 538 510 539 
3 493 478 557 
3 513 541 561 
3 525 458 546 
3 507 544 563 
3 520 551 564 
3 520 534 551 
3 466 483 527 
3 522 536 555 
3 466 528 590 
3 503 504 537 
3 530 523 537 
3 502 523 530 
3 504 530 537 
3 504 513 530 
3 530 513 531 
3 512 517 550 
3 541 512 550 
3 532 513 561 
3 562 539 563 
3 539 506 563 
3 507 543 544 
3 548 435 590 
3 511 435 548 
3 502 530 531 
3 517 503 600 
3 540 524 557 
3 524 493 557 
3 550 517 600 
3 549 539 562 
3 458 524 542 
3 458 542 546 
3 534 535 551 
3 536 492 576 
3 466 527 528 
3 529 516 531 
3 538 549 559 
3 538 539 549 
3 531 513 545 
3 513 532 545 
3 541 550 558 
3 541 558 561 
3 483 509 569 
3 537 555 556 
3 538 559 587 
3 511 548 557 
3 545 532 560 
3 549 562 604 
3 509 564 569 
3 564 551 565 
3 521 552 576 
3 552 521 553 
3 553 529 554 
3 521 529 553 
3 535 538 587 
3 503 537 567 
3 524 540 542 
3 558 550 600 
3 546 542 582 
3 576 552 577 
3 555 536 556 
3 537 556 579 
3 531 545 603 
3 548 540 557 
3 503 567 600 
3 578 558 600 
3 561 558 578 
3 562 563 581 
3 563 544 581 
3 529 531 566 
3 566 531 603 
3 559 549 587 
3 540 548 573 
3 568 546 582 
3 562 581 604 
3 569 564 605 
3 564 574 605 
3 564 565 574 
3 565 551 574 
3 574 551 575 
3 551 535 575 
3 572 571 577 
3 554 529 572 
3 529 566 572 
3 587 549 638 
3 548 590 639 
3 600 567 609 
3 545 560 603 
3 549 604 627 
3 542 540 582 
3 589 544 596 
3 581 544 589 
3 553 554 586 
3 554 570 586 
3 571 536 576 
3 556 536 571 
3 556 571 579 
3 549 627 638 
3 588 578 600 
3 560 532 580 
3 532 561 578 
3 597 569 605 
3 605 574 624 
3 574 575 584 
3 552 572 577 
3 570 554 572 
3 575 535 636 
3 571 576 577 
3 535 587 636 
3 602 566 603 
3 578 588 612 
3 532 578 593 
3 581 589 629 
3 569 597 598 
3 574 584 624 
3 552 553 585 
3 584 575 636 
3 579 571 633 
3 566 570 572 
3 567 537 601 
3 537 579 601 
3 560 580 602 
3 560 602 603 
3 580 532 593 
3 604 581 627 
3 584 636 651 
3 572 552 635 
3 586 570 616 
3 599 586 616 
3 636 587 638 
3 588 600 619 
3 591 603 628 
3 611 588 619 
3 603 593 628 
3 588 611 612 
3 593 578 612 
3 580 593 643 
3 592 580 643 
3 581 629 634 
3 598 597 632 
3 483 569 598 
3 527 483 598 
3 552 585 635 
3 570 566 616 
3 567 601 609 
3 601 579 628 
3 628 579 646 
3 602 580 617 
3 593 612 628 
3 582 540 620 
3 594 568 622 
3 597 605 632 
3 613 605 624 
3 606 598 632 
3 553 586 614 
3 586 599 614 
3 651 636 657 
3 527 598 607 
3 571 572 608 
3 636 638 653 
3 566 602 616 
3 579 633 646 
3 618 548 639 
3 600 609 619 
3 609 601 611 
3 573 548 618 
3 611 601 628 
3 603 591 642 
3 610 611 619 
3 612 611 628 
3 593 603 642 
3 540 573 620 
3 595 582 620 
3 568 594 630 
3 605 613 632 
3 624 584 641 
3 614 599 615 
3 615 599 616 
3 590 618 639 
3 616 602 617 
3 595 620 621 
3 620 594 622 
3 627 581 663 
3 585 553 614 
3 585 614 635 
3 616 617 626 
3 591 628 646 
3 580 592 617 
3 609 610 619 
3 610 609 611 
3 593 642 643 
3 621 620 622 
3 613 624 640 
3 640 624 641 
3 641 584 651 
3 598 606 607 
3 527 607 670 
3 571 608 633 
3 618 590 625 
3 638 627 658 
3 591 626 642 
3 623 630 647 
3 631 623 647 
3 629 631 634 
3 632 613 640 
3 608 572 635 
3 590 528 625 
3 633 608 646 
3 616 626 637 
3 617 592 626 
3 649 627 663 
3 630 594 655 
3 581 634 663 
3 635 614 645 
3 614 615 645 
3 615 637 645 
3 615 616 637 
3 637 591 646 
3 626 591 637 
3 654 653 658 
3 653 638 658 
3 626 592 642 
3 627 649 658 
3 634 631 664 
3 647 630 655 
3 632 640 666 
3 640 641 651 
3 606 632 644 
3 607 606 670 
3 656 651 657 
3 637 608 645 
3 608 635 645 
3 528 527 625 
3 608 637 646 
3 618 625 648 
3 642 592 643 
3 620 573 661 
3 651 656 667 
3 573 618 648 
3 594 620 662 
3 655 594 662 
3 650 634 664 
3 634 650 663 
3 631 647 664 
3 666 640 667 
3 640 651 667 
3 606 644 652 
3 606 652 670 
3 636 653 657 
3 657 653 669 
3 653 654 669 
3 625 527 681 
3 658 649 682 
3 649 663 683 
3 620 661 662 
3 647 655 664 
3 650 664 665 
3 644 632 666 
3 666 667 676 
3 527 670 681 
3 648 625 681 
3 654 658 682 
3 668 659 678 
3 660 659 668 
3 660 668 680 
3 663 650 683 
3 664 655 665 
3 676 667 684 
3 667 656 686 
3 656 669 686 
3 656 657 669 
3 670 671 681 
3 573 648 674 
3 671 668 681 
3 668 678 681 
3 661 573 674 
3 659 660 675 
3 682 649 683 
3 655 662 665 
3 670 652 677 
3 684 667 686 
3 668 671 672 
3 668 672 680 
3 669 673 680 
3 669 654 673 
3 673 654 682 
3 674 648 681 
3 673 660 680 
3 659 675 678 
3 675 660 679 
3 662 661 674 
3 652 644 685 
3 644 666 685 
3 672 671 677 
3 671 670 677 
3 665 662 687 
3 675 665 687 
3 650 665 679 
3 665 675 679 
3 650 679 683 
3 677 652 688 
3 674 681 687 
3 681 678 687 
3 673 682 683 
3 662 674 687 
3 678 675 687 
3 679 660 683 
3 660 673 683 
3 685 666 691 
3 666 676 691 
3 676 684 691 
3 652 685 688 
3 680 672 689 
3 669 680 689 
3 686 669 689 
3 691 684 694 
3 684 686 694 
3 686 689 694 
3 677 688 690 
3 689 672 690 
3 672 677 690 
3 685 691 692 
3 688 685 692 
3 690 688 692 
3 689 690 693 
3 690 692 693 
3 689 693 694 
3 692 691 693 
3 693 691 694 
3 481 480 490 
3 491 489 508 
3 480 477 494 
3 477 488 494 
3 490 480 494 
3 490 489 491 
3 489 499 508 
3 489 490 494 
3 494 488 519 
3 489 494 500 
3 519 488 526 
3 500 494 519 
3 499 489 500 
3 499 500 519 
3 525 519 526 
3 519 525 533 
3 499 533 543 
3 499 519 533 
3 525 546 583 
3 543 533 583 
3 544 543 583 
3 533 525 583 
3 547 544 583 
3 547 583 596 
3 546 568 583 
3 568 582 595 
3 583 568 630 
3 596 583 631 
3 589 596 629 
3 568 595 622 
3 623 583 630 
3 583 623 631 
3 629 596 631 
3 595 621 622 
3 544 547 596 
