ply
format ascii 1.0
comment VCGLIB generated
element vertex 599
property float x
property float y
property float z
element face 1196
property list uchar int vertex_indices
end_header
1225.899 883.4139 201.2546 
1227.92 864.8461 203.8031 
1229.677 876.7789 201.2022 
1222.825 885.8182 203.4415 
1228.662 861.7167 204.1842 
1230.451 867.8055 202.2526 
1225.78 868.7653 206.5501 
1225.482 875.0578 203.7943 
1228.971 886.7202 201.6842 
1220.146 893.9416 206.1797 
1224.108 893.6219 202.6859 
1232.425 880.255 202.7288 
1221.07 884.5349 208.0147 
1233.077 865.6641 203.2096 
1228.231 895.9497 203.9177 
1220.534 902.1871 205.4949 
1230.756 863.3033 204.453 
1219.589 911.9091 208.4848 
1228.238 864.0549 206.1384 
1233.306 871.6042 202.8612 
1223.198 876.3314 210.7162 
1232.175 889.5806 206.0457 
1217.593 904.4439 209.7637 
1224.423 904.2747 205.5437 
1216.417 912.6367 210.6651 
1217.051 921.139 213.3918 
1227.802 870.5316 210.9174 
1234.263 878.1332 206.6907 
1220.667 918.799 210.6916 
1233.69 868.4234 206.1699 
1230.924 866.9735 208.9698 
1229.173 874.2012 212.5376 
1229.982 874.2023 212.535 
1233.882 886.6968 212.4586 
1218.457 894.3477 212.475 
1232.75 875.2794 212.4762 
1219.512 885.5356 214.408 
1224.503 913.4189 210.0345 
1230.011 871.3021 213.132 
1229.92 874.2498 212.5885 
1215.14 912.8403 213.6437 
1226.754 875.5332 215.7047 
1222.073 880.9266 216.8995 
1232.573 894.9588 210.6905 
1229.509 902.2912 209.2794 
1229.502 879.741 215.0614 
1217.872 892.1588 217.5385 
1217.423 905.4061 215.5994 
1218.486 898.8051 218.0345 
1213.522 920.3099 217.1072 
1228.055 886.0636 218.1537 
1227.932 886.8948 218.5409 
1222.938 921.8938 214.0102 
1231.006 875.1841 215.8932 
1234.138 881.9703 215.6767 
1219.993 888.2774 220.8898 
1217.243 896.2447 222.1198 
1222.746 905.6445 219.2125 
1214.183 913.8506 217.5768 
1220.418 929.7642 217.4399 
1227.963 886.9213 218.6069 
1231.176 899.387 216.9018 
1228.613 913.1988 217.6566 
1227.586 888.226 219.274 
1232.982 879.296 216.9713 
1225.889 925.5416 219.2584 
1212.653 919.614 222.5625 
1214.861 931.6284 220.3159 
1219.419 935.3835 219.9444 
1219.016 894.7695 226.6247 
1217.921 902.3768 221.9565 
1216.409 910.8538 219.5888 
1230.145 879.1973 218.5071 
1227.561 888.7437 219.5226 
1215.251 903.5566 227.4579 
1216.156 909.3145 223.1031 
1214.6 944.0841 226.1817 
1219.871 929.296 227.3259 
1224.043 933.2404 221.724 
1219.852 940.1998 222.9529 
1231.544 886.7369 219.5647 
1217.774 899.0212 231.2858 
1230.728 906.5573 222.2349 
1225.819 882.6016 220.3298 
1225.186 889.9877 224.8578 
1210.4 922.0059 228.5161 
1210.043 932.4985 227.7068 
1209.137 943.6758 230.1866 
1219.011 945.4925 225.078 
1219.757 929.0575 227.7291 
1206.935 938.5672 236.3685 
1219.732 932.2835 230.1707 
1212.063 911.0782 231.7959 
1231.585 913.7418 224.4894 
1212.451 913.843 227.6078 
1222.587 943.9155 226.0126 
1220.201 946.9365 227.3021 
1212.181 951.1595 230.686 
1230.359 897.7563 225.783 
1225.459 937.6607 225.6784 
1218.925 950.3559 230.2199 
1216.726 956.2072 233.6094 
1219.946 899.8389 235.103 
1232.177 909.2972 229.8019 
1210.675 917.4366 237.3632 
1210.504 917.8244 231.7117 
1219.654 931.6982 231.3307 
1208.162 949.3026 233.3439 
1226.287 942.4625 231.3486 
1219.569 930.4366 228.8475 
1219.935 931.7521 230.5512 
1210.866 955.4681 234.1075 
1223.952 896.3094 231.0066 
1229.598 901.1824 232.6068 
1214.832 905.491 234.8456 
1230.165 924.8736 228.4407 
1208.995 925.7878 233.0308 
1230.479 906.879 237.0304 
1213.542 959.7377 237.1517 
1208.326 927.4103 237.4498 
1224.18 952.1087 235.2601 
1207.301 953.256 238.1859 
1219.447 904.0603 239.2964 
1214.496 909.8644 240.5193 
1219.873 938.2465 239.9296 
1219.669 944.5789 242.9743 
1225.309 901.0123 236.7194 
1218.797 909.319 244.1409 
1208.649 928.4442 244.0277 
1219.356 938.5516 236.466 
1226.903 954.9664 239.8876 
1221.083 958.9606 237.3696 
1217.395 963.4493 240.7492 
1231.573 933.3947 238.0316 
1209.449 961.1793 241.7987 
1232.54 915.2472 236.076 
1213.684 916.7067 246.0587 
1230.769 945.0835 242.2571 
1205.445 939.1357 244.8236 
1218.08 943.7471 242.3608 
1204.525 954.653 245.2576 
1224.227 960.6069 241.1787 
1218.57 946.125 242.0022 
1204.563 946.6334 242.6199 
1219.095 950.3903 246.9592 
1225.271 906.3333 241.6211 
1219.231 913.2336 248.2481 
1219.216 936.1181 236.474 
1205.954 961.5674 247.0849 
1232.336 922.5904 241.5918 
1204.052 946.2136 250.3906 
1222.147 965.1544 244.6733 
1224.822 911.3252 246.2975 
1207.327 935.6233 252.7498 
1212.721 967.0013 245.7769 
1219.833 970.8102 248.6677 
1230.363 912.6171 242.1764 
1212.009 972.6313 250.6808 
1219.544 939.3224 244.8365 
1217.72 951.6937 247.4692 
1219.864 949.5032 255.4413 
1205.997 966.1306 251.4686 
1229.476 916.5676 246.954 
1203.193 955.8818 253.8096 
1226.378 965.8552 249.0113 
1224.188 915.9628 250.5265 
1233.109 933.0447 246.9699 
1217.687 949.4116 251.4093 
1229.285 957.0764 246.6875 
1219.701 944.345 254.3804 
1219.474 942.7507 248.3925 
1218.568 957.2413 252.9659 
1229.785 923.3435 251.4055 
1205.521 942.8586 258.9239 
1218.818 941.7028 245.9762 
1218.963 976.0331 252.7114 
1217.917 917.2524 251.5268 
1213.699 924.4938 255.0478 
1234.159 941.4466 251.2761 
1233.296 948.6453 250.7273 
1216.424 959.8992 255.7155 
1206.647 971.9131 254.5476 
1212.098 977.5782 255.0713 
1222.02 920.3233 255.1125 
1203.623 948.5366 255.7132 
1206.434 975.5132 258.2415 
1223.58 976.7581 254.9613 
1226.073 971.3406 253.295 
1219.938 923.1215 259.9117 
1220.262 946.2327 258.4461 
1218.12 961.8148 256.0666 
1226.681 925.0827 258.9064 
1203.747 949.7417 259.0185 
1215.496 956.5235 259.0116 
1233.266 953.9825 254.7302 
1231.064 962.2145 255.0466 
1219.491 980.6404 257.1405 
1212.456 982.6166 260.4295 
1218.108 983.6639 259.4005 
1233.478 935.1252 257.5407 
1240.53 955.8529 263.59 
1236.044 948.0021 258.7675 
1206.659 941.2067 266.1678 
1238.138 946.8148 262.6194 
1230.631 969.0261 258.2582 
1242.974 960.1308 263.5007 
1242.754 961.6337 263.512 
1203.83 977.4586 263.1072 
1204.646 947.896 263.8574 
1218.121 964.6979 262.5366 
1202.655 965.7624 260.2547 
1216.43 926.1366 263.7643 
1213.374 963.6216 261.651 
1200.836 963.8152 267.3101 
1242.127 960.5478 263.5894 
1226.947 976.6258 258.5375 
1218.063 950.922 262.1089 
1231.666 973.0535 263.4138 
1200.125 972.574 268.6439 
1221.673 984.3936 261.9702 
1214.98 989.0637 266.0389 
1222.845 925.7451 263.8918 
1229.052 930.0552 263.2338 
1241.516 954.6897 263.8647 
1203.088 954.6176 261.0651 
1233.127 964.3546 263.7313 
1242.126 960.1971 264.5675 
1212.085 968.595 263.4798 
1214.131 968.0005 261.9364 
1201.475 981.0204 267.9471 
1228.854 980.2344 263.7215 
1205.691 946.6313 270.4052 
1203.202 955.5604 266.7587 
1200.278 966.0169 272.2244 
1206.407 985.1447 265.8766 
1221.801 988.8825 265.8405 
1233.652 938.9443 266.3656 
1220.068 948.2781 263.8618 
1234.807 955.8174 262.1652 
1234.797 959.5416 266.6879 
1243.446 962.0206 263.993 
1236.775 949.1123 266.9025 
1220.825 951.6523 267.3295 
1238.044 955.8543 268.1563 
1242.213 958.1222 265.0378 
1231.864 979.4893 268.9343 
1214.658 972.7308 265.9816 
1222.13 991.637 269.0728 
1208.272 990.2037 269.3081 
1219.786 926.7524 266.7776 
1214.706 933.1593 274.5804 
1210.449 933.3141 264.4887 
1201.959 959.9685 271.0724 
1212.118 972.2676 266.1449 
1227.212 986.8397 267.502 
1216.894 929.1364 269.0913 
1208.948 939.1119 273.0963 
1220.364 952.586 273.341 
1220.859 959.0618 273.0891 
1203.088 987.0315 270.8564 
1224.946 930.209 268.6085 
1229.746 934.8292 270.8442 
1212.016 967.6935 266.8296 
1200.241 971.7608 280.0363 
1199.943 981.35 274.0441 
1212.386 977.3342 271.0771 
1227.195 991.0443 270.8581 
1204.466 953.7877 273.9136 
1238.957 950.3109 266.8044 
1214.649 959.7795 267.4991 
1211.38 972.8996 270.4646 
1233.35 970.9844 269.8206 
1216.293 975.3097 270.3975 
1230.659 988.4774 273.9886 
1214.779 994.1308 272.0342 
1220.177 930.764 273.0083 
1231.937 940.2057 273.997 
1207.248 946.3792 279.2167 
1202.578 961.4337 276.4449 
1219.369 998.3149 277.0999 
1216.553 979.4124 275.5193 
1213.867 980.972 274.0566 
1206.762 992.2042 273.145 
1209.804 996.1298 277.5803 
1220.443 932.7546 276.8094 
1236.498 949.3051 274.6732 
1211.206 976.2767 275.4196 
1202.737 989.9131 276.9318 
1224.823 994.6794 273.7261 
1225.626 933.3315 274.2138 
1234.533 963.3045 272.4688 
1213.22 974.8228 279.6619 
1219.077 971.2459 275.1116 
1225.456 997.8904 277.0532 
1219.278 950.5894 269.7276 
1216.732 981.8145 281.9396 
1213.95 983.6763 277.8217 
1233.684 969.9565 274.585 
1214.054 980.2081 287.3435 
1233.651 977.6505 276.4896 
1210.961 982.6882 278.3844 
1220.836 956.6872 283.3769 
1205.279 955.3596 280.9307 
1211.109 979.3232 280.6425 
1225.141 998.9734 280.654 
1215.068 1001.269 283.1476 
1217.929 934.3647 279.2552 
1217.993 955.245 274.1714 
1215.531 960.5701 274.8915 
1203.589 962.5545 282.3282 
1213.617 967.9208 274.6212 
1234.407 968.7935 278.9085 
1199.717 984.847 283.0461 
1215.421 988.7588 284.6217 
1213.495 938.3192 282.401 
1235.371 962.6644 280.0808 
1210.22 982.7696 284.4201 
1223.782 992.4145 287.2127 
1228.965 995.191 277.6603 
1204.222 995.4712 284.6524 
1206.257 951.1552 287.9586 
1212.673 987.0814 282.1456 
1236.513 956.8142 277.9286 
1221.104 961.3956 282.9391 
1224.149 993.6231 288.1299 
1207.853 1003.169 289.1565 
1208.704 944.2672 287.8571 
1217.494 961.4948 280.3923 
1200.439 971.9224 287.5578 
1218.481 984.408 289.4336 
1198.944 979.1011 292.5424 
1224.372 1002.395 286.4072 
1216.065 1006.381 288.8739 
1220.634 965.6597 278.9555 
1218.317 987.4639 285.9415 
1199.593 990.6597 292.2993 
1202.357 999.1329 293.3624 
1212.745 940.5375 292.0107 
1235.855 966.5916 283.9085 
1200.969 971.2889 291.625 
1232.826 991.2171 283.5801 
1217.239 991.9576 287.5882 
1222.338 957.7829 288.107 
1202.426 966.8366 287.4613 
1217.738 969.6926 281.4565 
1209.932 987.1208 285.705 
1221.71 989.66 286.999 
1238.966 991.5551 291.3211 
1212.406 991.4608 287.5317 
1219.185 937.851 290.0109 
1232.821 943.379 283.2335 
1223.249 955.2839 292.2465 
1220.922 954.2706 291.2343 
1236.218 975.4638 284.4424 
1223.98 936.693 281.6575 
1207.149 947.7262 299.0848 
1204.559 956.7827 295.0409 
1204.721 959.4297 288.1764 
1210.252 985.2862 291.3658 
1216.721 982.8539 297.2759 
1239.502 983.2758 288.8433 
1221.49 996.817 290.516 
1224.044 993.7628 288.1481 
1210.156 1007.761 293.3904 
1216.983 1009.034 293.0329 
1221.36 951.5062 298.4651 
1237.476 960.6973 286.299 
1237.87 968.5107 287.905 
1214.863 994.2592 290.7391 
1222.738 1006.867 290.8121 
1222.954 958.8334 292.208 
1242.424 986.0417 291.7549 
1225.201 994.2243 288.3947 
1213.011 1009.316 299.2121 
1236.731 951.4121 284.8228 
1217.937 953.4409 298.009 
1225.771 955.6364 297.8713 
1220.494 959.5187 288.2282 
1219.564 986.6779 295.8189 
1235.719 946.7141 290.9522 
1219.372 955.5073 294.8256 
1224.605 960.5834 296.3829 
1239.884 974.5135 289.7014 
1244.314 979.0474 293.9597 
1210.255 990.444 291.8415 
1224.507 994.7121 288.8577 
1204.942 1004.778 294.2775 
1230.333 1001.603 293.0111 
1229.122 940.3409 292.5775 
1203.998 1003.437 299.4539 
1222.013 1008.165 294.9514 
1247.437 982.93 297.5031 
1198.436 987.9525 298.327 
1220.621 990.7111 293.8921 
1217.94 989.738 299.0847 
1239.551 994.5533 298.0818 
1206.83 1007.467 297.3946 
1239.118 955.2684 292.7429 
1217.494 984.692 302.5304 
1211.901 993.3979 291.6469 
1227.749 953.9681 302.7722 
1228.372 962.1265 302.7387 
1241.155 967.1188 292.8078 
1223.199 963.4879 296.8864 
1200.217 973.061 295.3362 
1244.4 987.3107 295.2732 
1208.029 1007.438 300.6482 
1209.886 940.7371 306.4948 
1243.112 961.365 298.8827 
1221.558 961.4516 296.2499 
1215.363 982.3635 303.7203 
1211.024 988.461 297.1224 
1237.032 997.0525 301.6672 
1219.604 938.0298 300.875 
1218.066 958.3754 299.8624 
1245.408 971.2355 297.8484 
1198.542 983.967 303.9497 
1223.44 1008.031 300.0618 
1217.241 1009.934 301.7087 
1232.319 939.7436 301.3659 
1230.081 952.9819 306.4033 
1202.023 966.4814 295.955 
1248.171 978.1635 300.4148 
1213.785 992.5931 295.5543 
1219.692 1008.637 303.1253 
1202.479 953.8523 306.4937 
1199.977 968.7928 302.9554 
1199.138 974.4207 300.5316 
1238.372 948.2061 298.9024 
1218.499 948.9709 304.5451 
1201.773 960.7383 303.3134 
1247.453 969.5626 303.5851 
1223.911 964.0161 299.113 
1213.871 988.0261 301.7199 
1231.204 1001.862 300.6754 
1209.451 1004.713 303.7556 
1226.61 1003.559 303.9756 
1214.246 935.752 309.8528 
1216.16 961.5886 307.051 
1222.447 965.5434 304.7712 
1232.921 960.1093 306.9355 
1214.07 982.4965 305.4276 
1213.059 983.7129 299.7726 
1215.497 983.3279 306.0715 
1246.654 986.0722 301.8603 
1216.071 986.1206 304.5859 
1236.276 994.9238 307.1077 
1233.567 998.0445 304.2334 
1214.694 1008.778 303.419 
1216.92 953.2221 302.063 
1231.925 954.7144 309.7139 
1198.215 971.6945 308.9854 
1214.143 984.4178 305.2059 
1240.678 992.6949 304.5585 
1204.284 1001.1 303.8365 
1208.563 938.6083 312.2134 
1224.07 950.2407 307.7709 
1203.791 947.9093 311.2924 
1199.813 959.2345 311.097 
1233.592 961.5552 311.6293 
1236.984 972.8542 308.6172 
1248.705 968.6288 309.7903 
1239.097 991.6641 310.8033 
1219.708 1004.423 305.7141 
1207.158 998.6039 306.9647 
1223.393 934.5625 310.8723 
1231.416 936.3799 307.3687 
1225.788 965.8232 311.1581 
1236.913 968.827 309.5457 
1217.955 971.1752 310.1073 
1249.705 978.1138 309.0863 
1201.361 995.5787 302.7765 
1233.55 956.3483 312.3534 
1234.861 968.4279 308.2593 
1221.989 970.9288 310.6555 
1198.891 982.8365 311.7576 
1202.57 991.7354 309.2044 
1211.44 994.8266 311.6662 
1230.826 996.6375 309.1541 
1217.234 999.5602 308.7369 
1209.886 936.543 315.1918 
1239.256 943.1023 307.5018 
1216.356 951.9794 307.8788 
1218.709 948.795 308.8298 
1218.942 952.1012 310.9833 
1228.924 960.3651 312.6199 
1222.424 969.608 315.1185 
1245.549 986.4091 309.8329 
1207.768 940.846 316.7594 
1218.471 947.921 307.4575 
1230.41 955.78 312.8059 
1199.609 955.4504 316.6291 
1198.172 965.0072 318.6964 
1213.507 968.9077 313.0802 
1237.548 970.3691 311.0027 
1204.34 989.0656 314.6517 
1211.405 935.2953 313.5934 
1197.559 975.8566 315.7715 
1238.53 972.8845 310.2485 
1200.492 983.1061 316.6907 
1219.625 975.446 313.3656 
1236.456 994.678 311.243 
1237.462 937.7523 311.407 
1230.406 965.2394 308.9066 
1235.517 968.8884 310.5207 
1215.346 975.3234 314.4502 
1217.734 977.3232 315.2759 
1235.001 992.1184 313.5358 
1214.735 991.5405 316.2195 
1240.546 941.3754 312.4119 
1237.613 972.4922 310.2433 
1244.421 957.4741 306.961 
1223.538 956.2042 314.558 
1206.891 986.2227 318.9257 
1223.703 994.3098 313.4768 
1203.571 949.2144 320.2759 
1232.484 957.6149 313.7386 
1211.05 964.1088 318.7182 
1226.137 961.8035 314.4023 
1210.58 967.6613 317.4756 
1219.395 976.0925 315.5791 
1203.083 986.9038 317.2579 
1213.94 989.5902 318.8277 
1229.363 990.7004 318.212 
1218.254 958.3041 317.7511 
1214.873 959.8559 314.4268 
1200.278 976.7048 321.3035 
1241.442 987.2462 316.8853 
1232.601 935.6735 313.7979 
1238.724 947.2931 320.1927 
1242.393 948.9815 314.29 
1199.222 956.511 320.6941 
1250.281 972.3157 314.3671 
1247.194 981.9362 316.9264 
1222.786 992.1013 316.8444 
1220.545 989.8128 320.2231 
1215.433 936.1619 316.6381 
1238.573 940.4831 315.4939 
1246.127 962.822 316.3836 
1226.97 960.253 315.8152 
1213.586 975.6777 316.3318 
1236.334 989.7394 318.0716 
1234.39 939.1764 318.6186 
1220.837 959.5886 318.5283 
1205.151 982.5306 323.2545 
1213.771 988.1224 320.9939 
1242.647 954.2969 318.9256 
1201.612 957.4345 324.6718 
1219.052 965.9983 319.0044 
1212.135 973.2361 316.5386 
1239.223 990.3273 315.3791 
1226.797 936.4913 318.2071 
1210.945 971.0805 319.3806 
1248.716 971.8419 319.2831 
1215.6 973.9955 317.4926 
1210.361 985.2874 323.5066 
1241.625 983.0698 322.932 
1233.273 986.6538 322.9332 
1210.442 967.1481 320.3152 
1214.596 962.9351 319.6576 
1213.136 968.9066 320.5164 
1250.122 976.8516 317.0817 
1227.124 988.416 322.6682 
1211.182 941.8769 321.4638 
1220.401 942.072 323.7891 
1234.898 951.29 324.8377 
1231.41 942.8954 322.8295 
1240.459 959.1013 322.8902 
1232.078 961.0464 327.832 
1239.399 969.0558 326.087 
1244.837 968.2296 322.2448 
1232.601 970.8119 328.837 
1245.128 976.5385 323.1815 
1235.483 981.7971 327.0458 
1209.657 949.0646 325.7887 
1216.627 952.4909 329.1005 
1200.786 967.5068 326.4765 
1203.151 976.227 326.9161 
1213.809 983.1656 326.6494 
1208.026 981.8821 326.0002 
1216.501 986.6819 324.1703 
1222.544 986.0638 325.2354 
1206.505 960.5829 330.6277 
1226.257 968.1996 330.2737 
1237.559 976.4615 327.6644 
1240.915 980.2076 326.1691 
1208.767 977.5911 329.6007 
1227.875 982.9649 327.6883 
1228.091 976.5696 329.7379 
1222.227 960.2145 330.455 
1227.067 950.1803 327.2463 
1218.427 979.2371 329.7855 
1213.404 962.9297 332.2652 
1204.618 969.9388 331.5539 
1205.231 966.0248 333.6805 
1206.26 968.583 334.1351 
1219.296 970.2882 331.6765 
1210.623 971.2571 332.7921 
1207.779 965.6978 333.8051 
3 2 0 8 
3 0 3 10 
3 8 0 10 
3 4 1 16 
3 1 5 16 
3 13 5 19 
3 2 5 7 
3 2 11 19 
3 5 2 19 
3 3 0 7 
3 0 2 7 
3 2 8 11 
3 5 13 16 
3 1 6 7 
3 5 1 7 
3 3 9 10 
3 8 10 14 
3 10 9 15 
3 19 11 27 
3 11 8 21 
3 8 14 21 
3 14 10 23 
3 10 15 23 
3 9 3 12 
3 14 23 44 
3 4 16 18 
3 1 4 18 
3 16 13 29 
3 3 7 12 
3 11 21 27 
3 21 14 44 
3 15 17 23 
3 6 1 18 
3 7 6 20 
3 15 9 22 
3 13 19 29 
3 19 27 29 
3 12 7 20 
3 43 21 44 
3 17 15 22 
3 23 17 37 
3 26 31 32 
3 9 12 34 
3 22 9 34 
3 17 22 24 
3 17 24 25 
3 23 37 44 
3 17 25 28 
3 18 16 30 
3 16 29 30 
3 6 18 26 
3 20 6 26 
3 27 21 33 
3 33 21 43 
3 25 24 40 
3 17 28 37 
3 26 18 30 
3 29 27 35 
3 35 32 45 
3 32 31 45 
3 44 37 62 
3 30 29 35 
3 20 26 41 
3 31 26 39 
3 26 32 39 
3 32 35 39 
3 31 39 45 
3 27 33 35 
3 35 33 54 
3 12 20 36 
3 34 12 36 
3 37 28 52 
3 26 30 38 
3 39 35 45 
3 33 43 61 
3 37 52 62 
3 26 38 41 
3 20 41 42 
3 36 20 42 
3 24 22 40 
3 28 25 52 
3 30 35 38 
3 45 50 51 
3 35 54 64 
3 34 36 46 
3 22 34 47 
3 40 22 47 
3 43 44 61 
3 41 38 53 
3 54 33 80 
3 34 46 48 
3 33 61 80 
3 47 34 48 
3 25 40 49 
3 62 52 65 
3 38 35 53 
3 53 35 64 
3 53 64 72 
3 51 50 63 
3 61 44 62 
3 25 49 67 
3 52 25 59 
3 52 59 65 
3 46 36 55 
3 46 55 56 
3 48 46 56 
3 40 47 58 
3 57 61 62 
3 49 40 58 
3 59 25 67 
3 50 45 60 
3 45 51 60 
3 64 54 80 
3 58 47 71 
3 47 57 71 
3 61 57 82 
3 49 58 66 
3 49 66 67 
3 65 59 78 
3 59 67 68 
3 59 68 78 
3 41 53 72 
3 50 60 63 
3 51 63 73 
3 60 51 73 
3 80 61 98 
3 47 48 57 
3 61 82 98 
3 57 62 82 
3 72 64 80 
3 48 56 70 
3 57 48 70 
3 71 57 75 
3 62 65 115 
3 68 67 79 
3 41 72 83 
3 42 41 83 
3 55 42 83 
3 36 42 55 
3 63 60 73 
3 56 55 69 
3 57 70 75 
3 82 62 93 
3 66 58 71 
3 65 78 115 
3 78 79 99 
3 78 68 79 
3 72 80 83 
3 56 69 74 
3 70 56 74 
3 66 71 75 
3 67 76 79 
3 66 75 94 
3 93 62 115 
3 67 66 86 
3 76 67 86 
3 79 76 88 
3 74 69 81 
3 70 74 75 
3 78 99 115 
3 79 95 99 
3 79 88 95 
3 83 80 84 
3 55 83 84 
3 84 80 98 
3 82 93 103 
3 66 85 86 
3 91 77 109 
3 76 86 87 
3 88 76 96 
3 69 55 84 
3 77 89 109 
3 77 91 110 
3 95 88 96 
3 85 66 94 
3 89 77 110 
3 89 106 109 
3 87 86 90 
3 99 95 108 
3 69 84 112 
3 81 69 112 
3 84 98 112 
3 74 92 94 
3 75 74 94 
3 76 87 97 
3 96 76 100 
3 98 82 103 
3 103 93 115 
3 85 94 105 
3 95 96 108 
3 76 97 100 
3 96 100 108 
3 112 98 113 
3 98 103 113 
3 92 74 114 
3 99 108 115 
3 100 97 101 
3 85 105 116 
3 86 85 116 
3 91 109 147 
3 129 91 147 
3 97 87 107 
3 102 81 112 
3 74 81 114 
3 81 102 114 
3 92 104 105 
3 94 92 105 
3 103 115 135 
3 106 89 110 
3 108 100 120 
3 112 113 126 
3 113 103 117 
3 110 91 129 
3 101 97 111 
3 100 101 120 
3 102 112 126 
3 113 117 126 
3 104 92 114 
3 104 114 123 
3 117 103 135 
3 115 108 133 
3 90 86 116 
3 109 106 147 
3 87 90 107 
3 97 107 111 
3 135 115 149 
3 115 133 149 
3 90 116 119 
3 101 111 118 
3 120 101 131 
3 105 104 116 
3 111 107 121 
3 130 120 131 
3 118 111 121 
3 101 118 131 
3 122 102 126 
3 114 102 122 
3 114 122 123 
3 116 104 119 
3 90 119 128 
3 133 108 137 
3 124 110 129 
3 125 124 129 
3 108 120 137 
3 107 90 121 
3 120 130 137 
3 106 110 124 
3 139 129 147 
3 117 135 156 
3 119 104 128 
3 106 124 147 
3 129 139 142 
3 125 129 142 
3 130 131 141 
3 131 132 141 
3 131 118 132 
3 122 126 145 
3 123 122 127 
3 126 117 145 
3 145 117 156 
3 104 123 136 
3 90 128 138 
3 121 90 143 
3 137 130 168 
3 130 141 168 
3 118 121 134 
3 127 122 145 
3 123 127 136 
3 128 104 136 
3 149 133 166 
3 133 137 166 
3 90 138 143 
3 140 121 143 
3 134 121 140 
3 132 118 134 
3 124 125 160 
3 125 142 144 
3 141 132 151 
3 132 134 154 
3 151 132 154 
3 135 149 156 
3 128 136 177 
3 139 147 174 
3 125 144 160 
3 144 142 159 
3 141 151 168 
3 152 145 156 
3 127 145 152 
3 136 127 146 
3 138 128 153 
3 142 139 159 
3 137 168 179 
3 134 148 154 
3 147 124 158 
3 147 158 174 
3 124 160 170 
3 140 143 150 
3 159 139 167 
3 134 140 148 
3 144 159 171 
3 151 154 155 
3 146 127 152 
3 156 149 162 
3 153 128 177 
3 149 166 172 
3 143 138 150 
3 167 139 174 
3 151 164 168 
3 152 156 162 
3 150 138 153 
3 166 137 178 
3 178 137 179 
3 154 148 161 
3 155 154 157 
3 146 152 165 
3 152 162 165 
3 140 150 163 
3 148 140 163 
3 160 144 171 
3 151 155 164 
3 157 154 161 
3 162 149 172 
3 158 124 170 
3 161 148 163 
3 168 164 195 
3 164 155 187 
3 155 157 175 
3 136 146 176 
3 165 162 172 
3 136 176 177 
3 170 167 174 
3 160 167 170 
3 171 159 180 
3 155 175 187 
3 172 166 199 
3 169 158 170 
3 179 168 194 
3 159 167 180 
3 194 168 195 
3 171 180 190 
3 157 161 181 
3 146 165 176 
3 176 165 183 
3 165 172 183 
3 158 169 174 
3 150 153 173 
3 169 170 174 
3 163 150 184 
3 164 187 195 
3 175 157 182 
3 175 186 187 
3 150 173 184 
3 180 167 193 
3 157 181 182 
3 175 182 196 
3 186 175 196 
3 177 176 183 
3 183 172 191 
3 153 177 251 
3 166 178 199 
3 160 169 216 
3 167 160 216 
3 178 179 201 
3 179 194 201 
3 180 193 212 
3 160 171 209 
3 171 190 209 
3 195 187 204 
3 182 181 185 
3 187 186 215 
3 191 172 199 
3 161 163 210 
3 181 161 210 
3 185 181 210 
3 196 182 197 
3 177 183 188 
3 216 169 237 
3 199 178 201 
3 169 160 189 
3 204 187 215 
3 188 183 191 
3 169 189 237 
3 199 201 203 
3 163 184 192 
3 193 167 216 
3 212 193 269 
3 180 212 228 
3 190 180 209 
3 209 180 228 
3 204 215 217 
3 182 185 197 
3 186 196 215 
3 196 197 198 
3 173 153 251 
3 203 200 223 
3 194 195 238 
3 195 225 238 
3 195 204 225 
3 215 196 219 
3 196 198 219 
3 191 199 222 
3 202 173 251 
3 192 173 208 
3 184 173 192 
3 193 216 269 
3 201 194 238 
3 210 163 224 
3 205 200 206 
3 197 185 207 
3 188 191 221 
3 221 191 222 
3 222 199 236 
3 199 203 236 
3 201 200 203 
3 163 192 224 
3 204 217 225 
3 200 205 223 
3 223 205 244 
3 227 212 262 
3 212 227 228 
3 205 206 240 
3 215 219 230 
3 177 211 251 
3 173 202 208 
3 206 200 214 
3 198 197 219 
3 177 188 211 
3 211 188 221 
3 221 222 260 
3 262 212 269 
3 205 240 244 
3 210 213 218 
3 207 210 218 
3 207 185 210 
3 217 215 230 
3 197 207 234 
3 219 197 220 
3 219 220 235 
3 211 221 249 
3 222 236 260 
3 203 223 268 
3 192 208 224 
3 201 238 241 
3 200 201 241 
3 225 217 271 
3 206 214 226 
3 209 228 246 
3 228 227 253 
3 246 228 253 
3 217 230 245 
3 207 229 234 
3 230 219 254 
3 220 197 234 
3 249 221 260 
3 208 202 231 
3 236 203 268 
3 200 241 243 
3 210 224 232 
3 238 225 239 
3 226 200 243 
3 214 200 226 
3 213 210 232 
3 160 209 258 
3 239 225 290 
3 218 213 233 
3 217 245 271 
3 206 226 240 
3 219 235 254 
3 241 236 268 
3 189 160 237 
3 237 160 242 
3 224 208 232 
3 223 244 268 
3 238 239 243 
3 240 226 244 
3 207 218 229 
3 235 247 254 
3 251 211 255 
3 260 236 261 
3 241 238 243 
3 242 160 258 
3 226 243 244 
3 225 271 290 
3 253 227 262 
3 253 262 270 
3 245 230 254 
3 220 234 248 
3 235 220 247 
3 211 249 255 
3 261 236 276 
3 216 237 294 
3 262 269 310 
3 233 213 252 
3 209 246 272 
3 265 253 270 
3 246 253 265 
3 234 229 259 
3 248 234 259 
3 254 247 266 
3 255 249 260 
3 250 251 255 
3 202 251 256 
3 251 250 256 
3 231 202 256 
3 208 231 232 
3 237 242 257 
3 241 268 285 
3 244 243 268 
3 213 232 252 
3 246 265 272 
3 220 248 274 
3 247 220 274 
3 260 261 289 
3 243 239 290 
3 218 233 263 
3 218 263 264 
3 229 218 264 
3 245 254 273 
3 254 266 273 
3 266 247 288 
3 255 260 275 
3 275 260 289 
3 261 276 289 
3 236 241 276 
3 232 231 267 
3 268 243 285 
3 243 290 322 
3 270 262 310 
3 265 270 286 
3 274 248 282 
3 284 275 289 
3 276 241 285 
3 216 294 307 
3 269 216 307 
3 285 243 322 
3 252 232 267 
3 269 308 310 
3 280 272 281 
3 271 245 299 
3 259 229 264 
3 272 265 281 
3 281 265 300 
3 248 259 282 
3 273 266 288 
3 247 274 288 
3 250 255 275 
3 267 231 277 
3 290 271 297 
3 264 263 312 
3 297 271 299 
3 280 281 296 
3 245 273 299 
3 274 279 288 
3 231 256 277 
3 252 267 278 
3 290 315 322 
3 259 264 287 
3 274 282 283 
3 279 274 283 
3 288 279 293 
3 250 275 284 
3 269 307 308 
3 278 267 302 
3 233 252 278 
3 286 270 310 
3 265 286 300 
3 296 281 300 
3 282 259 287 
3 273 288 318 
3 250 284 306 
3 237 257 294 
3 276 285 350 
3 291 286 310 
3 209 272 292 
3 290 297 311 
3 272 280 292 
3 295 280 296 
3 288 293 318 
3 284 289 354 
3 256 250 314 
3 289 276 354 
3 294 257 307 
3 267 277 302 
3 257 242 258 
3 263 233 278 
3 258 209 292 
3 290 311 315 
3 291 310 344 
3 287 264 312 
3 306 284 354 
3 276 350 354 
3 258 292 333 
3 315 311 338 
3 292 280 295 
3 300 286 303 
3 299 273 340 
3 296 300 321 
3 295 296 321 
3 283 282 287 
3 277 256 314 
3 277 314 326 
3 257 258 301 
3 286 291 303 
3 291 298 303 
3 297 299 311 
3 300 303 316 
3 313 295 321 
3 283 287 319 
3 293 279 304 
3 293 304 318 
3 304 279 305 
3 250 306 314 
3 302 277 320 
3 257 301 307 
3 278 302 309 
3 323 258 333 
3 263 278 309 
3 333 292 344 
3 311 299 353 
3 298 291 344 
3 292 295 344 
3 299 340 353 
3 300 316 345 
3 321 300 345 
3 279 283 305 
3 308 307 327 
3 301 258 323 
3 263 309 343 
3 310 308 327 
3 310 327 344 
3 312 263 330 
3 295 298 344 
3 295 313 334 
3 338 311 353 
3 303 298 316 
3 287 312 319 
3 273 318 340 
3 305 283 319 
3 318 304 340 
3 314 306 354 
3 350 285 374 
3 285 322 374 
3 322 315 366 
3 315 338 366 
3 338 353 367 
3 321 345 348 
3 317 346 362 
3 324 317 362 
3 305 319 325 
3 304 305 331 
3 320 277 326 
3 302 320 357 
3 322 366 374 
3 309 302 357 
3 307 301 327 
3 263 328 330 
3 329 295 334 
3 334 313 341 
3 313 321 348 
3 341 313 348 
3 304 331 340 
3 331 305 332 
3 301 351 352 
3 301 352 377 
3 327 301 377 
3 328 263 343 
3 353 340 360 
3 319 312 335 
3 348 345 384 
3 334 341 346 
3 317 324 346 
3 325 319 336 
3 346 361 362 
3 340 331 387 
3 349 314 354 
3 326 314 337 
3 301 342 351 
3 301 323 342 
3 344 327 377 
3 323 333 344 
3 330 328 339 
3 353 360 382 
3 312 330 335 
3 340 347 360 
3 305 325 332 
3 331 369 387 
3 326 337 355 
3 342 323 377 
3 323 344 377 
3 366 338 367 
3 339 328 343 
3 298 295 329 
3 341 348 368 
3 346 324 361 
3 368 348 399 
3 324 362 372 
3 347 340 387 
3 331 332 369 
3 354 350 388 
3 337 314 349 
3 350 374 379 
3 345 316 358 
3 345 358 384 
3 360 347 371 
3 332 364 369 
3 350 379 388 
3 320 326 355 
3 320 355 356 
3 320 356 357 
3 343 309 357 
3 367 353 382 
3 316 298 358 
3 298 329 359 
3 382 360 383 
3 329 334 346 
3 319 335 336 
3 348 384 399 
3 346 341 361 
3 361 341 368 
3 361 324 385 
3 332 325 363 
3 352 351 365 
3 351 342 370 
3 370 342 377 
3 367 382 402 
3 383 371 405 
3 360 371 383 
3 362 361 385 
3 372 362 385 
3 387 369 390 
3 374 366 397 
3 330 339 404 
3 358 298 442 
3 324 372 385 
3 325 336 386 
3 363 325 386 
3 332 363 364 
3 364 373 390 
3 369 364 390 
3 349 354 388 
3 352 365 380 
3 377 352 380 
3 366 367 402 
3 329 346 378 
3 378 346 393 
3 346 361 393 
3 371 347 405 
3 347 387 395 
3 364 363 373 
3 337 349 413 
3 365 351 376 
3 379 374 397 
3 376 351 381 
3 351 370 381 
3 370 377 409 
3 391 383 405 
3 336 335 471 
3 347 395 405 
3 357 356 421 
3 343 357 421 
3 377 380 409 
3 397 366 402 
3 339 343 421 
3 404 339 421 
3 382 383 402 
3 402 383 415 
3 359 329 378 
3 384 358 411 
3 386 336 389 
3 349 388 413 
3 365 376 400 
3 379 397 428 
3 388 379 428 
3 365 375 380 
3 380 375 414 
3 397 402 408 
3 381 370 409 
3 298 359 442 
3 335 330 392 
3 335 392 471 
3 393 361 394 
3 389 336 471 
3 363 386 396 
3 390 373 417 
3 387 390 417 
3 356 355 430 
3 421 356 430 
3 409 380 414 
3 403 381 409 
3 383 391 422 
3 359 378 398 
3 368 399 423 
3 361 368 423 
3 386 389 396 
3 373 363 396 
3 400 376 401 
3 414 375 449 
3 376 381 401 
3 415 383 422 
3 330 404 427 
3 422 391 444 
3 399 384 423 
3 413 388 419 
3 419 388 428 
3 355 337 413 
3 397 408 428 
3 408 402 415 
3 403 409 432 
3 391 405 444 
3 384 411 423 
3 412 395 434 
3 395 387 434 
3 407 355 413 
3 375 365 449 
3 381 403 432 
3 416 330 427 
3 359 398 410 
3 392 330 416 
3 411 358 442 
3 405 395 444 
3 378 393 394 
3 394 361 423 
3 373 396 406 
3 400 401 440 
3 428 408 511 
3 409 414 439 
3 408 415 431 
3 432 409 439 
3 359 410 442 
3 378 394 398 
3 433 411 442 
3 423 411 433 
3 396 389 406 
3 406 389 435 
3 387 417 434 
3 417 373 418 
3 465 413 466 
3 407 413 437 
3 413 419 466 
3 365 429 449 
3 420 400 440 
3 438 414 449 
3 408 431 511 
3 401 381 432 
3 415 422 431 
3 395 412 453 
3 412 434 447 
3 417 418 424 
3 419 428 481 
3 355 425 430 
3 414 438 439 
3 421 426 427 
3 404 421 427 
3 431 422 470 
3 444 395 453 
3 433 442 452 
3 412 447 453 
3 394 423 433 
3 418 373 448 
3 429 365 456 
3 365 400 456 
3 420 440 450 
3 426 421 430 
3 422 444 470 
3 444 453 487 
3 454 389 471 
3 435 389 454 
3 437 413 465 
3 466 419 481 
3 355 407 457 
3 425 355 457 
3 481 428 511 
3 438 449 482 
3 401 432 439 
3 431 461 511 
3 410 441 442 
3 410 398 443 
3 443 398 445 
3 398 394 445 
3 447 446 453 
3 394 433 445 
3 407 437 455 
3 438 482 525 
3 426 430 451 
3 401 439 503 
3 440 401 473 
3 439 438 469 
3 439 469 474 
3 427 426 451 
3 441 410 443 
3 416 427 451 
3 442 441 452 
3 470 444 487 
3 392 416 471 
3 445 433 452 
3 407 455 457 
3 400 420 456 
3 449 429 482 
3 425 457 458 
3 430 425 458 
3 450 440 459 
3 473 401 503 
3 460 468 473 
3 461 431 470 
3 441 443 452 
3 443 445 452 
3 453 462 487 
3 471 416 476 
3 453 446 462 
3 429 456 489 
3 420 450 456 
3 482 484 525 
3 467 439 474 
3 468 440 473 
3 469 438 493 
3 468 460 498 
3 462 446 478 
3 437 465 536 
3 465 466 528 
3 466 502 528 
3 466 481 502 
3 482 429 489 
3 450 459 472 
3 493 438 525 
3 439 467 503 
3 511 461 538 
3 469 493 505 
3 461 470 532 
3 498 460 510 
3 416 451 475 
3 465 528 551 
3 456 483 489 
3 467 485 503 
3 451 430 458 
3 459 440 468 
3 473 503 504 
3 467 474 486 
3 474 469 500 
3 500 469 505 
3 486 474 500 
3 470 487 533 
3 536 465 551 
3 502 481 509 
3 457 455 488 
3 509 481 530 
3 483 482 489 
3 482 483 484 
3 481 511 530 
3 450 472 490 
3 458 457 491 
3 451 458 492 
3 451 492 497 
3 494 468 498 
3 475 451 497 
3 505 493 549 
3 416 475 476 
3 476 475 495 
3 487 462 527 
3 487 527 533 
3 462 478 501 
3 455 437 496 
3 480 455 496 
3 455 480 488 
3 502 509 537 
3 456 450 490 
3 483 456 484 
3 519 493 525 
3 458 491 492 
3 459 468 494 
3 461 532 538 
3 460 473 510 
3 500 505 506 
3 462 501 507 
3 484 456 512 
3 456 490 512 
3 490 472 516 
3 485 467 518 
3 485 459 503 
3 472 459 516 
3 459 494 504 
3 473 504 510 
3 540 505 549 
3 494 498 510 
3 532 470 561 
3 500 506 520 
3 496 437 536 
3 528 502 537 
3 509 530 537 
3 512 485 518 
3 493 519 549 
3 503 459 504 
3 475 497 499 
3 506 505 554 
3 495 475 499 
3 484 512 525 
3 490 485 512 
3 516 459 539 
3 459 490 539 
3 459 485 490 
3 504 494 510 
3 486 500 520 
3 457 488 515 
3 491 457 515 
3 490 516 539 
3 530 511 538 
3 517 519 525 
3 467 486 518 
3 549 519 552 
3 505 540 554 
3 520 506 554 
3 495 499 521 
3 480 496 536 
3 530 529 537 
3 512 524 525 
3 512 518 539 
3 519 517 558 
3 518 486 539 
3 552 519 558 
3 499 497 526 
3 528 537 542 
3 530 538 546 
3 492 491 531 
3 525 524 559 
3 548 486 554 
3 538 553 570 
3 538 532 553 
3 486 520 554 
3 499 513 521 
3 462 507 550 
3 528 542 551 
3 488 480 536 
3 529 530 546 
3 539 486 548 
3 497 492 526 
3 540 549 554 
3 513 499 526 
3 527 462 550 
3 537 529 542 
3 491 515 531 
3 524 512 543 
3 512 539 543 
3 546 538 567 
3 567 538 570 
3 553 532 561 
3 533 527 556 
3 470 533 561 
3 541 527 550 
3 551 542 566 
3 515 488 563 
3 492 531 547 
3 543 539 548 
3 517 525 559 
3 513 526 544 
3 527 541 557 
3 556 527 557 
3 488 536 563 
3 564 551 566 
3 524 543 559 
3 529 546 567 
3 549 552 554 
3 536 551 564 
3 563 536 564 
3 542 529 566 
3 565 529 567 
3 531 515 547 
3 543 548 559 
3 558 517 559 
3 569 567 570 
3 559 548 560 
3 554 552 560 
3 552 558 560 
3 548 554 560 
3 533 556 572 
3 561 533 572 
3 563 564 574 
3 529 565 566 
3 515 563 574 
3 547 515 574 
3 570 553 572 
3 553 561 572 
3 544 526 577 
3 544 577 579 
3 574 564 575 
3 526 492 576 
3 526 576 577 
3 557 562 581 
3 575 564 590 
3 564 566 590 
3 566 565 590 
3 568 567 569 
3 492 547 576 
3 568 569 571 
3 558 559 560 
3 579 577 586 
3 572 556 585 
3 557 581 587 
3 556 557 573 
3 556 573 585 
3 547 574 582 
3 574 575 582 
3 565 567 568 
3 568 571 583 
3 569 570 572 
3 571 584 588 
3 571 569 584 
3 583 571 588 
3 580 578 581 
3 565 568 590 
3 576 547 582 
3 568 583 589 
3 577 576 593 
3 569 572 584 
3 584 572 585 
3 578 586 591 
3 578 579 586 
3 582 575 592 
3 589 583 596 
3 586 577 593 
3 583 588 596 
3 581 578 591 
3 573 584 585 
3 589 575 590 
3 575 589 592 
3 568 589 590 
3 591 586 597 
3 588 587 591 
3 573 587 588 
3 587 581 591 
3 592 589 596 
3 588 591 596 
3 584 573 588 
3 576 582 593 
3 586 593 597 
3 596 591 597 
3 582 592 598 
3 593 582 594 
3 594 582 598 
3 592 597 598 
3 593 595 597 
3 592 596 597 
3 595 594 598 
3 593 594 595 
3 597 595 598 
3 373 406 435 
3 434 417 436 
3 434 436 447 
3 373 435 448 
3 417 424 436 
3 448 435 463 
3 436 424 463 
3 424 448 463 
3 447 436 478 
3 446 447 478 
3 436 463 478 
3 435 454 464 
3 435 464 479 
3 463 435 479 
3 464 454 471 
3 478 463 479 
3 464 471 476 
3 464 476 477 
3 478 479 514 
3 464 477 479 
3 507 478 514 
3 477 476 495 
3 477 495 508 
3 477 508 514 
3 501 478 507 
3 479 477 514 
3 514 508 534 
3 508 513 522 
3 508 495 513 
3 507 514 523 
3 508 522 535 
3 534 508 535 
3 523 514 534 
3 513 495 521 
3 523 534 535 
3 507 523 541 
3 522 513 545 
3 523 535 562 
3 557 523 562 
3 507 541 550 
3 513 544 555 
3 545 513 555 
3 535 522 545 
3 541 523 557 
3 545 555 580 
3 535 545 580 
3 555 544 579 
3 535 580 581 
3 562 535 581 
3 578 555 579 
3 555 578 580 
3 424 418 448 
3 573 557 587 
