ply
format ascii 1.0
comment VCGLIB generated
element vertex 649
property float x
property float y
property float z
element face 1290
property list uchar int vertex_indices
end_header
1225.208 1187.245 360.0194 
1190.077 1178.205 359.9603 
1186.591 1183.675 360.7257 
1198.258 1182.063 357.648 
1202.232 1181.861 359.4947 
1221.699 1186.02 358.8177 
1189.458 1190.94 359.8366 
1195.333 1177.697 360.0555 
1193.871 1184.017 358.1014 
1199.316 1185.496 358.1092 
1215.891 1188.897 359.1192 
1228.592 1187.537 362.4148 
1214.475 1182.312 359.8267 
1186.021 1170.427 366.5897 
1184.976 1176.411 363.8657 
1201.29 1175.561 363.2417 
1219.755 1182.801 359.7196 
1184.926 1190.989 362.8148 
1189.514 1200.023 362.9957 
1229.603 1173.107 366.3386 
1209.71 1178.883 362.3249 
1203.418 1189.496 359.1386 
1209.402 1186.567 359.7489 
1197.191 1193.854 359.5407 
1225.142 1194.593 360.1151 
1209.298 1199.17 360.7487 
1220.967 1195.062 359.8751 
1184.047 1167.612 371.0721 
1218.964 1177.627 363.1027 
1225.65 1173.927 365.1743 
1182.392 1183.666 367.3819 
1183.172 1195.675 369.0274 
1189.081 1173.736 362.2545 
1193.322 1171.692 365.4213 
1226.9 1179.76 362.4327 
1227.328 1198.12 363.8844 
1198.282 1204.05 362.047 
1194.196 1210.038 364.8434 
1181.606 1173.214 373.2733 
1187.506 1208.922 368.5394 
1219.803 1204.322 362.5179 
1232.069 1177.338 367.5928 
1220.826 1172.564 370.7767 
1182.505 1204.495 376.6016 
1214.698 1210.758 364.1437 
1214.06 1174.906 366.5971 
1223.07 1211.679 366.4816 
1204.335 1212.977 364.7383 
1214.351 1220.085 367.8922 
1199.896 1171.542 368.2252 
1181.188 1167.279 375.2482 
1206.969 1173.742 367.4896 
1232.074 1186.905 368.6342 
1188.209 1168.224 369.7196 
1232.83 1199.36 372.1756 
1230.67 1209.94 371.505 
1196.55 1219.627 368.6196 
1205.197 1221.093 367.5842 
1193.657 1168.456 372.7775 
1232.716 1173.156 370.4887 
1187.469 1218.989 373.7309 
1185.541 1165.685 374.8794 
1229.043 1170.974 370.8011 
1227.475 1170.91 377.7711 
1190.464 1166.649 377.0403 
1203.181 1170.512 374.6657 
1225.277 1220.375 371.6213 
1196.152 1231.016 373.9097 
1206.556 1227.387 370.4376 
1181.468 1165.773 376.0229 
1216.2 1171.665 375.4433 
1210.793 1186.023 377.9137 
1233.941 1205.841 375.4489 
1180.852 1184.984 380.3813 
1186.73 1227.983 377.8444 
1209.045 1236.184 374.247 
1232.782 1171.319 376.5951 
1235.066 1177.82 374.9709 
1211.063 1196.564 378.6518 
1201.607 1208.153 377.3733 
1218.115 1229.236 372.7532 
1219.442 1171.881 380.824 
1204.579 1190.049 377.1072 
1207.992 1208.997 378.8833 
1200.543 1240.83 376.5049 
1194.145 1168.239 381.5362 
1205.41 1183.752 377.6092 
1202.082 1183.467 379.3145 
1209.647 1183.384 378.8629 
1212.083 1188.599 379.9394 
1199.814 1207.735 377.2323 
1231.413 1219.115 376.2858 
1182.686 1217.883 381.5147 
1189.898 1240.011 380.3362 
1209.645 1244.917 377.6112 
1212.333 1172.229 372.0565 
1198.692 1181.752 378.6774 
1199.806 1185.058 378.1745 
1215.092 1206.096 381.5485 
1183.133 1230.615 383.7447 
1220.514 1238.804 377.5358 
1210.779 1171.35 379.5332 
1212.952 1183.996 378.7527 
1199.207 1248.15 379.4634 
1234.896 1185.584 376.5089 
1202.103 1202.176 377.5361 
1214.332 1198.214 382.011 
1234.068 1212.139 379.4677 
1207.365 1216.478 380.2447 
1227.639 1237.442 380.4738 
1185.496 1166.553 382.4865 
1188.69 1166.257 379.1637 
1198.476 1183.354 379.1341 
1207.282 1186.379 380.6629 
1234.328 1192.67 376.1777 
1228.059 1229.176 377.7202 
1212.229 1217.685 382.7526 
1206.161 1222.79 382.6434 
1186.142 1250.211 387.4073 
1192.114 1250.608 382.5052 
1198.495 1255.486 382.3218 
1208.009 1253.646 381.0116 
1181.694 1166.126 377.9165 
1236.444 1177.784 382.5598 
1235.817 1182.203 381.1941 
1203.375 1187.994 381.2058 
1199.377 1193.191 378.0996 
1216.562 1204.149 383.5982 
1203.043 1170.184 381.8703 
1235.884 1174.02 380.6861 
1181.142 1168.523 379.2582 
1235.102 1189.826 382.8978 
1207.011 1196.14 382.8398 
1198.667 1201.097 379.576 
1201.417 1211.64 379.4695 
1233.782 1223.831 383.9855 
1210.606 1227.729 385.657 
1200.257 1208.337 383.2539 
1214.361 1212.14 385.2575 
1182.468 1200.241 388.4327 
1212.968 1224.854 388.1796 
1181.349 1233.451 387.9576 
1200.603 1222.621 384.3632 
1217.369 1248.431 380.2826 
1192.481 1258.799 386.0618 
1206.688 1171.729 386.2285 
1213.242 1172.64 386.2746 
1199.558 1191.204 380.3962 
1234.757 1231.682 388.9757 
1188.641 1169.02 387.2438 
1200.189 1170.433 386.6801 
1213.053 1203.716 384.6251 
1231.638 1236.58 385.3283 
1183.075 1239.728 386.5865 
1217.184 1257.129 384.0875 
1193.749 1269.768 390.2671 
1204.242 1263.389 385.3737 
1194.495 1170.528 389.1994 
1211.512 1218.445 388.192 
1225.596 1246.752 383.7177 
1180.611 1177.763 387.1566 
1201.96 1173.682 390.3225 
1231.931 1171.466 383.1783 
1183.228 1181.642 391.4111 
1206.863 1213.277 387.1275 
1200.077 1223.501 388.1799 
1205.259 1232.913 387.0753 
1209.387 1174.543 389.6249 
1211.398 1235.79 389.8877 
1182.479 1245.153 391.2159 
1225.31 1259.532 388.9622 
1204.537 1275.951 389.9875 
1226.107 1171.739 386.8662 
1182.515 1172.996 385.1416 
1218.628 1175.146 390.457 
1208.498 1225.377 391.1782 
1199.832 1230.942 387.9989 
1181.346 1237.491 390.6181 
1212.5 1246.419 394.6602 
1233.374 1237.309 392.7785 
1208.005 1243.494 391.4122 
1186.725 1262.694 392.4234 
1216.321 1267.897 388.1647 
1193.928 1278.718 392.8669 
1225.31 1174.118 390.2884 
1203.473 1223.305 390.2558 
1182.479 1224.334 390.9231 
1216.558 1276.766 391.4854 
1231.216 1175.058 389.3161 
1226.522 1179.338 392.8763 
1235.428 1175.525 385.8739 
1234.698 1201.274 381.2178 
1199.436 1231.956 390.203 
1202.292 1238.877 391.4116 
1217.28 1185.233 395.5071 
1184.728 1191.648 394.7808 
1235.056 1232.721 392.2889 
1209.6 1252.582 394.6995 
1187.25 1277.71 399.4448 
1191.819 1283.392 395.0927 
1201.545 1290.856 394.8524 
1198.317 1284.796 393.2605 
1195.494 1176.508 393.7853 
1205.984 1180.2 393.9766 
1203.097 1232.161 392.8134 
1182.407 1240.501 395.4212 
1212.81 1255.819 397.7342 
1206.594 1255.669 395.7099 
1224.609 1270.479 392.5503 
1209.729 1285.579 393.4797 
1188.275 1173.748 391.6023 
1227 1189.799 395.0804 
1205.583 1193.154 397.6391 
1191.329 1204.772 397.6801 
1233.137 1225.083 396.1608 
1185.797 1229.762 399.4606 
1208.051 1232.273 394.2531 
1215.276 1292.689 397.6748 
1193.314 1290.396 397.2719 
1207.083 1292.339 395.3576 
1218.326 1198.441 398.3804 
1233.754 1212.885 390.4296 
1234.958 1226.58 391.5496 
1184.508 1247.703 402.2664 
1205.016 1249.582 394.3359 
1208.858 1260.688 398.2902 
1202.293 1297.777 398.0843 
1189.226 1179.704 395.3462 
1233.718 1182.457 388.7699 
1195.116 1186.062 396.7399 
1233.059 1196.023 390.4554 
1207.247 1237.513 396.2588 
1211.568 1236.968 394.6589 
1230.526 1249.663 393.2165 
1222.415 1281.628 396.3623 
1187.57 1187.238 396.4823 
1192.667 1224.273 403.1566 
1233.845 1232.319 395.3411 
1204.207 1245.643 397.5541 
1183.561 1254.118 396.0849 
1213.056 1264.637 401.3537 
1228.192 1204.06 396.6564 
1230.073 1217.968 398.0573 
1208.041 1207.262 400.4663 
1221.555 1215.171 401.0841 
1209.022 1244.313 399.2157 
1229.474 1263.55 395.4844 
1223.808 1287.952 399.679 
1193.24 1298.21 400.0429 
1210.931 1299.977 399.4065 
1188.457 1239.856 405.7277 
1204.311 1256.082 398.2205 
1184.438 1264.903 398.2015 
1187.834 1296.873 404.0904 
1195.033 1307.303 402.9764 
1218.209 1301.163 402.2936 
1200.583 1215.637 402.3518 
1208.84 1270.522 402.0813 
1211.309 1219.41 403.7511 
1203.726 1256.219 402.9874 
1184.663 1263.705 404.7953 
1223.749 1292.809 401.9061 
1207.585 1307.19 401.8625 
1202.5 1226.699 406.0328 
1194.368 1235.23 407.6899 
1207.504 1251.572 403.0873 
1228.791 1272.909 398.7396 
1183.92 1288.971 412.8954 
1214.855 1310.038 404.1753 
1192.562 1318.913 406.6274 
1209.543 1314.257 404.2864 
1212.915 1228.206 406.7487 
1219.943 1226.854 404.8326 
1204.053 1265.571 402.8423 
1212.721 1254.439 401.7372 
1204.349 1275.246 404.6921 
1212.416 1274.711 404.3824 
1187.021 1313.635 408.6226 
1187.572 1254.954 409.7942 
1209.696 1257.472 406.7938 
1205.939 1257.162 406.7063 
1212.008 1267.148 409.9539 
1214.349 1270.8 406.1991 
1184.885 1275.477 410.3234 
1207.817 1280.832 405.7242 
1194.597 1328.418 408.5312 
1201.663 1319.064 405.4575 
1196.531 1240.322 410.8267 
1201.294 1275.925 409.2963 
1212.775 1285.534 409.5282 
1202.429 1334.353 409.9943 
1200.447 1234.842 409.2185 
1226.75 1298.093 407.7607 
1212.793 1319.918 407.3047 
1208.578 1234.258 409.5122 
1228.964 1236.264 401.5312 
1214.778 1277.935 411.1157 
1202.692 1283.514 408.2353 
1189.123 1326.442 409.88 
1192.411 1246.991 411.69 
1203.447 1264.502 408.3008 
1207.448 1261.869 409.4466 
1210.274 1271.865 413.9709 
1228.746 1284.509 405.3848 
1210.643 1299.636 412.4279 
1182.02 1297.809 415.92 
1228.778 1307.481 413.457 
1183.496 1302.887 411.4087 
1221.941 1308.856 407.2625 
1219.322 1238.073 409.2892 
1197.507 1245.219 413.4009 
1212.966 1277.318 414.6924 
1204.839 1294.557 411.0359 
1191.357 1339.651 412.8489 
1202.806 1240.25 412.1197 
1206.885 1268.246 412.4335 
1215.444 1288.248 415.8645 
1181.549 1307.624 416.507 
1223.008 1320.237 411.7896 
1213.682 1331.339 411.1989 
1198.358 1349.391 414.1172 
1211.671 1242.866 413.47 
1197.082 1251.07 415.8514 
1226.289 1254.053 412.4743 
1202.984 1272.522 412.837 
1198.767 1291.383 415.3703 
1214.652 1297.381 414.5313 
1182.908 1314.811 414.059 
1191.9 1354.157 417.8934 
1197.404 1357.091 416.7293 
1219.332 1248.869 414.7365 
1229.451 1265.151 414.4339 
1193.923 1259.485 417.7342 
1186.18 1278.45 418.5777 
1212.621 1309.541 416.2838 
1185.229 1345.032 418.0046 
1187.129 1267.701 414.3585 
1230.587 1264.862 406.3341 
1182.399 1293.033 415.7286 
1181.541 1303.756 422.2765 
1197.206 1308.553 417.938 
1230.01 1317.773 416.6141 
1210.009 1318.41 417.1263 
1184.592 1329.037 414.6509 
1213.525 1350.901 417.4248 
1208.624 1344.127 413.7238 
1203.801 1247.549 415.697 
1229.914 1274.393 417.9414 
1207.495 1276.267 416.3458 
1201.875 1281.037 416.2485 
1194.764 1301.476 419.5516 
1216.53 1304.322 421.4747 
1180.612 1319.253 421.4738 
1180.682 1336.121 420.8138 
1203.798 1355.552 416.6527 
1199.29 1360.808 420.3622 
1226.715 1267.097 419.3256 
1212.317 1283.689 419.2114 
1206.873 1324.41 418.7654 
1205.73 1312.319 415.4398 
1226.804 1325.59 415.4034 
1181.526 1346.613 422.2548 
1202.844 1254.753 419.0538 
1212.576 1252.948 418.4337 
1182.766 1293.981 419.8342 
1213.625 1322.848 421.0507 
1220.449 1335.988 415.2912 
1185.951 1354.096 422.7398 
1198.73 1265.854 423.9499 
1221.278 1259.159 419.0666 
1191.053 1270.967 421.8645 
1200.976 1289.223 421.7174 
1233.178 1318.645 421.4395 
1178.059 1340.473 425.7518 
1222.046 1347.314 419.9875 
1208.396 1359.556 420.0228 
1192.441 1360.448 423.6457 
1231.085 1281.661 415.1513 
1229.444 1331.938 420.2527 
1202.45 1338.605 426.2393 
1199.788 1326.502 421.6238 
1207.197 1332.983 422.43 
1215.757 1356.144 420.5296 
1206.612 1283.967 420.933 
1211.661 1288.529 423.2341 
1215.221 1291.961 421.4846 
1219.788 1355.826 423.72 
1213.049 1360.578 422.8072 
1202.146 1260.103 421.9569 
1185.368 1287.259 423.2865 
1207.051 1290.748 425.4219 
1184.76 1296.198 429.3133 
1234.629 1324.864 426.5967 
1192.207 1321.105 425.8806 
1219.323 1318.605 426.7817 
1177.561 1328.787 427.3614 
1212.848 1333.161 423.704 
1180.841 1350.811 427.3701 
1208.635 1258.265 421.8805 
1215.055 1261.997 422.9586 
1196.512 1272.862 427.3548 
1189.998 1279.686 426.755 
1213.622 1296.429 426.0356 
1178.609 1319.554 429.1152 
1175.755 1342.724 431.3791 
1227.002 1346.937 424.5027 
1183.787 1354.532 425.387 
1206.606 1362.768 424.0207 
1207.543 1263.536 424.6015 
1205.339 1269.274 427.5254 
1217.455 1330.816 426.2168 
1211.111 1338.539 427.1331 
1199.129 1362.326 425.9784 
1195.551 1278.004 430.6669 
1220.441 1270.094 425.0269 
1196.2 1298.12 423.9668 
1192.627 1308.461 423.8931 
1232.632 1309.12 420.9113 
1234.604 1313.992 425.601 
1232.103 1337.824 426.1783 
1177.949 1348.962 431.9485 
1193.684 1360.894 426.3953 
1213.151 1267.704 426.3316 
1193.116 1282.595 432.0789 
1189.147 1287.578 430.8639 
1229.387 1286.394 423.8511 
1201.713 1294.205 426.8564 
1181.205 1309.392 431.4842 
1220.69 1326.178 429.876 
1217.451 1333.786 429.8127 
1175.545 1334.877 430.6086 
1207.306 1342.674 429.8279 
1214.032 1360.363 426.8104 
1212.876 1273.174 429.1986 
1203.777 1275.488 431.1586 
1226.151 1278.351 425.0891 
1230.866 1296.122 418.8713 
1216.719 1307.968 431.4578 
1189.168 1321.213 429.9717 
1216.766 1335.683 427.46 
1184.776 1353.296 429.0522 
1221.929 1354.499 429.1357 
1188.402 1356.304 427.5913 
1195.848 1359.88 428.7337 
1206.678 1361.59 428.8136 
1211.942 1277.691 432.1572 
1208.12 1298.129 430.541 
1190.226 1315.194 429.5142 
1173.859 1335.666 435.1489 
1199.818 1299.812 430.7471 
1193.778 1306.402 430.1008 
1229.155 1346.123 429.8258 
1196.204 1355.293 433.2523 
1200.433 1360.138 430.1395 
1199.263 1280.944 433.9317 
1188.391 1300.413 440.1064 
1220.626 1319.461 432.2767 
1205.237 1343.009 428.1124 
1175.323 1346.675 435.4373 
1184.986 1351.276 432.7642 
1219.198 1279.661 430.5342 
1190.525 1292.7 435.5857 
1204.758 1301.9 434.8717 
1177.071 1322.922 431.9722 
1179.028 1347.996 435.4354 
1219.74 1354.881 433.475 
1214.623 1281.145 433.4317 
1224.417 1287.466 430.9083 
1210.968 1303.802 435.4778 
1235.579 1315.778 430.2636 
1204.477 1355.16 435.4583 
1208.209 1281.397 434.6574 
1189.613 1320.095 434.2819 
1218.56 1318.682 438.5321 
1218.837 1327.936 434.2908 
1236.755 1329.412 435.9187 
1234.009 1335.326 432.4052 
1221.36 1351.468 436.3336 
1204.585 1358.488 432.4877 
1214.914 1309.724 439.1516 
1232.577 1306.539 430.6408 
1236.46 1322.957 434.3481 
1173.338 1340.529 438.631 
1202.922 1341.371 430.9081 
1182.197 1346.983 439.9059 
1229.028 1344.988 434.8395 
1224.964 1350.964 433.8975 
1211.066 1353.036 437.4269 
1213.68 1357.462 432.5303 
1202.753 1283.818 436.1563 
1216.752 1285.647 434.6111 
1198.723 1306.423 435.922 
1215.083 1329.355 439.9854 
1231.376 1339.559 437.3008 
1228.146 1343.877 438.7525 
1217.114 1353.353 435.9987 
1226.718 1348.481 435.6078 
1209.89 1358.246 434.8271 
1220.034 1292.655 436.696 
1228.003 1295.608 430.7979 
1235.176 1314.101 435.703 
1177.771 1317.64 436.2205 
1190.805 1326.245 433.9759 
1196.14 1333.937 430.7941 
1210.636 1337.504 433.9201 
1191.329 1348.927 440.1476 
1201.672 1350.502 439.6363 
1208.13 1288.084 437.7857 
1196.663 1286.743 435.7651 
1198.59 1292.907 439.8024 
1174.925 1327.249 436.5713 
1207.13 1334.8 441.0983 
1185.863 1345.223 447.399 
1207.062 1307.528 439.601 
1212.608 1311.155 443.2379 
1234.801 1333.538 439.2507 
1201.175 1337.714 437.2432 
1228.793 1340.681 440.8727 
1201.877 1346.832 446.1966 
1225.199 1347.267 438.1321 
1207.495 1313.14 444.1248 
1192.779 1313.878 436.0605 
1211.245 1329.641 444.5557 
1231.63 1337.667 440.2555 
1218.068 1349.667 439.2559 
1175.542 1345.702 439.8274 
1196.892 1347.949 442.9753 
1199.589 1297.395 444.3526 
1225.071 1300.82 439.707 
1181.042 1310.598 442.7474 
1199.779 1313.858 441.5847 
1216.62 1315.251 444.2692 
1172.495 1333.438 440.458 
1171.508 1336.097 446.8655 
1219.839 1346.203 442.5518 
1211.872 1295.357 442.1761 
1177.23 1343.335 446.587 
1200.575 1335.36 442.3404 
1230.501 1336.954 445.1743 
1218.325 1344.253 446.8282 
1194.095 1346.403 447.04 
1231.679 1309.336 441.1231 
1175.667 1319.554 445.7481 
1192.531 1323.315 443.7987 
1224.628 1342.614 444.188 
1211.641 1347.389 444.1349 
1227.089 1343.742 441.0815 
1173.439 1342.866 443.9899 
1209.713 1299.077 447.2395 
1193.196 1301.096 446.721 
1212.763 1315.566 446.7234 
1172.42 1323.93 450.8068 
1195.224 1326.961 449.444 
1170.963 1329.167 451.1774 
1201.995 1330.632 446.2997 
1197.864 1345.69 450.1769 
1216.267 1322.612 445.8835 
1194.339 1331.938 442.3571 
1173.013 1341.232 447.8078 
1200.595 1300.198 448.2507 
1219.031 1300.287 445.6781 
1216.525 1318.04 448.0993 
1205.252 1321.259 447.0644 
1171.671 1332.921 455.093 
1207.721 1302.825 451.0981 
1181.592 1314.122 452.5149 
1189.46 1325.271 448.7286 
1210.458 1325.993 447.2743 
1172.203 1328.011 445.3955 
1227.017 1339.667 447.4006 
1225.783 1305.282 446.7816 
1175.098 1319.811 453.3192 
1213.807 1319.139 449.0901 
1189.461 1328.155 449.8689 
1190.296 1326.389 450.6315 
1227.133 1338.123 450.9605 
1217.961 1302.998 449.8855 
1187.607 1306.171 448.4778 
1236.803 1325.645 441.1917 
1191.161 1328.78 453.0716 
1222.252 1341.273 449.9846 
1196.824 1304.1 450.9814 
1235.244 1317.457 442.2637 
1213.475 1322.094 448.7937 
1235.07 1329.963 447.0177 
1191.833 1330.524 451.3747 
1174.029 1339.508 452.489 
1207.646 1345.739 448.7473 
1204.759 1307.7 454.9412 
1216.484 1320.308 449.2142 
1202.883 1345.261 451.678 
1173.366 1325.156 456.5292 
1230.627 1334.668 453.0511 
1212.428 1343.96 452.959 
1224.266 1307.487 451.821 
1192.711 1310.073 454.8393 
1188.421 1330.182 453.4305 
1222.859 1338.6 456.5203 
1186.105 1341.775 461.6649 
1193.12 1344.646 455.1081 
1213.381 1342.298 460.6855 
1202.928 1345.079 456.2656 
1216.368 1306.955 454.0706 
1234.654 1328.684 452.68 
1188.912 1329.177 453.8666 
1229.71 1334.933 457.1539 
1174.53 1336.371 459.2704 
1230.609 1312.127 448.9825 
1214.323 1311.976 458.2459 
1234.113 1321.921 451.195 
1206.16 1344.546 460.2858 
1178.513 1319.444 457.6345 
1191.285 1330.9 454.6406 
1225.756 1313.42 455.7777 
1202.198 1313.874 459.2536 
1232.072 1329.041 457.3694 
1188.984 1330.765 454.6141 
1180.177 1341.609 456.1653 
1179.446 1323.745 461.6348 
1174.685 1330.193 461.0565 
1179.144 1337.403 462.9848 
1198.971 1345.179 460.3243 
1222.562 1316.971 461.1543 
1212.671 1317.292 462.2983 
1188.805 1318.43 460.416 
1202.471 1320.951 463.587 
1229.948 1321.499 459.4554 
1226.051 1333.766 460.4435 
1176.007 1333.836 463.1283 
1226.319 1321.987 463.5202 
1193.159 1343.86 461.9698 
1199.808 1342.968 464.0128 
1220.335 1320.341 464.2734 
1185.303 1324.128 463.9755 
1213.399 1323.378 465.4912 
1181.634 1330.672 465.0532 
1208.001 1341.692 463.8225 
1205.351 1327.679 466.3216 
1228.217 1327.592 462.8204 
1214.837 1331.109 466.7899 
1193.312 1327.214 465.5232 
1221.955 1333.362 464.5676 
1216.718 1337.886 464.4359 
1191.71 1340.172 465.8793 
1189.722 1334.476 467.1108 
1218.462 1334.163 466.5909 
1222.167 1325.856 465.6532 
1184.356 1337.307 465.9687 
1202.273 1336.001 466.5227 
3 1 2 8 
3 0 5 26 
3 3 8 9 
3 2 6 8 
3 24 0 26 
3 10 5 16 
3 6 2 17 
3 5 10 26 
3 8 6 23 
3 0 11 34 
3 9 8 23 
3 2 14 30 
3 2 1 14 
3 34 11 52 
3 17 2 30 
3 21 9 23 
3 11 0 35 
3 6 17 18 
3 6 18 23 
3 23 18 36 
3 14 1 32 
3 4 9 21 
3 4 21 22 
3 10 12 22 
3 11 35 52 
3 10 22 25 
3 10 25 26 
3 0 24 35 
3 24 26 35 
3 21 23 25 
3 22 21 25 
3 17 30 31 
3 18 17 31 
3 25 23 36 
3 13 14 32 
3 26 25 40 
3 35 26 40 
3 19 29 34 
3 19 34 41 
3 41 34 52 
3 31 30 73 
3 25 36 47 
3 36 18 37 
3 36 37 47 
3 40 25 44 
3 14 13 38 
3 30 14 38 
3 52 35 54 
3 37 18 39 
3 44 25 47 
3 13 27 38 
3 19 41 59 
3 39 31 43 
3 18 31 39 
3 35 40 46 
3 44 47 48 
3 40 44 46 
3 35 46 55 
3 37 39 56 
3 47 37 56 
3 46 44 48 
3 48 47 57 
3 38 27 50 
3 19 59 62 
3 59 41 77 
3 41 52 77 
3 54 35 55 
3 47 56 57 
3 77 52 104 
3 43 31 73 
3 54 55 72 
3 56 39 60 
3 57 56 68 
3 46 48 66 
3 39 43 60 
3 55 46 66 
3 56 60 67 
3 56 67 68 
3 48 57 68 
3 62 59 76 
3 55 66 91 
3 48 68 80 
3 66 48 80 
3 68 75 80 
3 50 27 61 
3 76 59 77 
3 78 71 82 
3 82 86 97 
3 50 61 69 
3 77 104 124 
3 72 55 107 
3 55 91 107 
3 91 66 115 
3 67 60 74 
3 66 80 115 
3 69 61 122 
3 76 77 129 
3 30 38 73 
3 82 97 126 
3 54 72 191 
3 72 107 191 
3 68 67 75 
3 80 75 100 
3 76 129 162 
3 82 71 86 
3 90 79 105 
3 79 90 134 
3 60 43 92 
3 74 60 92 
3 80 100 115 
3 75 67 84 
3 86 87 97 
3 71 78 89 
3 105 82 126 
3 78 82 105 
3 52 54 114 
3 79 83 105 
3 67 74 93 
3 84 67 93 
3 75 84 94 
3 75 94 100 
3 87 96 97 
3 87 86 88 
3 86 71 88 
3 78 83 98 
3 90 105 134 
3 83 78 105 
3 43 73 139 
3 74 92 99 
3 94 84 103 
3 77 123 129 
3 97 96 112 
3 88 71 102 
3 97 112 147 
3 71 89 102 
3 124 104 131 
3 104 52 114 
3 83 79 134 
3 108 83 134 
3 107 91 135 
3 91 115 135 
3 93 74 99 
3 100 109 115 
3 84 93 103 
3 100 94 143 
3 87 88 113 
3 123 77 124 
3 89 78 106 
3 78 98 106 
3 114 54 191 
3 105 133 134 
3 83 108 116 
3 98 83 116 
3 93 99 153 
3 96 87 112 
3 104 114 131 
3 105 126 133 
3 191 107 221 
3 117 108 134 
3 115 109 152 
3 109 100 159 
3 100 143 159 
3 94 103 121 
3 88 89 113 
3 89 88 102 
3 126 97 147 
3 127 98 138 
3 98 116 138 
3 92 43 139 
3 117 134 142 
3 116 108 117 
3 135 115 152 
3 93 118 119 
3 103 93 119 
3 103 119 120 
3 103 120 121 
3 94 121 143 
3 61 110 122 
3 50 69 122 
3 50 122 130 
3 38 50 130 
3 87 113 125 
3 131 114 191 
3 106 98 127 
3 134 137 142 
3 107 135 221 
3 148 135 152 
3 152 109 159 
3 122 110 130 
3 129 123 190 
3 123 124 228 
3 112 87 147 
3 87 125 147 
3 124 131 228 
3 125 113 132 
3 113 89 132 
3 89 106 132 
3 131 191 230 
3 133 126 147 
3 134 133 137 
3 116 117 136 
3 117 142 166 
3 136 117 166 
3 143 121 154 
3 162 129 190 
3 228 131 230 
3 132 106 151 
3 137 133 147 
3 142 137 165 
3 116 136 140 
3 99 141 153 
3 118 93 153 
3 119 118 144 
3 120 119 144 
3 120 144 156 
3 121 120 156 
3 154 121 156 
3 38 130 173 
3 145 146 167 
3 73 38 173 
3 190 123 228 
3 125 132 147 
3 132 137 147 
3 106 127 151 
3 138 116 140 
3 99 92 186 
3 142 165 176 
3 141 99 186 
3 166 142 176 
3 143 154 159 
3 130 110 173 
3 150 145 161 
3 161 145 167 
3 137 132 164 
3 127 138 151 
3 92 139 186 
3 135 148 222 
3 166 176 193 
3 136 166 168 
3 152 159 233 
3 144 155 156 
3 154 156 182 
3 157 150 161 
3 132 151 164 
3 151 138 164 
3 138 140 158 
3 221 135 222 
3 176 165 192 
3 140 136 168 
3 148 152 179 
3 168 166 180 
3 159 154 170 
3 170 154 182 
3 156 171 182 
3 156 155 171 
3 110 149 173 
3 160 73 173 
3 167 146 174 
3 138 158 164 
3 137 164 165 
3 165 164 185 
3 148 179 196 
3 118 153 169 
3 179 152 233 
3 180 166 193 
3 144 118 181 
3 159 170 233 
3 157 161 202 
3 184 172 188 
3 172 162 188 
3 188 162 190 
3 202 161 203 
3 161 167 203 
3 139 73 163 
3 148 196 222 
3 118 169 239 
3 181 118 239 
3 155 144 181 
3 171 155 183 
3 182 171 187 
3 167 174 203 
3 164 175 185 
3 164 158 175 
3 158 140 175 
3 175 140 232 
3 153 141 177 
3 176 192 193 
3 169 153 177 
3 178 168 180 
3 180 193 224 
3 233 170 246 
3 170 208 246 
3 170 182 208 
3 182 187 208 
3 171 183 201 
3 173 149 210 
3 149 157 210 
3 163 160 173 
3 157 202 210 
3 184 188 189 
3 73 160 163 
3 174 184 189 
3 174 194 203 
3 165 185 204 
3 192 165 204 
3 177 141 186 
3 140 168 232 
3 168 178 232 
3 197 180 224 
3 163 173 210 
3 174 189 194 
3 188 190 228 
3 203 194 212 
3 185 175 204 
3 178 180 197 
3 207 197 224 
3 233 246 337 
3 187 171 209 
3 171 201 209 
3 202 203 229 
3 191 221 230 
3 193 192 204 
3 169 205 239 
3 155 181 198 
3 183 155 198 
3 208 187 234 
3 183 198 199 
3 187 209 234 
3 183 199 201 
3 210 202 227 
3 194 189 211 
3 203 212 229 
3 212 194 220 
3 214 221 222 
3 204 175 216 
3 216 175 232 
3 177 186 205 
3 193 204 238 
3 222 196 237 
3 196 179 237 
3 169 177 205 
3 178 197 206 
3 207 224 251 
3 198 181 252 
3 201 200 209 
3 209 200 219 
3 189 188 228 
3 227 202 229 
3 139 163 195 
3 194 211 220 
3 213 195 235 
3 139 195 213 
3 212 213 229 
3 212 220 243 
3 186 139 213 
3 186 213 215 
3 205 186 215 
3 224 193 238 
3 246 208 266 
3 208 234 266 
3 209 217 234 
3 217 209 219 
3 200 201 218 
3 200 218 226 
3 163 210 227 
3 195 163 235 
3 213 212 243 
3 230 221 241 
3 213 243 256 
3 221 214 242 
3 242 214 295 
3 204 216 231 
3 204 231 238 
3 214 222 237 
3 205 223 239 
3 181 239 252 
3 197 207 225 
3 206 197 225 
3 225 207 251 
3 201 199 218 
3 219 200 226 
3 217 219 226 
3 227 229 235 
3 211 189 228 
3 229 213 235 
3 243 220 244 
3 241 221 242 
3 231 216 232 
3 178 206 274 
3 224 238 251 
3 225 251 273 
3 266 234 303 
3 234 217 247 
3 163 227 235 
3 211 228 230 
3 220 211 241 
3 211 230 241 
3 220 241 244 
3 215 213 236 
3 236 213 256 
3 214 237 295 
3 237 179 295 
3 179 233 295 
3 295 233 337 
3 206 225 240 
3 257 225 273 
3 234 247 303 
3 199 198 218 
3 247 217 261 
3 217 226 249 
3 241 242 244 
3 215 236 250 
3 238 231 245 
3 231 232 245 
3 232 178 274 
3 206 240 274 
3 226 218 248 
3 243 244 258 
3 205 215 223 
3 245 232 274 
3 251 259 273 
3 246 266 337 
3 240 225 257 
3 217 249 255 
3 217 255 261 
3 249 226 262 
3 226 248 254 
3 226 254 262 
3 256 243 258 
3 244 242 295 
3 250 236 264 
3 198 252 260 
3 257 273 275 
3 247 261 303 
3 218 198 253 
3 248 218 253 
3 255 249 262 
3 236 256 263 
3 258 244 272 
3 272 244 295 
3 236 263 264 
3 223 215 250 
3 239 223 260 
3 251 238 259 
3 252 239 260 
3 240 257 276 
3 257 275 284 
3 276 257 284 
3 261 255 292 
3 255 262 268 
3 256 258 263 
3 263 258 271 
3 271 258 272 
3 265 245 274 
3 259 238 265 
3 238 245 265 
3 288 273 300 
3 275 273 288 
3 284 275 297 
3 248 253 254 
3 262 254 286 
3 270 262 286 
3 273 259 300 
3 240 276 282 
3 253 198 267 
3 261 292 303 
3 268 262 270 
3 254 269 286 
3 271 272 309 
3 263 271 294 
3 259 280 300 
3 274 240 282 
3 275 288 297 
3 254 253 277 
3 269 254 277 
3 255 268 308 
3 292 255 308 
3 294 271 309 
3 223 250 278 
3 259 265 280 
3 265 274 279 
3 260 223 278 
3 265 279 280 
3 279 274 281 
3 282 276 289 
3 267 198 283 
3 276 284 289 
3 268 270 293 
3 269 285 286 
3 270 286 293 
3 291 263 294 
3 264 263 291 
3 272 295 309 
3 264 287 299 
3 250 264 299 
3 278 250 299 
3 281 274 282 
3 282 289 296 
3 284 297 312 
3 289 284 312 
3 268 293 308 
3 286 290 293 
3 287 264 291 
3 198 260 283 
3 288 300 324 
3 281 282 296 
3 253 267 307 
3 277 253 307 
3 286 285 290 
3 287 291 314 
3 323 295 337 
3 281 296 311 
3 266 303 337 
3 297 288 325 
3 267 305 307 
3 303 292 436 
3 292 306 436 
3 306 292 308 
3 308 293 318 
3 318 293 319 
3 285 269 298 
3 293 290 319 
3 291 294 314 
3 314 294 321 
3 309 295 323 
3 300 280 301 
3 280 279 301 
3 279 281 301 
3 302 281 311 
3 312 297 325 
3 304 289 312 
3 269 277 298 
3 294 309 321 
3 310 287 314 
3 299 287 310 
3 309 323 330 
3 278 299 332 
3 260 278 336 
3 278 332 336 
3 300 301 315 
3 300 315 324 
3 325 288 349 
3 304 312 359 
3 306 308 318 
3 285 298 313 
3 290 285 313 
3 321 309 330 
3 331 323 337 
3 301 281 315 
3 283 260 336 
3 288 324 349 
3 296 289 316 
3 316 289 326 
3 289 304 326 
3 326 304 334 
3 307 305 317 
3 334 304 359 
3 290 313 320 
3 299 310 322 
3 330 323 369 
3 305 267 338 
3 312 325 340 
3 312 340 359 
3 277 307 327 
3 306 318 341 
3 341 318 360 
3 360 318 366 
3 298 277 343 
3 290 320 345 
3 319 290 345 
3 345 320 354 
3 310 314 346 
3 314 321 346 
3 322 310 346 
3 299 322 332 
3 323 356 369 
3 323 331 356 
3 331 337 347 
3 281 302 315 
3 337 303 377 
3 311 296 316 
3 307 317 327 
3 306 341 417 
3 277 327 343 
3 318 319 366 
3 313 298 343 
3 319 345 366 
3 320 313 328 
3 320 328 329 
3 320 329 354 
3 346 321 363 
3 321 330 363 
3 363 330 369 
3 324 315 348 
3 324 348 349 
3 267 283 333 
3 325 349 371 
3 359 340 380 
3 335 313 343 
3 328 313 335 
3 331 347 356 
3 315 302 348 
3 347 337 377 
3 377 303 436 
3 316 326 351 
3 340 325 350 
3 327 317 352 
3 342 334 359 
3 345 344 366 
3 344 345 354 
3 329 328 355 
3 333 283 336 
3 302 311 348 
3 311 316 357 
3 305 338 364 
3 316 351 385 
3 317 305 339 
3 340 350 416 
3 326 334 351 
3 306 417 436 
3 358 359 380 
3 358 342 359 
3 343 327 352 
3 335 343 353 
3 354 329 355 
3 332 322 362 
3 322 346 362 
3 348 311 357 
3 267 333 389 
3 364 267 389 
3 338 267 364 
3 350 415 416 
3 317 339 352 
3 366 344 374 
3 335 353 361 
3 374 344 382 
3 344 354 375 
3 354 355 375 
3 362 346 363 
3 362 363 398 
3 363 369 399 
3 356 347 435 
3 349 348 383 
3 357 316 385 
3 350 325 415 
3 339 305 364 
3 380 340 393 
3 334 342 365 
3 341 360 378 
3 343 352 353 
3 360 366 378 
3 366 374 378 
3 328 335 367 
3 344 375 382 
3 332 362 388 
3 398 363 399 
3 368 332 388 
3 336 332 370 
3 333 336 370 
3 371 349 383 
3 348 357 383 
3 341 372 417 
3 417 372 418 
3 342 358 365 
3 372 341 378 
3 358 380 381 
3 361 353 373 
3 378 374 405 
3 335 361 367 
3 328 367 376 
3 355 328 376 
3 388 362 398 
3 399 369 414 
3 332 368 370 
3 369 356 414 
3 414 356 435 
3 347 425 435 
3 347 377 425 
3 384 357 385 
3 393 340 416 
3 351 334 365 
3 365 358 381 
3 380 379 381 
3 374 386 405 
3 382 375 387 
3 374 382 386 
3 375 355 407 
3 387 375 407 
3 333 370 401 
3 389 333 401 
3 371 383 390 
3 383 357 384 
3 425 377 436 
3 372 392 418 
3 372 378 392 
3 379 380 503 
3 361 373 397 
3 388 398 408 
3 368 388 408 
3 398 399 408 
3 383 384 390 
3 325 371 415 
3 339 364 391 
3 393 416 447 
3 438 393 447 
3 351 365 394 
3 395 352 403 
3 353 352 395 
3 365 396 410 
3 394 365 410 
3 365 381 396 
3 392 378 419 
3 373 353 395 
3 396 381 411 
3 367 361 397 
3 386 382 387 
3 407 355 412 
3 370 368 400 
3 399 414 422 
3 370 400 401 
3 415 371 426 
3 385 351 402 
3 352 339 427 
3 418 392 469 
3 380 393 503 
3 381 379 411 
3 397 373 404 
3 378 405 419 
3 367 397 406 
3 387 407 432 
3 355 376 412 
3 368 408 409 
3 400 368 409 
3 408 399 422 
3 414 435 460 
3 393 438 502 
3 410 396 411 
3 419 405 451 
3 386 387 432 
3 386 432 441 
3 412 376 421 
3 407 412 444 
3 432 407 444 
3 401 400 413 
3 389 401 424 
3 391 389 424 
3 364 389 391 
3 371 390 426 
3 384 385 402 
3 425 436 499 
3 393 502 503 
3 410 411 439 
3 411 379 457 
3 431 411 457 
3 419 451 476 
3 397 404 420 
3 405 386 441 
3 400 409 434 
3 409 408 422 
3 422 414 433 
3 433 414 460 
3 401 423 424 
3 390 384 402 
3 339 391 427 
3 416 415 450 
3 436 417 480 
3 417 418 480 
3 447 416 450 
3 418 469 480 
3 403 352 427 
3 394 410 428 
3 428 410 429 
3 429 410 439 
3 392 419 476 
3 373 395 430 
3 404 373 430 
3 412 421 443 
3 409 433 434 
3 409 422 433 
3 413 400 434 
3 460 435 467 
3 435 425 467 
3 426 390 446 
3 390 402 446 
3 467 425 499 
3 351 394 437 
3 469 392 481 
3 392 476 481 
3 457 379 483 
3 405 441 451 
3 434 433 445 
3 445 433 460 
3 401 413 423 
3 415 426 449 
3 402 437 446 
3 402 351 437 
3 436 480 499 
3 437 394 456 
3 403 427 501 
3 438 447 472 
3 438 472 502 
3 476 475 481 
3 404 430 448 
3 411 429 439 
3 434 445 471 
3 391 424 461 
3 426 446 449 
3 415 449 450 
3 463 403 501 
3 395 403 463 
3 475 476 515 
3 483 379 503 
3 411 431 504 
3 451 441 486 
3 444 412 453 
3 412 443 453 
3 441 432 488 
3 432 444 488 
3 445 466 471 
3 413 434 454 
3 423 413 454 
3 445 460 466 
3 460 467 490 
3 450 449 491 
3 427 391 455 
3 447 450 521 
3 480 469 500 
3 472 447 521 
3 394 428 456 
3 430 395 510 
3 404 448 482 
3 429 411 504 
3 420 404 458 
3 476 451 485 
3 485 451 486 
3 454 434 471 
3 455 391 461 
3 449 446 462 
3 462 446 468 
3 446 437 468 
3 395 463 510 
3 428 429 474 
3 431 483 504 
3 431 457 483 
3 444 453 478 
3 444 478 488 
3 466 460 490 
3 449 462 491 
3 465 441 488 
3 441 465 486 
3 454 471 489 
3 471 466 490 
3 423 454 508 
3 424 423 508 
3 490 467 498 
3 498 467 499 
3 480 500 541 
3 437 456 473 
3 469 481 500 
3 456 428 474 
3 448 430 510 
3 483 503 516 
3 458 404 482 
3 476 485 493 
3 488 478 497 
3 454 489 508 
3 471 490 507 
3 462 468 513 
3 468 479 513 
3 468 437 479 
3 499 480 528 
3 437 473 479 
3 473 456 474 
3 475 515 578 
3 481 475 578 
3 474 429 504 
3 476 493 515 
3 458 482 525 
3 485 486 496 
3 489 471 507 
3 461 424 508 
3 490 498 507 
3 528 480 541 
3 450 491 521 
3 492 474 504 
3 504 483 516 
3 493 485 494 
3 494 485 519 
3 485 496 519 
3 489 507 508 
3 491 462 513 
3 473 474 492 
3 516 503 557 
3 461 508 509 
3 455 461 509 
3 498 499 528 
3 427 455 529 
3 501 427 529 
3 463 501 510 
3 500 481 582 
3 448 510 532 
3 503 502 557 
3 492 504 511 
3 482 448 532 
3 511 504 516 
3 508 507 509 
3 509 507 535 
3 507 498 535 
3 514 479 531 
3 479 473 531 
3 510 501 542 
3 481 578 582 
3 493 517 523 
3 515 493 523 
3 493 494 517 
3 498 528 535 
3 513 479 514 
3 513 514 520 
3 521 491 530 
3 491 513 530 
3 513 520 530 
3 541 500 582 
3 578 515 584 
3 492 511 522 
3 537 516 557 
3 515 523 538 
3 527 509 535 
3 455 509 527 
3 501 529 542 
3 472 521 543 
3 521 530 543 
3 473 492 556 
3 532 510 568 
3 502 472 543 
3 502 543 557 
3 492 522 556 
3 482 532 533 
3 511 516 537 
3 525 482 547 
3 517 494 546 
3 544 517 546 
3 455 527 549 
3 528 541 570 
3 556 522 567 
3 548 535 560 
3 535 528 560 
3 520 514 550 
3 514 531 550 
3 530 520 562 
3 511 537 554 
3 522 511 554 
3 515 538 584 
3 523 517 538 
3 527 535 548 
3 527 548 559 
3 549 527 559 
3 543 530 562 
3 520 550 562 
3 531 473 556 
3 510 542 568 
3 552 543 562 
3 557 543 573 
3 554 537 557 
3 554 557 585 
3 522 554 567 
3 538 517 544 
3 482 533 547 
3 529 455 577 
3 455 549 577 
3 570 541 607 
3 541 582 607 
3 542 551 568 
3 582 578 609 
3 553 533 568 
3 533 532 568 
3 538 569 575 
3 538 544 569 
3 547 533 558 
3 559 548 564 
3 548 560 576 
3 560 528 570 
3 543 566 573 
3 554 552 562 
3 552 554 585 
3 584 538 592 
3 549 559 581 
3 577 549 581 
3 531 556 561 
3 543 552 574 
3 557 573 585 
3 533 553 563 
3 558 533 586 
3 564 548 576 
3 559 564 581 
3 560 570 576 
3 542 529 565 
3 550 531 561 
3 566 543 574 
3 562 550 572 
3 550 561 572 
3 561 556 589 
3 554 562 567 
3 567 562 583 
3 556 567 583 
3 576 570 594 
3 542 565 571 
3 551 542 571 
3 573 566 574 
3 562 572 583 
3 556 583 589 
3 551 553 568 
3 585 573 596 
3 533 563 586 
3 581 564 588 
3 564 576 602 
3 565 529 577 
3 594 570 607 
3 572 561 589 
3 551 571 591 
3 573 574 604 
3 579 552 585 
3 588 564 602 
3 576 594 602 
3 574 552 579 
3 553 551 591 
3 578 584 609 
3 584 592 603 
3 577 581 595 
3 581 588 595 
3 607 582 609 
3 583 572 589 
3 584 603 609 
3 538 575 592 
3 588 608 614 
3 588 602 608 
3 607 609 613 
3 574 579 604 
3 579 585 612 
3 595 588 614 
3 565 577 595 
3 596 573 604 
3 603 592 615 
3 586 563 606 
3 602 594 613 
3 594 607 613 
3 565 595 624 
3 571 565 611 
3 591 571 611 
3 596 604 616 
3 604 579 612 
3 586 606 617 
3 608 602 613 
3 595 614 624 
3 614 608 623 
3 613 609 626 
3 609 603 615 
3 585 596 616 
3 612 585 616 
3 592 605 615 
3 611 565 624 
3 563 591 619 
3 563 553 591 
3 615 605 627 
3 608 622 623 
3 618 611 624 
3 609 615 626 
3 604 612 616 
3 608 613 622 
3 591 611 618 
3 624 614 625 
3 614 623 625 
3 622 613 626 
3 626 615 638 
3 615 627 638 
3 606 563 619 
3 617 606 620 
3 598 617 620 
3 622 626 629 
3 591 618 619 
3 606 619 628 
3 618 624 633 
3 623 622 632 
3 624 625 640 
3 623 632 634 
3 625 623 634 
3 620 606 628 
3 600 610 636 
3 622 629 632 
3 633 624 640 
3 625 637 640 
3 629 626 638 
3 600 636 642 
3 621 630 631 
3 610 621 631 
3 619 618 635 
3 618 633 635 
3 625 634 637 
3 628 619 635 
3 638 627 641 
3 598 620 647 
3 635 633 640 
3 610 631 636 
3 632 629 646 
3 634 632 646 
3 635 640 644 
3 620 628 635 
3 640 637 648 
3 630 598 643 
3 636 631 648 
3 637 634 639 
3 637 639 648 
3 629 638 646 
3 638 641 646 
3 620 635 647 
3 642 636 648 
3 631 630 643 
3 631 643 648 
3 639 634 646 
3 635 644 647 
3 644 640 648 
3 639 642 648 
3 642 639 645 
3 639 641 645 
3 641 639 646 
3 643 644 648 
3 641 642 645 
3 643 598 647 
3 644 643 647 
3 376 367 442 
3 367 406 442 
3 421 376 442 
3 406 397 442 
3 397 440 442 
3 421 442 443 
3 440 397 459 
3 443 442 452 
3 397 420 459 
3 442 440 459 
3 443 452 453 
3 459 420 464 
3 452 442 459 
3 453 452 478 
3 420 458 464 
3 452 459 505 
3 465 488 495 
3 477 465 495 
3 465 477 486 
3 478 470 497 
3 459 464 484 
3 459 484 505 
3 452 505 506 
3 452 470 478 
3 486 477 519 
3 470 487 497 
3 464 458 525 
3 470 452 506 
3 496 486 519 
3 487 470 506 
3 488 487 495 
3 487 488 497 
3 505 484 512 
3 506 505 526 
3 495 487 524 
3 477 495 524 
3 484 464 525 
3 524 487 545 
3 519 477 524 
3 506 518 545 
3 487 506 545 
3 534 524 545 
3 519 524 534 
3 539 534 545 
3 536 525 547 
3 484 525 536 
3 494 519 546 
3 505 512 540 
3 526 505 540 
3 518 526 540 
3 519 534 544 
3 519 544 546 
3 518 506 526 
3 512 484 536 
3 539 545 593 
3 534 539 544 
3 518 540 555 
3 518 555 590 
3 545 518 587 
3 587 518 590 
3 536 547 558 
3 580 539 593 
3 544 539 580 
3 569 544 580 
3 575 569 580 
3 512 536 617 
3 545 587 593 
3 575 580 597 
3 536 558 586 
3 599 512 617 
3 540 512 599 
3 580 593 597 
3 536 586 617 
3 590 555 599 
3 555 540 599 
3 587 590 593 
3 592 575 597 
3 598 599 617 
3 590 599 601 
3 593 590 601 
3 597 593 600 
3 592 597 605 
3 601 599 621 
3 593 601 610 
3 605 597 627 
3 621 599 630 
3 610 601 621 
3 600 593 610 
3 627 597 642 
3 599 598 630 
3 597 600 642 
3 641 627 642 
3 7 1 8 
3 4 3 9 
3 3 7 8 
3 3 4 7 
3 16 5 34 
3 5 0 34 
3 7 4 15 
3 1 7 32 
3 28 16 34 
3 20 4 22 
3 20 12 28 
3 12 20 22 
3 12 16 28 
3 29 28 34 
3 7 15 33 
3 28 29 42 
3 32 7 33 
3 15 4 20 
3 20 28 45 
3 13 32 33 
3 28 42 45 
3 33 15 49 
3 15 20 51 
3 20 45 51 
3 27 13 53 
3 49 15 51 
3 13 33 53 
3 29 19 62 
3 42 29 62 
3 51 45 95 
3 33 49 58 
3 53 33 58 
3 45 42 95 
3 27 53 61 
3 53 58 61 
3 58 49 65 
3 42 62 63 
3 42 70 95 
3 61 58 64 
3 63 62 76 
3 49 51 65 
3 65 51 95 
3 64 58 85 
3 63 76 162 
3 70 42 81 
3 42 63 81 
3 58 65 85 
3 85 65 128 
3 65 95 101 
3 61 64 111 
3 64 85 111 
3 95 70 101 
3 81 63 172 
3 63 162 172 
3 70 81 101 
3 110 61 111 
3 65 101 128 
3 85 128 150 
3 145 101 146 
3 101 81 146 
3 85 110 111 
3 146 81 174 
3 81 172 174 
3 110 85 149 
3 85 150 157 
3 149 85 157 
3 174 172 184 
3 12 10 16 
3 128 101 145 
3 128 145 150 
