ply
format ascii 1.0
comment VCGLIB generated
element vertex 560
property float x
property float y
property float z
element face 1112
property list uchar int vertex_indices
end_header
1209.611 1007.536 301.5166 
1208.396 1006.451 301.9597 
1225.931 1009.302 302.3566 
1220.478 1010.386 302.8828 
1208.165 1009.941 303.6721 
1229.554 1006.091 303.2793 
1209.366 1003.434 303.3613 
1226.178 1003.489 303.5535 
1232.931 1012.253 304.7662 
1233.526 997.1556 306.6562 
1230.841 999.7756 304.445 
1213.041 1009.192 303.1002 
1234.973 1003.873 306.4852 
1204.245 1003.424 305.901 
1216.184 1024.323 306.065 
1227.014 1016.758 303.8875 
1219.291 1002.813 304.0514 
1200.035 1005.012 310.1304 
1207.812 997.568 306.9381 
1203 1017.904 309.0224 
1227.931 1028.007 306.5864 
1202.295 998.267 308.7636 
1204.159 993.9408 310.7573 
1212.183 992.601 310.4661 
1229.072 995.7457 307.5977 
1199.399 998.1937 315.9764 
1217.148 996.7566 306.8298 
1233.365 1021.132 306.5747 
1236.324 1012.751 307.4848 
1205.614 989.855 315.4384 
1196.453 1012.772 316.8199 
1226.827 1039.404 310.0199 
1237.204 997.5328 310.9823 
1234.449 1031.423 310.2796 
1197.402 1038.951 316.8623 
1206.699 1036.338 310.8558 
1233.819 990.8168 313.2863 
1215.61 988.4455 314.921 
1221.029 1003.594 316.9414 
1216.366 1046.495 311.4702 
1223.571 1005.737 318.3888 
1220.068 1005.733 316.01 
1205.969 1054.018 315.0397 
1209.633 985.3089 318.5466 
1223.522 990.9766 311.7544 
1217.04 1003.444 317.9897 
1238.015 1020.055 310.8598 
1193.421 1036.595 321.8527 
1217.137 1065.957 316.6702 
1204.866 986.7554 320.3971 
1215.131 986.2836 317.721 
1229.381 987.8395 317.31 
1222.428 1007.355 316.5389 
1193.932 1026.47 320.2841 
1227.803 1054.673 314.8639 
1196.604 1002.341 322.5636 
1239.435 1008.301 312.1197 
1195.772 1006.316 320.3014 
1223.02 988.2009 315.3114 
1221.197 986.4688 319.3894 
1215.086 999.3071 320.6364 
1219.854 1002.31 320.4261 
1219.293 1012.043 317.43 
1222.124 1022.799 319.1039 
1194.056 1020.077 324.2268 
1215.066 1024.528 320.5732 
1221.267 1033.084 321.2816 
1240.399 1029.291 316.2471 
1236.765 1044.429 315.748 
1205.836 1074.916 319.9685 
1235.34 989.0853 318.7505 
1196.495 1003.545 317.9264 
1213.887 1009.232 319.9063 
1195.652 1011.493 326.4672 
1224.854 1014.044 318.9938 
1199.264 1061.559 318.9335 
1207.226 984.3806 322.6584 
1214.876 985.0696 320.3743 
1242.768 1012.395 319.4726 
1227.237 1017.233 322.3842 
1193.462 1033.082 327.9377 
1243.214 1040.778 323.0825 
1237.676 1058.656 320.5863 
1213.992 1083.086 320.9839 
1238.854 993.0704 317.4792 
1241.137 1001.158 316.5737 
1226.135 1027.685 321.9528 
1222.266 1078.351 320.3302 
1211.335 983.8228 322.9359 
1233.338 987.209 321.4702 
1241.017 1017.895 315.475 
1242.302 1021.509 318.5531 
1226.688 1024.247 325.0399 
1215.805 1042.731 324.0565 
1222.907 1042.61 325.4938 
1228.866 986.97 323.4977 
1213.139 999.0349 321.9702 
1224.72 1008.496 321.6932 
1210.58 1033.891 323.39 
1242.126 1050.085 320.7688 
1229.271 1068.659 319.6768 
1213.286 1001.09 320.3616 
1210.192 1026.465 323.3827 
1195.235 1062.774 322.5662 
1219.711 1091.855 324.1056 
1205.492 987.145 328.3701 
1198.554 997.1356 325.4627 
1220.222 1006.575 324.7665 
1218.954 1055.092 327.1072 
1198.467 1080.932 324.1856 
1207.739 1100.645 327.0435 
1201.734 991.3538 323.4247 
1212.372 1015.851 323.7425 
1224.891 1013.972 325.2537 
1223.164 1020.186 327.3588 
1209.348 1029.461 324.9707 
1211.135 1044.394 326.4191 
1226.141 1032.86 324.98 
1222.453 1059.083 329.4531 
1236.748 1072.348 326.0259 
1229.036 1082.646 324.2034 
1212.364 983.2824 326.0081 
1209.113 983.6915 325.4746 
1217.318 984.6606 325.3261 
1222.978 985.5205 324.2509 
1215.461 1001.348 323.3179 
1214.132 1015.976 327.7586 
1243.407 1025.358 322.4565 
1221.904 1032.098 327.5675 
1219.215 1066.091 329.933 
1242.531 1001.571 323.9361 
1224.611 987.9601 327.496 
1232.275 991.8427 329.0851 
1212.731 1004.138 322.8531 
1214.934 1008.863 326.3182 
1218.966 1013.164 328.058 
1217.893 1020.086 328.3627 
1208.602 1030.892 324.1592 
1244.544 1048.971 323.3778 
1243.328 1054.593 324.6118 
1218.769 1104.138 327.7306 
1244.487 1009.17 331.3253 
1215.219 1012.644 328.9133 
1213.419 1026.491 326.5265 
1210.444 1035.675 326.3334 
1193.278 1084.853 330.173 
1226.549 1097.025 327.7495 
1237.133 991.4014 323.9755 
1201.661 995.0138 333.5107 
1245.293 1018.846 331.2169 
1244.583 1015.86 326.7689 
1215.721 1039.577 329.2997 
1213.197 1061.792 330.6671 
1241.174 1062.336 326.7002 
1217.495 1079.498 333.6974 
1238.45 1077.323 330.7257 
1234.59 1087.875 331.4195 
1243.65 1028.979 330.8651 
1223.298 1064.915 333.1147 
1193.158 1054.422 328.0282 
1224.096 1108.072 330.3208 
1197.364 1099.839 329.5487 
1211.692 985.8055 330.4789 
1225.961 992.0212 332.0868 
1212.191 1049.043 330.5017 
1222.419 1072.234 332.5977 
1191.269 1081.805 338.3986 
1194.171 1111.379 334.9016 
1197.848 1004.086 331.4439 
1194.954 1022.679 331.2834 
1244.622 1049.31 326.7293 
1220.751 1050.891 331.1346 
1199.9 1114.902 332.7608 
1217.176 1114.568 331.3713 
1215.874 1015.011 329.2905 
1215.796 1048.5 331.8346 
1243.05 1056.273 330.2957 
1240.375 1068.476 332.2151 
1220.1 1089.374 336.5361 
1226.552 1114.649 335.006 
1232.049 998.8878 334.8843 
1240.042 998.59 330.917 
1244.174 1018.704 333.9597 
1229.886 1103.06 332.4117 
1198.532 1017.027 338.2718 
1222.205 1082.349 335.1927 
1219.26 1123.452 335.2436 
1218.975 988.7112 331.5058 
1221.438 996.7826 337.3197 
1235.675 1009.64 337.5636 
1232.26 1018.339 339.3357 
1243.191 1045.309 331.3882 
1194.708 1045.426 335.0064 
1215.516 1059.18 334.5903 
1220.982 1064.752 335.309 
1222.712 1076.92 336.5302 
1219.548 1096.876 340.0241 
1190.397 1105.416 339.184 
1208.586 1123.778 334.5697 
1239.509 1003.27 335.4556 
1242.998 1004.265 334.0604 
1200.605 1004.811 340.1136 
1239.362 1022.527 337.0869 
1196.707 1032.746 337.0081 
1239.666 1039.075 336.9899 
1211.751 1060.23 333.578 
1189.271 1097.184 340.8758 
1222.312 1087.932 337.9156 
1217.078 1131.782 338.3486 
1214.492 990.4771 336.4877 
1203.494 1006.544 346.3342 
1227.383 1008.333 339.0327 
1194.52 1061.012 338.8419 
1238.613 1078.933 334.4499 
1214.966 1093.407 337.9743 
1198.653 1127.808 337.6665 
1208.127 990.8575 337.8277 
1219.068 1009.775 342.7399 
1201.062 1011.451 343.7563 
1225.869 1021.925 341.5202 
1233.342 1031.719 340.2711 
1210.284 1084.446 337.4739 
1231.194 1118.323 340.2343 
1225.875 1125.397 338.6497 
1204.919 997.2918 343.2669 
1242.167 1010.831 335.737 
1234.652 1049.336 341.676 
1200.937 1048.297 342.5259 
1218.043 1074.246 338.5342 
1203.195 1030.163 343.2523 
1214.349 1086.359 342.5687 
1236.787 1084.57 339.2578 
1220.181 1089.149 341.3042 
1188.751 1107.511 345.1749 
1214.857 1102.839 340.9299 
1217.906 1107.387 343.3131 
1188.883 1125.165 348.4423 
1192.653 1130.297 342.2117 
1206.605 1137.229 339.7619 
1208.555 993.9702 343.6607 
1218.055 1025.238 344.2339 
1225.803 1040.108 343.7442 
1240.08 1056.964 337.0166 
1238.856 1072.838 338.6438 
1189.606 1095.767 344.6265 
1231.249 1129.44 344.3466 
1224.864 1134.64 341.7923 
1216.574 1141.26 341.9836 
1214.156 1015.73 345.9093 
1198.667 1063.423 345.147 
1212.008 1073.143 337.3645 
1206.61 1091.606 340.6222 
1216.028 1117.864 346.5999 
1198.55 1139.794 341.8879 
1213.352 997.3354 343.1731 
1213.711 1041.252 345.325 
1194.329 1074.47 344.5652 
1216.859 1100.792 347.6121 
1206.166 1093.3 341.4966 
1219.906 1101.168 343.9341 
1207.591 1114.501 346.5608 
1233.998 1119.517 345.4519 
1212.511 1111.437 343.6644 
1219.474 1150.065 345.4081 
1208.945 997.2017 346.4334 
1222.686 1050.107 346.1446 
1199.466 1073.479 349.24 
1195.492 1081.893 349.765 
1189.201 1116.107 353.394 
1224.144 1142.216 344.0078 
1195.731 1147.971 345.4684 
1206.416 1151.545 344.7821 
1207.306 1002.369 348.4065 
1213.432 1007.146 346.8836 
1204.043 1016.382 346.1617 
1210.114 1023.815 346.0152 
1209.407 1055.956 347.1588 
1202.948 1058.078 346.0967 
1236.973 1077.412 342.5741 
1192.055 1087.006 346.7493 
1208.495 1088.983 341.3963 
1233.649 1103.51 341.2403 
1208.898 1099.23 342.4627 
1211.004 1097.256 346.2047 
1219.053 1111.006 347.6832 
1210.468 1121.526 346.5515 
1211.09 1001.548 347.9615 
1228.929 1060.636 346.4532 
1236.161 1067.058 342.9724 
1197.551 1163.328 348.798 
1209.724 1013.378 348.1386 
1219.563 1058.121 348.2669 
1204.95 1065.111 348.6892 
1208.841 1128.794 349.5059 
1229.078 1140.625 345.9325 
1190.136 1151.281 350.9505 
1216.023 1161.94 347.9528 
1206.612 1009.147 349.0815 
1201.653 1083.221 354.2957 
1207.311 1167.559 348.7546 
1192.854 1166.971 351.4768 
1202.362 1174.021 350.6741 
1196.829 1174.489 352.3241 
1209.962 1006.664 349.2834 
1214.086 1066.855 350.721 
1212.505 1103.43 350.2035 
1189.382 1105.878 349.8143 
1218.15 1113.091 352.5858 
1205.85 1123.008 349.2461 
1213.481 1127.007 349.078 
1217.497 1125.507 353.8698 
1226.259 1148.019 346.6559 
1209.146 1176.354 351.3594 
1214.708 1172.404 350.4167 
1207.371 1073.665 352.2996 
1208.104 1109.816 350.9517 
1214.001 1109.943 354.359 
1191.271 1099.172 351.5085 
1211.268 1136.246 353.4898 
1187.458 1138.009 355.146 
1229.691 1153.009 350.1206 
1224.258 1157.947 348.6459 
1227 1164.719 351.6676 
1221.543 1169.697 351.1382 
1191.271 1109.798 356.7799 
1205.365 1117.298 349.7327 
1232.821 1141.714 350.2518 
1186.15 1148.493 358.9145 
1215.619 1075.501 353.8553 
1210.417 1080.492 355.5186 
1233.239 1082.962 347.0409 
1233.339 1100.883 351.4914 
1204.58 1120.322 353.1746 
1204.295 1142.597 358.0343 
1232.747 1155.436 355.0909 
1216.275 1179.018 354.3309 
1223.838 1074.506 351.9105 
1201.071 1093.891 359.143 
1195.118 1092.527 354.2301 
1234.655 1130.456 351.1466 
1187.439 1161.715 358.5606 
1224.734 1174.41 355.9648 
1192.387 1171.739 356.1478 
1204.725 1180.217 354.0892 
1209.602 1113.44 357.2642 
1234.452 1116.6 352.7881 
1216.691 1119.041 358.7054 
1204.925 1130.332 354.26 
1217.205 1145.294 360.9942 
1229.713 1164.125 354.0248 
1196.775 1098.562 359.2435 
1194.222 1103.054 358.4936 
1204.46 1124.391 359.1822 
1235.066 1144.098 356.6839 
1210.392 1148.2 356.9905 
1206.014 1153.337 358.7825 
1202.411 1182.446 357.4684 
1209.466 1088.69 358.6983 
1203.074 1182.606 360.4852 
1221.103 1180.303 356.8427 
1212.916 1115.71 359.7528 
1212.252 1159.318 361.023 
1196.649 1177.935 359.5307 
1197.637 1179.691 355.8329 
1204.65 1184.366 359.0955 
1218.466 1084.283 356.7871 
1227.741 1093.13 356.2306 
1188.49 1127.424 358.6232 
1235.004 1131.933 359.1175 
1200.889 1142.951 365.3727 
1210.703 1183.014 358.9792 
1208.518 1097.674 362.8805 
1200.548 1103.323 363.6871 
1206.168 1116.932 356.7953 
1213.782 1121.215 363.1331 
1185.131 1145.362 365.87 
1187.086 1166.961 364.4006 
1207.469 1165.198 361.8784 
1230.072 1168.515 359.2305 
1201.088 1178.468 363.7838 
1218.458 1181.829 358.5854 
1218.37 1095.396 361.1362 
1231.793 1107.759 357.7233 
1208.744 1119.652 361.7569 
1186.76 1137.742 362.7968 
1183.144 1158.643 370.9324 
1211.628 1164.427 366.4612 
1204.594 1164.319 364.1346 
1231.795 1168.186 365.5714 
1208.641 1181.629 363.0556 
1207.415 1185.051 360.6018 
1195.21 1110.953 363.7802 
1185.186 1164.076 369.7186 
1218.107 1179.988 363.0941 
1226.772 1174.2 364.466 
1189.715 1129.018 369.1898 
1235.744 1144.382 364.3839 
1218.745 1156.11 363.2177 
1190.093 1171.261 360.4106 
1193.606 1173.203 364.951 
1224.982 1177.076 359.801 
1203.062 1133.946 363.2558 
1216.115 1104.812 366.0368 
1200.519 1110.576 367.9507 
1231.5 1119.567 362.7072 
1206.507 1126.991 365.4544 
1201.627 1151.642 363.6015 
1184.433 1155.823 366.3133 
1205.01 1160.325 362.1191 
1220.723 1154.069 367.5237 
1218.01 1159.604 367.5448 
1209.809 1165.88 362.7304 
1226.178 1106.022 362.4376 
1211.202 1124.842 365.846 
1221.243 1157.284 369.3091 
1221.226 1175.698 371.582 
1207.714 1102.944 365.743 
1198.082 1115.925 369.4265 
1215.92 1130.679 365.1779 
1234.645 1157.746 362.68 
1213.656 1178.822 367.3118 
1207.531 1107.821 368.2101 
1191.862 1119.041 363.5689 
1210.399 1129.727 368.7121 
1183.417 1160.642 375.7974 
1199.6 1174.893 368.4717 
1206.453 1177.563 368.1058 
1217.24 1113.728 370.6943 
1235.02 1163.049 369.6921 
1189.032 1168.64 368.978 
1224.797 1113.478 366.927 
1206.327 1113.593 371.4663 
1195.305 1121.399 371.3452 
1194.086 1170.912 372.7169 
1227.357 1122.019 369.8205 
1182.801 1154.235 376.6697 
1206.904 1165.73 365.3907 
1187.166 1165.946 375.7462 
1208.039 1164.111 369.6074 
1231.028 1169.843 372.2581 
1227.858 1171.921 379.4619 
1206.322 1132.858 369.3159 
1211.267 1136.37 372.1057 
1191.499 1168.796 377.0759 
1203.1 1173.839 374.9413 
1204.085 1119.11 374.7508 
1213.285 1116.988 374.1412 
1216.298 1175.372 376.1006 
1221.859 1121.396 374.3795 
1186.26 1138.693 370.0914 
1233.11 1168.783 378.7451 
1228.903 1128.927 373.682 
1187.563 1135.288 377.5947 
1233.277 1133.264 368.0251 
1235.373 1142.77 370.0242 
1236.346 1152.178 371.3503 
1219.967 1155.449 373.5068 
1219.358 1174.355 381.7971 
1195.84 1125.325 376.2874 
1214.871 1121.904 377.2504 
1203.883 1139.816 372.0926 
1199.794 1148.83 373.231 
1218.031 1145.36 372.687 
1195.196 1169.927 381.9047 
1203.256 1145.543 378.9547 
1210.197 1143.119 377.6203 
1202.506 1159.36 371.0702 
1212.215 1176.14 372.633 
1183.553 1145.532 379.2097 
1215.55 1147.599 380.1377 
1219.377 1151.247 378.9495 
1184.453 1145.923 372.8466 
1210.837 1174.533 379.9408 
1232.896 1139.52 376.0238 
1183.811 1141.039 383.6243 
1208.57 1148.285 382.8503 
1198.276 1156.224 380.5877 
1196.128 1128.886 381.6699 
1224.136 1128.452 377.988 
1198.265 1153.824 377.4056 
1201.97 1159.377 381.6362 
1211.486 1160.755 375.816 
1188.12 1166.066 384.2311 
1190.241 1167.863 379.5006 
1206.008 1124.335 379.4819 
1214.809 1152.214 383.3503 
1217.323 1155.908 380.2593 
1208.83 1130.744 384.1858 
1216.297 1127.225 380.699 
1187.998 1134.109 384.3638 
1234.324 1143.914 382.3448 
1207.781 1153.091 386.0292 
1210.612 1157.56 385.0056 
1203.454 1172.836 382.2161 
1225.073 1135.778 383.2258 
1184.546 1138.488 386.7924 
1199.665 1152.17 384.0939 
1236.87 1150.292 378.8757 
1181.88 1152.34 383.813 
1205.679 1136.307 388.9239 
1206.278 1160.325 384.6446 
1207.607 1173.666 386.139 
1213.308 1174.452 386.7361 
1196.129 1132.437 386.4771 
1227.405 1141.169 387.8867 
1236.219 1161.404 378.5832 
1181.442 1156.61 387.1677 
1190.756 1166.717 388.741 
1201.744 1171.82 387.8441 
1232.375 1143.151 386.0511 
1183.999 1145.891 389.3108 
1196.378 1154.089 387.8957 
1203.427 1156.255 388.1535 
1201.214 1158.518 387.635 
1196.117 1169.269 389.6055 
1196.439 1136.397 390.1006 
1188.721 1137.481 389.3031 
1218.024 1138.227 388.0456 
1198.006 1155.32 388.482 
1197.505 1156.012 386.3179 
1205.514 1159.248 387.92 
1231.943 1167.675 384.7242 
1225.598 1146.349 391.7242 
1181.44 1156.585 387.1817 
1214.513 1143.122 392.0564 
1232.24 1146.667 389.0627 
1181.99 1160.18 389.956 
1200.637 1170.259 393.5675 
1224.115 1171.034 389.9054 
1209.031 1172.848 391.857 
1218.177 1174.109 390.3506 
1193.651 1140.073 392.716 
1220.976 1173.174 391.812 
1188.816 1144.153 393.9693 
1186.765 1151.96 395.5618 
1236.224 1151.596 385.4463 
1203.204 1142.284 393.287 
1220.159 1149.077 394.9139 
1191.795 1149.419 397.8689 
1212.441 1147.68 395.3087 
1232.843 1154.107 391.5446 
1235.558 1160.481 387.6886 
1196.464 1145.863 396.2515 
1216.52 1152.886 397.741 
1189.356 1159.242 397.4391 
1206.602 1168.488 397.67 
1225.745 1155.32 396.1805 
1229.653 1163.563 393.4699 
1219.664 1167.724 397.1778 
1217.14 1172.266 394.3486 
1206.335 1149.827 397.5012 
1193.039 1155.521 399.9907 
1209.908 1161.528 400.624 
1210.611 1155.625 399.8534 
1218.539 1157.951 399.5214 
1200.463 1153.629 399.9568 
1222.692 1162.092 398.6561 
1193.809 1165.721 395.1117 
1197.787 1162.048 400.2997 
1199.657 1158.417 401.5468 
3 5 2 15 
3 4 1 6 
3 0 4 11 
3 0 1 4 
3 10 5 12 
3 5 8 12 
3 8 5 15 
3 2 3 15 
3 12 8 28 
3 3 14 15 
3 15 14 20 
3 9 10 12 
3 11 4 14 
3 3 11 14 
3 8 15 27 
3 4 6 13 
3 4 13 19 
3 14 4 19 
3 8 27 28 
3 15 20 27 
3 9 12 32 
3 17 13 21 
3 13 17 19 
3 28 27 46 
3 21 22 25 
3 17 21 25 
3 12 28 56 
3 20 14 31 
3 24 9 32 
3 28 46 56 
3 27 33 46 
3 14 19 35 
3 20 31 33 
3 27 20 33 
3 32 12 56 
3 17 25 30 
3 19 17 30 
3 38 41 52 
3 19 30 34 
3 19 34 35 
3 14 35 39 
3 31 14 39 
3 84 32 85 
3 36 32 84 
3 32 56 85 
3 34 30 53 
3 46 33 67 
3 67 33 68 
3 33 31 68 
3 31 39 54 
3 25 22 29 
3 84 85 130 
3 30 25 71 
3 41 38 45 
3 40 38 52 
3 46 67 90 
3 39 42 48 
3 31 54 68 
3 41 45 62 
3 56 46 90 
3 47 34 53 
3 67 68 81 
3 39 35 42 
3 39 48 54 
3 25 55 71 
3 52 41 62 
3 67 81 127 
3 68 54 82 
3 54 48 100 
3 57 30 71 
3 72 45 101 
3 62 45 72 
3 53 30 64 
3 35 34 42 
3 81 68 99 
3 82 54 100 
3 45 60 101 
3 45 38 61 
3 60 45 61 
3 38 40 61 
3 56 78 85 
3 40 52 74 
3 78 56 90 
3 64 30 73 
3 52 62 74 
3 65 62 72 
3 63 62 65 
3 63 65 66 
3 48 42 69 
3 49 43 76 
3 30 57 73 
3 62 63 74 
3 34 47 159 
3 42 34 75 
3 68 82 99 
3 48 87 100 
3 48 69 83 
3 40 74 97 
3 74 79 97 
3 72 101 133 
3 112 72 133 
3 65 72 112 
3 47 80 159 
3 93 65 98 
3 66 65 93 
3 81 99 138 
3 48 83 87 
3 85 78 130 
3 102 65 112 
3 90 67 91 
3 53 64 80 
3 74 63 86 
3 79 74 86 
3 47 53 80 
3 98 65 102 
3 63 66 86 
3 103 34 159 
3 75 34 103 
3 99 82 139 
3 69 42 75 
3 70 84 147 
3 84 130 147 
3 60 96 101 
3 55 57 71 
3 97 79 113 
3 78 90 91 
3 98 102 137 
3 91 67 127 
3 66 93 94 
3 95 89 147 
3 89 70 147 
3 25 29 111 
3 61 40 97 
3 79 86 92 
3 78 91 127 
3 86 66 94 
3 93 98 116 
3 94 93 108 
3 82 100 119 
3 69 75 109 
3 100 87 120 
3 87 83 104 
3 87 104 120 
3 29 49 111 
3 96 60 125 
3 60 61 125 
3 57 55 73 
3 130 78 150 
3 102 112 143 
3 98 137 144 
3 116 98 144 
3 86 94 117 
3 138 99 139 
3 75 103 109 
3 119 100 120 
3 49 76 105 
3 49 105 111 
3 106 25 111 
3 55 25 106 
3 101 96 133 
3 55 106 168 
3 61 97 107 
3 73 55 168 
3 79 92 113 
3 112 126 143 
3 139 82 153 
3 82 119 153 
3 104 83 110 
3 105 76 122 
3 123 124 131 
3 124 95 131 
3 96 125 133 
3 130 141 181 
3 112 133 134 
3 141 130 150 
3 126 112 134 
3 113 92 114 
3 115 102 143 
3 137 115 144 
3 93 116 152 
3 108 93 152 
3 129 108 152 
3 94 108 118 
3 118 108 129 
3 83 69 110 
3 104 110 140 
3 122 121 162 
3 121 123 162 
3 123 131 187 
3 61 107 125 
3 133 125 134 
3 107 97 113 
3 113 114 135 
3 102 115 137 
3 126 136 143 
3 114 92 128 
3 78 127 150 
3 92 86 117 
3 127 81 157 
3 145 103 159 
3 109 103 145 
3 119 120 156 
3 120 104 146 
3 162 123 187 
3 131 163 187 
3 131 95 132 
3 132 95 147 
3 125 107 134 
3 134 107 135 
3 107 113 135 
3 135 114 136 
3 136 126 174 
3 114 128 136 
3 150 127 157 
3 115 143 144 
3 152 116 164 
3 139 153 176 
3 155 119 156 
3 120 146 156 
3 104 140 146 
3 105 122 162 
3 106 111 148 
3 131 132 163 
3 134 135 142 
3 126 134 142 
3 149 141 150 
3 136 128 143 
3 143 128 151 
3 144 143 151 
3 92 117 128 
3 116 144 164 
3 157 81 191 
3 81 138 170 
3 138 139 170 
3 170 139 176 
3 118 129 165 
3 129 152 154 
3 119 155 177 
3 69 109 110 
3 146 140 160 
3 181 141 200 
3 106 148 168 
3 135 136 174 
3 149 150 157 
3 144 151 164 
3 117 94 128 
3 81 170 191 
3 153 119 177 
3 145 159 166 
3 129 154 165 
3 156 146 183 
3 110 109 161 
3 146 160 183 
3 132 147 181 
3 147 130 181 
3 64 73 169 
3 128 94 171 
3 176 153 177 
3 158 118 165 
3 158 165 195 
3 109 145 161 
3 156 183 281 
3 163 132 180 
3 126 142 174 
3 80 64 169 
3 155 156 213 
3 161 145 167 
3 160 179 183 
3 140 110 173 
3 160 140 173 
3 160 173 179 
3 105 162 216 
3 111 105 148 
3 187 163 188 
3 163 180 188 
3 168 148 201 
3 149 157 182 
3 164 151 175 
3 151 128 171 
3 94 118 171 
3 118 158 171 
3 165 154 185 
3 161 167 172 
3 162 209 216 
3 180 132 181 
3 73 168 184 
3 169 73 184 
3 142 135 174 
3 151 171 175 
3 170 176 191 
3 152 164 205 
3 154 178 185 
3 167 145 197 
3 110 161 172 
3 173 110 198 
3 179 173 186 
3 162 187 209 
3 180 181 199 
3 199 181 200 
3 141 149 182 
3 80 169 203 
3 159 80 192 
3 164 175 193 
3 175 171 193 
3 164 193 205 
3 213 156 231 
3 154 152 221 
3 214 154 221 
3 178 154 214 
3 110 172 198 
3 186 173 198 
3 188 180 211 
3 141 182 225 
3 182 157 202 
3 176 177 242 
3 152 205 250 
3 165 185 195 
3 177 155 213 
3 231 156 281 
3 183 179 281 
3 189 180 199 
3 180 189 211 
3 200 141 225 
3 157 191 204 
3 204 191 242 
3 159 192 212 
3 193 171 194 
3 171 158 194 
3 194 158 195 
3 221 152 250 
3 177 213 243 
3 145 166 197 
3 196 178 214 
3 179 222 281 
3 179 186 223 
3 186 208 223 
3 186 198 208 
3 187 188 209 
3 184 168 201 
3 189 190 211 
3 211 190 219 
3 219 190 220 
3 202 157 204 
3 191 176 242 
3 197 166 206 
3 185 178 207 
3 214 221 282 
3 178 196 207 
3 222 179 223 
3 172 167 215 
3 198 172 215 
3 148 105 216 
3 209 188 254 
3 188 211 217 
3 199 200 225 
3 201 210 218 
3 184 201 218 
3 217 211 219 
3 182 202 225 
3 219 220 241 
3 202 204 220 
3 192 80 203 
3 220 204 226 
3 205 193 250 
3 166 159 212 
3 194 195 228 
3 206 166 244 
3 221 251 282 
3 196 214 234 
3 234 214 282 
3 223 208 246 
3 216 209 254 
3 189 199 225 
3 217 219 240 
3 190 189 202 
3 190 202 220 
3 240 219 241 
3 192 203 227 
3 226 204 242 
3 212 192 227 
3 193 228 250 
3 193 194 228 
3 243 231 278 
3 213 231 243 
3 195 185 207 
3 231 281 330 
3 197 206 233 
3 222 261 281 
3 167 197 237 
3 208 198 238 
3 198 215 238 
3 208 238 247 
3 148 216 224 
3 201 148 224 
3 188 217 254 
3 202 189 225 
3 217 240 248 
3 169 184 203 
3 203 184 229 
3 227 203 229 
3 220 226 241 
3 212 227 249 
3 228 195 232 
3 244 166 279 
3 221 250 280 
3 251 221 280 
3 195 207 232 
3 251 258 282 
3 262 234 282 
3 222 245 261 
3 222 223 245 
3 246 208 247 
3 224 216 239 
3 210 201 224 
3 240 241 255 
3 226 242 288 
3 242 177 243 
3 230 228 232 
3 207 196 232 
3 196 234 235 
3 235 234 262 
3 197 236 237 
3 215 167 237 
3 245 223 246 
3 246 247 269 
3 239 216 254 
3 254 217 273 
3 218 210 274 
3 217 248 273 
3 242 243 288 
3 243 278 288 
3 228 230 250 
3 278 231 330 
3 233 206 244 
3 196 235 259 
3 197 233 236 
3 238 215 253 
3 248 240 275 
3 240 255 275 
3 227 229 255 
3 255 241 265 
3 249 227 277 
3 241 226 287 
3 287 226 288 
3 166 212 256 
3 232 196 259 
3 260 262 282 
3 252 235 262 
3 236 233 268 
3 215 237 253 
3 238 253 271 
3 247 238 271 
3 263 247 271 
3 247 263 269 
3 273 248 290 
3 248 275 290 
3 255 229 275 
3 227 255 276 
3 255 265 291 
3 212 249 256 
3 166 256 279 
3 256 267 279 
3 250 230 280 
3 230 232 257 
3 258 251 280 
3 258 280 282 
3 257 232 259 
3 259 235 284 
3 260 282 315 
3 235 252 284 
3 262 260 285 
3 252 262 285 
3 246 269 294 
3 224 239 264 
3 227 276 277 
3 265 241 287 
3 256 249 266 
3 281 261 345 
3 261 245 339 
3 245 246 294 
3 253 237 270 
3 253 270 271 
3 269 263 311 
3 263 271 296 
3 239 254 264 
3 224 264 272 
3 264 254 286 
3 210 224 272 
3 254 273 286 
3 184 218 274 
3 229 184 274 
3 229 274 275 
3 276 255 291 
3 277 276 292 
3 265 287 291 
3 230 257 283 
3 331 281 345 
3 260 315 325 
3 252 285 309 
3 285 293 309 
3 237 236 295 
3 270 237 295 
3 294 269 311 
3 271 270 289 
3 271 289 299 
3 286 273 303 
3 273 290 303 
3 275 274 290 
3 256 266 267 
3 288 278 330 
3 280 230 283 
3 282 280 283 
3 330 281 331 
3 244 279 317 
3 268 233 306 
3 284 252 310 
3 261 339 345 
3 285 260 308 
3 293 285 308 
3 295 236 319 
3 296 271 299 
3 263 296 321 
3 299 289 301 
3 272 264 286 
3 210 272 297 
3 292 276 304 
3 276 291 304 
3 249 277 292 
3 266 249 292 
3 287 288 330 
3 317 279 338 
3 282 283 315 
3 233 244 306 
3 257 259 284 
3 308 260 325 
3 252 309 310 
3 294 311 320 
3 289 270 295 
3 311 263 321 
3 301 289 302 
3 272 286 303 
3 274 210 297 
3 290 274 297 
3 290 297 303 
3 266 292 314 
3 291 287 336 
3 287 330 336 
3 267 266 298 
3 283 305 315 
3 283 257 305 
3 306 244 317 
3 307 284 310 
3 245 326 339 
3 245 294 326 
3 321 296 323 
3 296 299 313 
3 296 313 323 
3 289 300 302 
3 304 291 336 
3 293 308 347 
3 309 293 318 
3 310 309 318 
3 318 293 347 
3 294 320 326 
3 289 295 300 
3 299 301 312 
3 299 312 313 
3 297 272 303 
3 292 304 314 
3 314 304 328 
3 298 266 314 
3 279 267 338 
3 315 305 316 
3 305 257 316 
3 257 284 307 
3 308 325 332 
3 308 332 347 
3 333 318 347 
3 320 311 321 
3 322 321 323 
3 323 313 335 
3 301 302 343 
3 313 312 335 
3 328 304 336 
3 298 314 329 
3 257 307 316 
3 306 317 324 
3 268 306 324 
3 310 318 348 
3 339 326 353 
3 326 320 334 
3 295 319 327 
3 320 321 322 
3 320 322 349 
3 300 295 342 
3 312 301 343 
3 343 302 363 
3 267 298 338 
3 336 330 366 
3 330 331 366 
3 325 315 332 
3 347 332 352 
3 339 353 368 
3 318 333 354 
3 348 318 354 
3 354 333 355 
3 326 334 353 
3 323 335 341 
3 356 343 363 
3 314 328 329 
3 329 328 365 
3 328 336 365 
3 365 336 366 
3 298 337 338 
3 310 348 418 
3 295 327 340 
3 295 340 342 
3 322 341 349 
3 322 323 341 
3 302 300 342 
3 341 335 359 
3 335 312 343 
3 298 329 357 
3 366 331 382 
3 315 316 344 
3 331 345 382 
3 332 315 373 
3 352 332 373 
3 307 310 346 
3 345 339 368 
3 369 333 401 
3 333 347 401 
3 355 333 406 
3 340 327 407 
3 302 342 363 
3 343 356 370 
3 335 343 370 
3 337 298 357 
3 338 337 350 
3 317 338 351 
3 324 317 351 
3 316 307 346 
3 236 268 367 
3 347 352 401 
3 333 369 406 
3 354 355 361 
3 348 354 361 
3 353 334 419 
3 334 320 349 
3 349 341 378 
3 335 370 380 
3 359 335 380 
3 357 329 365 
3 338 350 351 
3 344 316 360 
3 315 344 373 
3 373 344 383 
3 316 346 360 
3 319 236 367 
3 368 353 396 
3 361 355 408 
3 334 378 419 
3 334 349 378 
3 356 364 370 
3 366 382 412 
3 344 360 383 
3 346 310 418 
3 355 406 408 
3 348 361 397 
3 387 377 408 
3 377 361 408 
3 370 364 390 
3 357 365 381 
3 365 366 381 
3 337 357 371 
3 324 351 391 
3 382 345 404 
3 268 324 422 
3 367 268 422 
3 345 368 404 
3 378 341 400 
3 364 358 390 
3 350 337 372 
3 351 350 372 
3 324 391 422 
3 382 404 412 
3 360 346 374 
3 404 368 453 
3 375 327 384 
3 327 319 384 
3 327 375 407 
3 376 340 407 
3 340 376 398 
3 342 340 398 
3 371 357 381 
3 337 371 372 
3 381 366 412 
3 412 404 430 
3 360 374 383 
3 352 373 383 
3 401 352 405 
3 434 404 453 
3 319 367 384 
3 368 396 453 
3 396 353 419 
3 361 386 410 
3 397 361 410 
3 386 361 411 
3 378 388 419 
3 361 377 411 
3 348 397 409 
3 385 392 407 
3 392 376 407 
3 371 381 402 
3 371 402 416 
3 372 371 416 
3 351 372 391 
3 384 367 395 
3 387 408 466 
3 377 387 436 
3 388 378 394 
3 402 381 412 
3 352 383 405 
3 395 367 422 
3 374 346 418 
3 409 397 410 
3 419 388 428 
3 411 377 436 
3 372 416 421 
3 391 372 403 
3 383 374 413 
3 405 383 413 
3 348 409 462 
3 408 406 466 
3 403 372 421 
3 402 412 430 
3 413 374 418 
3 430 404 434 
3 369 401 460 
3 453 396 454 
3 406 369 461 
3 409 410 414 
3 410 386 481 
3 386 411 436 
3 427 402 430 
3 416 402 421 
3 421 402 427 
3 391 403 417 
3 391 417 422 
3 405 413 423 
3 401 405 441 
3 401 441 460 
3 406 461 466 
3 419 428 455 
3 436 387 466 
3 413 418 423 
3 384 395 449 
3 375 384 449 
3 396 419 455 
3 392 385 424 
3 418 348 462 
3 369 460 461 
3 407 375 471 
3 454 396 455 
3 455 428 505 
3 417 403 431 
3 403 421 431 
3 427 430 434 
3 422 417 432 
3 395 422 432 
3 451 434 453 
3 385 407 435 
3 466 461 479 
3 409 414 456 
3 421 427 431 
3 431 427 446 
3 446 427 448 
3 417 431 445 
3 427 434 448 
3 405 423 441 
3 423 418 442 
3 375 449 471 
3 424 385 435 
3 392 424 437 
3 386 436 438 
3 386 438 481 
3 428 388 439 
3 445 431 446 
3 432 417 445 
3 441 423 442 
3 442 418 462 
3 409 456 462 
3 497 455 505 
3 438 436 466 
3 428 439 505 
3 445 446 459 
3 446 448 459 
3 448 434 451 
3 441 442 460 
3 453 454 473 
3 454 455 473 
3 435 407 471 
3 439 450 505 
3 448 451 478 
3 459 448 478 
3 449 452 471 
3 462 456 470 
3 476 466 479 
3 414 410 456 
3 437 424 526 
3 438 466 481 
3 466 480 481 
3 456 410 481 
3 505 450 521 
3 458 445 484 
3 432 445 458 
3 445 459 484 
3 395 432 458 
3 451 453 473 
3 449 395 452 
3 460 442 465 
3 442 462 465 
3 456 481 486 
3 484 459 488 
3 459 478 488 
3 451 473 478 
3 452 395 458 
3 461 460 464 
3 464 460 465 
3 479 461 496 
3 461 464 496 
3 473 455 497 
3 481 480 500 
3 465 462 469 
3 469 462 470 
3 452 468 471 
3 490 473 497 
3 470 456 486 
3 466 476 480 
3 477 458 484 
3 468 452 474 
3 465 469 475 
3 487 484 488 
3 452 458 477 
3 452 477 489 
3 488 478 494 
3 478 473 494 
3 486 481 492 
3 477 484 487 
3 464 465 475 
3 475 469 485 
3 468 435 471 
3 435 468 498 
3 476 479 496 
3 476 496 519 
3 485 470 486 
3 469 470 485 
3 480 476 519 
3 513 480 519 
3 492 481 500 
3 477 487 503 
3 474 452 489 
3 487 488 494 
3 473 490 494 
3 464 475 496 
3 475 485 491 
3 424 435 526 
3 485 486 492 
3 500 480 513 
3 489 477 503 
3 468 474 498 
3 435 498 526 
3 487 499 503 
3 474 489 495 
3 495 489 516 
3 487 494 517 
3 494 504 517 
3 504 494 509 
3 494 490 509 
3 475 491 496 
3 491 485 492 
3 482 437 526 
3 499 487 517 
3 474 495 510 
3 498 474 510 
3 509 490 535 
3 490 497 535 
3 498 506 523 
3 506 498 526 
3 492 500 520 
3 505 521 541 
3 489 503 516 
3 503 499 515 
3 504 509 525 
3 496 491 512 
3 497 505 535 
3 500 513 520 
3 503 515 516 
3 517 504 522 
3 522 504 525 
3 496 511 519 
3 491 492 512 
3 515 499 536 
3 510 495 516 
3 499 517 524 
3 517 522 524 
3 525 509 535 
3 511 496 518 
3 496 512 518 
3 518 513 519 
3 535 505 541 
3 516 515 531 
3 531 515 536 
3 499 524 536 
3 511 518 519 
3 523 506 526 
3 513 512 520 
3 512 492 520 
3 508 514 527 
3 501 508 529 
3 498 510 526 
3 525 535 540 
3 498 523 526 
3 512 513 518 
3 521 528 547 
3 508 527 529 
3 502 501 529 
3 502 529 530 
3 516 531 533 
3 510 516 533 
3 522 525 540 
3 507 482 526 
3 531 536 542 
3 536 524 539 
3 524 522 537 
3 526 510 534 
3 524 537 539 
3 541 521 547 
3 528 532 549 
3 532 530 549 
3 533 531 542 
3 537 522 546 
3 522 540 546 
3 540 535 541 
3 507 526 557 
3 514 507 557 
3 530 529 549 
3 536 539 550 
3 542 536 550 
3 510 533 534 
3 534 533 538 
3 539 537 543 
3 546 540 547 
3 540 541 547 
3 548 528 549 
3 547 528 548 
3 538 533 542 
3 539 543 550 
3 543 537 546 
3 527 514 557 
3 545 527 557 
3 529 527 545 
3 543 546 554 
3 538 542 555 
3 542 550 555 
3 550 543 553 
3 526 534 544 
3 553 543 554 
3 526 544 557 
3 545 548 549 
3 529 545 549 
3 534 538 551 
3 551 538 555 
3 554 546 556 
3 546 547 556 
3 547 548 556 
3 544 534 551 
3 550 553 555 
3 553 552 555 
3 552 553 554 
3 551 555 559 
3 552 554 556 
3 548 545 552 
3 548 552 556 
3 544 551 558 
3 557 544 558 
3 555 552 559 
3 552 545 558 
3 545 557 558 
3 558 551 559 
3 552 558 559 
3 342 362 363 
3 356 358 364 
3 362 356 363 
3 358 356 362 
3 359 380 400 
3 341 359 400 
3 358 362 379 
3 362 342 398 
3 380 393 400 
3 358 389 390 
3 370 389 393 
3 389 370 390 
3 380 370 393 
3 393 394 400 
3 379 362 399 
3 394 393 415 
3 362 398 399 
3 358 379 389 
3 393 389 420 
3 398 376 399 
3 415 393 420 
3 379 399 425 
3 389 379 426 
3 420 389 426 
3 376 392 429 
3 379 425 426 
3 399 376 429 
3 388 394 439 
3 394 415 439 
3 420 426 467 
3 425 399 433 
3 399 429 433 
3 415 420 467 
3 429 392 437 
3 433 429 437 
3 425 433 444 
3 439 415 440 
3 447 415 467 
3 433 437 443 
3 439 440 450 
3 426 425 444 
3 426 444 467 
3 433 443 463 
3 450 440 521 
3 415 447 457 
3 440 415 457 
3 444 433 463 
3 444 463 493 
3 467 444 472 
3 443 437 483 
3 463 443 483 
3 447 467 472 
3 440 457 528 
3 521 440 528 
3 457 447 472 
3 437 482 483 
3 472 444 493 
3 493 463 508 
3 472 501 502 
3 457 472 502 
3 482 463 483 
3 457 502 530 
3 528 457 530 
3 463 482 507 
3 508 463 514 
3 463 507 514 
3 528 530 532 
3 1 0 6 
3 2 5 7 
3 7 5 10 
3 6 0 11 
3 3 2 7 
3 6 11 16 
3 3 7 16 
3 11 3 16 
3 7 10 24 
3 10 9 24 
3 16 7 24 
3 13 6 18 
3 18 6 26 
3 6 16 26 
3 13 18 21 
3 16 24 26 
3 21 18 22 
3 22 18 23 
3 26 24 44 
3 23 18 26 
3 24 36 44 
3 22 23 29 
3 29 23 37 
3 37 23 44 
3 24 32 36 
3 23 26 44 
3 37 44 58 
3 43 37 50 
3 29 37 43 
3 44 36 51 
3 50 37 59 
3 37 58 59 
3 44 51 58 
3 29 43 49 
3 58 51 59 
3 51 36 70 
3 43 50 77 
3 59 51 95 
3 51 89 95 
3 70 36 84 
3 76 43 88 
3 43 77 88 
3 50 59 77 
3 51 70 89 
3 88 77 123 
3 77 59 123 
3 76 88 122 
3 123 59 124 
3 59 95 124 
3 88 121 122 
3 121 88 123 
3 394 378 400 
3 472 493 501 
3 501 493 508 
